<svg version="1.1" id="Layer_1" xmlns="http://www.w3.org/2000/svg" xmlns:xlink="http://www.w3.org/1999/xlink" x="0px" y="0px"
	 width="100%" viewBox="0 0 689 689" enable-background="new 0 0 689 689" xml:space="preserve">
<path fill="#FFFFFF" opacity="1.000000" stroke="none" 
	d="
M690.000000,241.000000 
	C690.000000,391.000000 690.000000,540.500000 690.000000,690.000000 
	C460.333344,690.000000 230.666718,690.000000 1.000051,690.000000 
	C1.000034,460.333374 1.000034,230.666733 1.000017,1.000082 
	C230.666626,1.000055 460.333252,1.000055 689.999939,1.000027 
	C690.000000,80.833336 690.000000,160.666672 690.000000,241.000000 
M58.026844,525.740417 
	C63.318375,533.506165 68.609901,541.271973 74.064995,549.717224 
	C81.694717,558.849426 89.324440,567.981628 97.217232,577.739563 
	C103.970467,584.491394 110.674591,591.293274 117.487068,597.984802 
	C131.976974,612.217407 148.275467,624.115906 165.413712,634.921875 
	C186.109482,647.971008 207.853897,658.878296 230.948166,667.023987 
	C252.024323,674.457947 273.444580,680.565063 295.741486,682.993469 
	C309.571472,684.499756 323.414062,686.132385 337.295258,686.842346 
	C346.840576,687.330627 356.488068,686.667175 366.042877,685.918640 
	C379.078461,684.897278 392.215271,684.107483 405.046112,681.774536 
	C425.670685,678.024475 446.199188,673.280823 465.498444,664.870728 
	C482.938019,657.270935 500.420959,649.503662 516.953003,640.161316 
	C534.462646,630.266602 551.206543,618.838135 565.741760,604.689941 
	C579.177612,591.611755 593.049255,578.862305 605.320923,564.744202 
	C615.368835,553.184387 624.271240,540.364441 632.003296,527.123108 
	C641.577209,510.727509 649.996643,493.582642 657.851990,476.278961 
	C666.333130,457.596924 672.050415,437.827728 675.546082,417.624420 
	C678.433472,400.936890 680.754944,384.053986 681.745239,367.164886 
	C682.625610,352.150940 681.498413,337.003418 680.931580,321.927124 
	C680.642578,314.239380 680.278503,306.454468 678.820618,298.932007 
	C675.964722,284.195648 672.893738,269.451935 668.862000,255.004227 
	C663.138794,234.494995 655.550415,214.622162 644.990112,195.242035 
	C638.327942,184.160965 631.665771,173.079895 624.808960,161.332581 
	C616.666931,150.837296 608.524902,140.341995 600.102234,129.215698 
	C591.206177,120.211411 582.310059,111.207130 573.069824,101.677132 
	C562.741211,93.361946 552.412537,85.046761 541.738403,76.174515 
	C533.198547,70.656723 524.658752,65.138931 515.672485,59.129814 
	C498.504791,49.241478 480.860168,40.376293 461.427856,33.655750 
	C451.960724,30.744005 442.493561,27.832258 432.509857,24.377563 
	C422.340912,22.309879 412.171967,20.242197 401.249908,17.879564 
	C385.169464,16.376207 369.089020,14.872851 352.089600,13.171255 
	C342.629822,13.445311 333.094086,13.058369 323.726440,14.134539 
	C305.650604,16.211119 287.377716,17.840748 269.700165,21.895157 
	C194.201553,39.211010 132.159607,78.620537 83.218666,138.529144 
	C58.627224,168.631546 39.981365,202.171219 27.074051,239.712646 
	C23.389956,253.490097 19.705860,267.267548 15.477564,281.588257 
	C13.879061,292.382843 12.280559,303.177429 10.325409,314.698120 
	C9.773603,326.146729 9.221798,337.595337 8.397935,349.880493 
	C10.135763,369.111420 11.873591,388.342316 13.657966,408.371399 
	C15.857645,418.250610 18.057323,428.129852 20.245937,438.764557 
	C24.417328,450.875214 28.588717,462.985870 32.879135,475.847137 
	C37.240910,485.235260 41.602684,494.623352 46.061848,504.727325 
	C50.011349,511.496796 53.960850,518.266235 58.026844,525.740417 
z"/>
<path fill="#2D2D2D" opacity="1.000000" stroke="none" 
	d="
M645.078857,195.969604 
	C655.550415,214.622162 663.138794,234.494995 668.862000,255.004227 
	C672.893738,269.451935 675.964722,284.195648 678.820618,298.932007 
	C680.278503,306.454468 680.642578,314.239380 680.931580,321.927124 
	C681.498413,337.003418 682.625610,352.150940 681.745239,367.164886 
	C680.754944,384.053986 678.433472,400.936890 675.546082,417.624420 
	C672.050415,437.827728 666.333130,457.596924 657.851990,476.278961 
	C649.996643,493.582642 641.577209,510.727509 632.003296,527.123108 
	C624.271240,540.364441 615.368835,553.184387 605.320923,564.744202 
	C593.049255,578.862305 579.177612,591.611755 565.741760,604.689941 
	C551.206543,618.838135 534.462646,630.266602 516.953003,640.161316 
	C500.420959,649.503662 482.938019,657.270935 465.498444,664.870728 
	C446.199188,673.280823 425.670685,678.024475 405.046112,681.774536 
	C392.215271,684.107483 379.078461,684.897278 366.042877,685.918640 
	C356.488068,686.667175 346.840576,687.330627 337.295258,686.842346 
	C323.414062,686.132385 309.571472,684.499756 295.741486,682.993469 
	C273.444580,680.565063 252.024323,674.457947 230.948166,667.023987 
	C207.853897,658.878296 186.109482,647.971008 165.413712,634.921875 
	C148.275467,624.115906 131.976974,612.217407 117.487068,597.984802 
	C110.674591,591.293274 103.970467,584.491394 97.129036,577.063477 
	C102.539597,567.729553 111.739021,563.961792 120.332916,559.133240 
	C123.401039,562.330444 125.934113,565.640320 128.973572,568.390503 
	C136.396805,575.107239 144.022003,581.602722 151.624237,588.119202 
	C167.701019,601.899902 185.391830,613.327087 204.182404,622.949951 
	C228.385620,635.344666 253.561127,645.318787 280.472046,650.102661 
	C295.509827,652.775940 310.622284,656.042603 325.798431,656.663818 
	C344.246704,657.418823 362.846252,656.275879 381.287048,654.793274 
	C393.851807,653.783020 406.433502,651.508484 418.695526,648.519043 
	C443.180878,642.549622 466.567749,633.524475 488.916351,621.683105 
	C510.845276,610.064148 531.215027,596.173279 549.557373,579.640747 
	C565.954468,564.861633 581.007324,548.671082 593.999084,530.624390 
	C612.164734,505.390656 626.540894,478.229065 636.503113,448.830048 
	C642.276733,431.791931 647.331421,414.491852 649.033508,396.427887 
	C650.291992,383.071777 652.652710,369.734039 652.744446,356.375885 
	C652.850342,340.954468 651.283691,325.495087 649.933594,310.096893 
	C648.315613,291.645233 644.142334,273.642639 637.940796,256.226746 
	C632.759460,241.675964 626.659302,227.452377 621.110840,212.776123 
	C629.196777,206.968765 637.137817,201.469193 645.078857,195.969604 
z"/>
<path fill="#6D6D6D" opacity="1.000000" stroke="none" 
	d="
M27.393875,239.009781 
	C39.981365,202.171219 58.627224,168.631546 83.218666,138.529144 
	C132.159607,78.620537 194.201553,39.211010 269.700165,21.895157 
	C287.377716,17.840748 305.650604,16.211119 323.726440,14.134539 
	C333.094086,13.058369 342.629822,13.445311 352.542603,13.614030 
	C351.571198,15.750549 350.423737,17.834999 348.676544,19.073290 
	C338.876953,26.018719 328.897858,32.710617 319.079468,39.630138 
	C317.767395,40.554798 317.018738,42.278858 315.577698,43.739166 
	C300.941132,46.225044 286.508942,47.687214 272.569275,51.138573 
	C202.469055,68.494858 145.050766,105.818863 101.304611,163.265320 
	C89.199776,179.161102 79.691513,197.034225 68.616226,214.005524 
	C66.397057,214.723938 64.348610,215.130508 62.745480,216.202850 
	C55.715809,220.904968 48.905575,225.937820 41.835411,230.575806 
	C37.180500,233.629410 32.218414,236.214767 27.393875,239.009781 
z"/>
<path fill="#585858" opacity="1.000000" stroke="none" 
	d="
M462.003021,34.112274 
	C480.860168,40.376293 498.504791,49.241478 515.835449,59.744629 
	C509.785919,64.845215 503.462250,69.188568 497.427002,73.901276 
	C495.553284,75.364388 494.461914,77.829414 492.663574,79.800980 
	C491.161530,79.140770 490.050507,78.416267 488.848785,77.904770 
	C471.575348,70.552376 454.289703,63.228668 437.011230,55.534107 
	C437.962891,53.947742 438.688629,52.413837 439.895020,51.555256 
	C446.101440,47.138145 452.496887,42.985188 458.668884,38.522240 
	C460.096680,37.489811 460.908020,35.604904 462.003021,34.112274 
z"/>
<path fill="#585858" opacity="1.000000" stroke="none" 
	d="
M13.611412,407.573242 
	C11.873591,388.342316 10.135763,369.111420 8.860794,349.438293 
	C12.959541,346.758484 16.607111,344.539581 20.228672,342.279022 
	C26.210539,338.545227 32.175636,334.784546 38.124313,331.501404 
	C37.990730,351.621826 36.782654,371.321381 40.126297,390.867920 
	C38.176064,391.464081 36.429279,391.712494 35.117718,392.602356 
	C27.890234,397.506104 20.769051,402.566528 13.611412,407.573242 
z"/>
<path fill="#676767" opacity="1.000000" stroke="none" 
	d="
M316.009155,43.632721 
	C317.018738,42.278858 317.767395,40.554798 319.079468,39.630138 
	C328.897858,32.710617 338.876953,26.018719 348.676544,19.073290 
	C350.423737,17.834999 351.571198,15.750549 353.002075,13.713150 
	C369.089020,14.872851 385.169464,16.376207 401.581360,18.363480 
	C400.787689,19.979448 399.801575,21.310268 398.514404,22.210556 
	C391.383789,27.197847 384.106049,31.977615 377.043884,37.058136 
	C374.770569,38.693569 372.999298,41.026840 370.529968,43.048401 
	C352.044098,43.248203 334.026642,43.440460 316.009155,43.632721 
z"/>
<path fill="#676767" opacity="1.000000" stroke="none" 
	d="
M27.233963,239.361206 
	C32.218414,236.214767 37.180500,233.629410 41.835411,230.575806 
	C48.905575,225.937820 55.715809,220.904968 62.745480,216.202850 
	C64.348610,215.130508 66.397057,214.723938 68.581001,214.368256 
	C65.969147,221.127365 62.680126,227.399094 60.145100,233.962082 
	C56.532207,243.315613 53.472401,252.882797 49.995342,262.068237 
	C47.639561,262.574921 45.211830,262.990723 43.334286,264.236053 
	C35.685822,269.309021 28.247812,274.698669 20.621857,279.806854 
	C19.372576,280.643646 17.569098,280.653137 16.021763,281.045013 
	C19.705860,267.267548 23.389956,253.490097 27.233963,239.361206 
z"/>
<path fill="#3B3B3B" opacity="1.000000" stroke="none" 
	d="
M600.382874,129.846710 
	C608.524902,140.341995 616.666931,150.837296 624.530029,161.672424 
	C620.836426,163.839386 617.307251,165.484100 614.033997,167.536880 
	C609.240662,170.542984 604.630676,173.841431 599.634888,176.876541 
	C591.542786,166.515564 583.758423,156.293365 576.016479,145.718521 
	C580.354248,141.919266 584.433594,138.143829 589.015686,135.133636 
	C592.471130,132.863556 596.570251,131.573166 600.382874,129.846710 
z"/>
<path fill="#353535" opacity="1.000000" stroke="none" 
	d="
M599.942627,177.015350 
	C604.630676,173.841431 609.240662,170.542984 614.033997,167.536880 
	C617.307251,165.484100 620.836426,163.839386 624.627441,162.005539 
	C631.665771,173.079895 638.327942,184.160965 645.034485,195.605835 
	C637.137817,201.469193 629.196777,206.968765 620.791809,212.612427 
	C613.532776,200.842789 606.737671,188.929077 599.942627,177.015350 
z"/>
<path fill="#4A4A4A" opacity="1.000000" stroke="none" 
	d="
M542.083923,76.731567 
	C552.412537,85.046761 562.741211,93.361946 573.067017,102.307510 
	C569.167725,105.894585 565.184387,108.745102 561.399841,111.838715 
	C557.823975,114.761726 554.457031,117.940224 550.684937,120.884659 
	C539.685547,112.286705 528.999390,103.810440 518.667725,95.188118 
	C524.904541,90.749817 530.848022,86.537819 536.635742,82.121582 
	C538.650024,80.584663 540.278992,78.542816 542.083923,76.731567 
z"/>
<path fill="#4A4A4A" opacity="1.000000" stroke="none" 
	d="
M32.760109,475.096527 
	C28.588717,462.985870 24.417328,450.875214 20.587988,438.339661 
	C27.391649,433.652161 33.790382,429.288818 40.355587,425.192261 
	C42.174438,424.057343 44.487820,423.714996 46.721054,423.389526 
	C50.491322,435.516205 54.114838,447.262329 57.380806,459.015594 
	C55.396042,459.777466 53.619793,460.317200 52.167206,461.323944 
	C45.647900,465.842255 39.220608,470.493347 32.760109,475.096527 
z"/>
<path fill="#5F5F5F" opacity="1.000000" stroke="none" 
	d="
M38.147793,331.035187 
	C32.175636,334.784546 26.210539,338.545227 20.228672,342.279022 
	C16.607111,344.539581 12.959541,346.758484 8.996824,349.020020 
	C9.221798,337.595337 9.773603,326.146729 10.882053,314.320618 
	C16.287560,310.800049 21.063910,307.537170 26.004702,304.545898 
	C31.471115,301.236450 37.088028,298.175598 42.663074,295.404297 
	C41.446339,304.965668 40.189758,314.127075 38.975876,323.294098 
	C38.635323,325.865906 38.420364,328.454376 38.147793,331.035187 
z"/>
<path fill="#444444" opacity="1.000000" stroke="none" 
	d="
M550.998169,121.006363 
	C554.457031,117.940224 557.823975,114.761726 561.399841,111.838715 
	C565.184387,108.745102 569.167725,105.894585 573.239136,102.570366 
	C582.310059,111.207130 591.206177,120.211411 600.242554,129.531219 
	C596.570251,131.573166 592.471130,132.863556 589.015686,135.133636 
	C584.433594,138.143829 580.354248,141.919266 575.706299,145.585815 
	C567.235107,137.539291 559.116638,129.272827 550.998169,121.006363 
z"/>
<path fill="#353535" opacity="1.000000" stroke="none" 
	d="
M120.028244,558.991272 
	C111.739021,563.961792 102.539597,567.729553 96.997498,576.750610 
	C89.324440,567.981628 81.694717,558.849426 74.294273,549.227844 
	C82.378342,543.482483 90.233131,538.226562 98.399323,533.114258 
	C105.816551,541.835693 112.922394,550.413452 120.028244,558.991272 
z"/>
<path fill="#646464" opacity="1.000000" stroke="none" 
	d="
M370.998352,43.040863 
	C372.999298,41.026840 374.770569,38.693569 377.043884,37.058136 
	C384.106049,31.977615 391.383789,27.197847 398.514404,22.210556 
	C399.801575,21.310268 400.787689,19.979448 401.957886,18.510954 
	C412.171967,20.242197 422.340912,22.309879 432.729004,25.001785 
	C431.658539,27.070915 430.578766,28.808762 429.042419,29.909260 
	C422.870392,34.330429 416.481873,38.451012 410.343719,42.916805 
	C408.600433,44.185135 407.434143,46.246593 405.579468,47.962791 
	C393.769897,46.334457 382.384125,44.687660 370.998352,43.040863 
z"/>
<path fill="#646464" opacity="1.000000" stroke="none" 
	d="
M42.639389,295.006439 
	C37.088028,298.175598 31.471115,301.236450 26.004702,304.545898 
	C21.063910,307.537170 16.287560,310.800049 11.060376,313.957581 
	C12.280559,303.177429 13.879061,292.382843 15.749661,281.316650 
	C17.569098,280.653137 19.372576,280.643646 20.621857,279.806854 
	C28.247812,274.698669 35.685822,269.309021 43.334286,264.236053 
	C45.211830,262.990723 47.639561,262.574921 49.952118,262.438782 
	C47.606384,273.735352 45.122887,284.370911 42.639389,295.006439 
z"/>
<path fill="#444444" opacity="1.000000" stroke="none" 
	d="
M32.819626,475.471832 
	C39.220608,470.493347 45.647900,465.842255 52.167206,461.323944 
	C53.619793,460.317200 55.396042,459.777466 57.518810,459.370972 
	C62.307758,469.481873 66.601158,479.244507 70.527313,489.012177 
	C68.393456,489.843994 66.506516,490.483978 64.881538,491.530640 
	C58.530869,495.621094 52.263058,499.840179 45.964458,504.011475 
	C41.602684,494.623352 37.240910,485.235260 32.819626,475.471832 
z"/>
<path fill="#4F4F4F" opacity="1.000000" stroke="none" 
	d="
M46.574299,423.009003 
	C44.487820,423.714996 42.174438,424.057343 40.355587,425.192261 
	C33.790382,429.288818 27.391649,433.652161 20.593521,437.961914 
	C18.057323,428.129852 15.857645,418.250610 13.634686,407.972290 
	C20.769051,402.566528 27.890234,397.506104 35.117718,392.602356 
	C36.429279,391.712494 38.176064,391.464081 40.264706,391.256470 
	C42.729763,402.065277 44.652031,412.537140 46.574299,423.009003 
z"/>
<path fill="#4F4F4F" opacity="1.000000" stroke="none" 
	d="
M541.911133,76.453033 
	C540.278992,78.542816 538.650024,80.584663 536.635742,82.121582 
	C530.848022,86.537819 524.904541,90.749817 518.372620,95.057129 
	C509.486145,89.993378 501.249268,84.914566 493.012390,79.835747 
	C494.461914,77.829414 495.553284,75.364388 497.427002,73.901276 
	C503.462250,69.188568 509.785919,64.845215 516.058655,59.990292 
	C524.658752,65.138931 533.198547,70.656723 541.911133,76.453033 
z"/>
<path fill="#5F5F5F" opacity="1.000000" stroke="none" 
	d="
M406.003235,47.944328 
	C407.434143,46.246593 408.600433,44.185135 410.343719,42.916805 
	C416.481873,38.451012 422.870392,34.330429 429.042419,29.909260 
	C430.578766,28.808762 431.658539,27.070915 432.987305,25.273260 
	C442.493561,27.832258 451.960724,30.744005 461.715454,33.884014 
	C460.908020,35.604904 460.096680,37.489811 458.668884,38.522240 
	C452.496887,42.985188 446.101440,47.138145 439.895020,51.555256 
	C438.688629,52.413837 437.962891,53.947742 436.618988,55.554512 
	C426.149414,53.274021 416.076324,50.609173 406.003235,47.944328 
z"/>
<path fill="#3B3B3B" opacity="1.000000" stroke="none" 
	d="
M98.087929,532.970581 
	C90.233131,538.226562 82.378342,543.482483 74.212494,548.888062 
	C68.609901,541.271973 63.318375,533.506165 58.279675,525.242798 
	C66.357185,519.489685 74.181870,514.234131 82.310081,509.152100 
	C84.731781,512.716309 86.787682,516.147949 88.983322,519.487732 
	C91.962128,524.018921 95.047997,528.479614 98.087929,532.970581 
z"/>
<path fill="#3D3D3D" opacity="1.000000" stroke="none" 
	d="
M82.006554,508.978577 
	C74.181870,514.234131 66.357185,519.489685 58.221428,524.890503 
	C53.960850,518.266235 50.011349,511.496796 46.013153,504.369385 
	C52.263058,499.840179 58.530869,495.621094 64.881538,491.530640 
	C66.506516,490.483978 68.393456,489.843994 70.761986,489.271820 
	C74.911461,496.010468 78.459007,502.494537 82.006554,508.978577 
z"/>
<path fill="#FEFEFE" opacity="1.000000" stroke="none" 
	d="
M82.310081,509.152100 
	C78.459007,502.494537 74.911461,496.010468 71.129242,489.266785 
	C66.601158,479.244507 62.307758,469.481873 57.876354,459.363861 
	C54.114838,447.262329 50.491322,435.516205 46.721054,423.389526 
	C44.652031,412.537140 42.729763,402.065277 40.669086,391.204865 
	C36.782654,371.321381 37.990730,351.621826 38.124313,331.501404 
	C38.420364,328.454376 38.635323,325.865906 38.975876,323.294098 
	C40.189758,314.127075 41.446339,304.965668 42.663071,295.404297 
	C45.122887,284.370911 47.606384,273.735352 50.133110,262.729248 
	C53.472401,252.882797 56.532207,243.315613 60.145100,233.962082 
	C62.680126,227.399094 65.969147,221.127365 68.956680,214.362839 
	C79.691513,197.034225 89.199776,179.161102 101.304611,163.265320 
	C145.050766,105.818863 202.469055,68.494858 272.569275,51.138573 
	C286.508942,47.687214 300.941132,46.225044 315.577698,43.739166 
	C334.026642,43.440460 352.044098,43.248203 370.529968,43.048401 
	C382.384125,44.687660 393.769897,46.334457 405.579468,47.962791 
	C416.076324,50.609173 426.149414,53.274021 436.614746,55.918465 
	C454.289703,63.228668 471.575348,70.552376 488.848785,77.904770 
	C490.050507,78.416267 491.161530,79.140770 492.663574,79.800995 
	C501.249268,84.914566 509.486145,89.993378 518.018188,95.203186 
	C528.999390,103.810440 539.685547,112.286705 550.684937,120.884674 
	C559.116638,129.272827 567.235107,137.539291 575.663879,145.938477 
	C583.758423,156.293365 591.542786,166.515564 599.634888,176.876556 
	C606.737671,188.929077 613.532776,200.842789 620.646973,212.920197 
	C626.659302,227.452377 632.759460,241.675964 637.940796,256.226746 
	C644.142334,273.642639 648.315613,291.645233 649.933594,310.096893 
	C651.283691,325.495087 652.850342,340.954468 652.744446,356.375885 
	C652.652710,369.734039 650.291992,383.071777 649.033508,396.427887 
	C647.331421,414.491852 642.276733,431.791931 636.503113,448.830048 
	C626.540894,478.229065 612.164734,505.390656 593.999084,530.624390 
	C581.007324,548.671082 565.954468,564.861633 549.557373,579.640747 
	C531.215027,596.173279 510.845276,610.064148 488.916351,621.683105 
	C466.567749,633.524475 443.180878,642.549622 418.695526,648.519043 
	C406.433502,651.508484 393.851807,653.783020 381.287048,654.793274 
	C362.846252,656.275879 344.246704,657.418823 325.798431,656.663818 
	C310.622284,656.042603 295.509827,652.775940 280.472046,650.102661 
	C253.561127,645.318787 228.385620,635.344666 204.182404,622.949951 
	C185.391830,613.327087 167.701019,601.899902 151.624237,588.119202 
	C144.022003,581.602722 136.396805,575.107239 128.973572,568.390503 
	C125.934113,565.640320 123.401039,562.330444 120.332916,559.133240 
	C112.922394,550.413452 105.816551,541.835693 98.399323,533.114258 
	C95.047997,528.479614 91.962128,524.018921 88.983322,519.487732 
	C86.787682,516.147949 84.731781,512.716309 82.310081,509.152100 
M340.197571,280.044250 
	C328.125977,277.715240 316.054352,275.386261 303.434753,272.508759 
	C287.960205,269.431274 272.485687,266.353790 256.221649,263.054016 
	C245.815475,261.060638 235.409302,259.067291 224.386826,256.595276 
	C222.320618,256.107941 220.253281,255.210938 218.188446,255.216690 
	C213.580200,255.229507 212.418289,253.109711 212.614838,248.775543 
	C212.897949,242.532593 212.491531,236.258362 212.652451,229.103333 
	C212.652451,224.730942 212.652451,220.358536 212.652451,215.609924 
	C215.598984,216.097641 217.802246,216.462341 220.808136,216.972153 
	C234.740585,219.800201 248.673035,222.628250 262.827209,225.501297 
	C262.827209,211.854065 262.827209,198.929886 262.979675,185.078796 
	C262.930481,177.721252 262.881256,170.363708 262.983154,162.078934 
	C262.933105,148.389618 262.883057,134.700302 262.986450,120.083282 
	C262.986450,107.506828 262.986450,94.930374 262.986450,81.916481 
	C259.659943,82.985184 256.982880,83.796524 254.338028,84.702072 
	C195.950729,104.693047 149.069183,140.077118 113.586540,190.472702 
	C102.496361,206.223984 92.850372,222.876099 85.461662,241.448120 
	C80.101028,258.916199 74.740402,276.384308 69.131584,294.554077 
	C62.921665,325.582489 62.406612,356.766815 66.283432,389.407928 
	C67.031166,387.212708 67.421448,386.313110 67.645302,385.373840 
	C74.103828,358.274597 80.572479,331.177673 86.958221,304.061249 
	C87.809883,300.444763 88.702690,296.931000 92.945747,296.155701 
	C99.141159,295.023590 101.482887,296.366425 104.572823,303.031738 
	C106.093231,314.356354 107.613640,325.681000 109.028198,337.847656 
	C109.998940,345.564911 110.969681,353.282135 111.831177,361.858551 
	C112.610611,368.574799 113.390038,375.291046 114.068398,382.837799 
	C117.093666,406.317902 120.118935,429.798004 123.144203,453.278137 
	C123.651268,453.262238 124.158340,453.246368 124.665405,453.230469 
	C126.787743,444.781433 128.753021,436.289154 131.066391,427.892761 
	C135.361740,412.302734 139.602417,396.689178 144.368851,381.240601 
	C147.323898,371.662933 156.765121,368.771149 164.066818,374.653351 
	C166.372910,376.511108 168.500870,378.589996 170.941406,381.173157 
	C178.372757,391.523926 185.804123,401.874664 193.263245,412.264069 
	C205.630188,405.883118 215.255112,395.903503 228.833740,393.861328 
	C228.833740,375.949036 228.833740,358.476532 228.987122,340.077484 
	C228.987122,333.116821 228.987122,326.156158 228.987122,319.116211 
	C223.368759,318.026245 218.181885,317.020020 212.818008,315.089020 
	C212.715851,308.057709 212.613693,301.026428 212.722488,293.083313 
	C212.722488,287.832275 212.722488,282.581268 212.722488,277.442841 
	C221.434708,278.950592 229.722198,280.384857 238.747009,282.113312 
	C240.636658,282.580566 242.510437,283.128937 244.418488,283.502045 
	C257.276642,286.016327 270.142059,288.493439 283.490417,291.601379 
	C285.108795,291.888214 286.731476,292.152679 288.344818,292.465546 
	C299.231812,294.576904 310.116821,296.698486 321.766479,299.058380 
	C332.847565,301.307281 343.928680,303.556183 355.801941,305.973877 
	C359.613617,306.809235 363.410828,307.718658 367.239777,308.465393 
	C376.823334,310.334503 386.421234,312.129883 396.544861,314.529572 
	C408.365417,316.943329 420.185944,319.357086 432.832550,321.958344 
	C444.222961,324.249420 455.613373,326.540497 467.832794,328.981049 
	C469.826721,329.457123 471.820679,329.933228 473.888977,330.427063 
	C473.888977,343.169006 473.888977,355.807190 473.888977,368.497559 
	C468.675842,367.586273 463.546326,366.689636 458.317841,365.775665 
	C458.317841,375.510284 458.317841,384.584839 458.317841,393.672699 
	C473.074402,394.032013 482.489532,405.150452 495.132874,411.052765 
	C499.894409,404.281342 504.390289,397.510468 509.286621,391.042664 
	C513.284241,385.761993 517.245667,380.264587 522.149475,375.905396 
	C528.816956,369.978485 536.219238,371.740356 540.217651,379.715698 
	C542.581970,384.431702 544.511230,389.466125 545.886169,394.559814 
	C550.893127,413.108704 555.584290,431.742859 560.574402,451.040558 
	C561.135620,448.918701 561.686768,447.507324 561.868408,446.049896 
	C566.600830,408.088776 571.289490,370.122192 575.999634,332.158295 
	C577.003357,324.068695 577.968018,315.972382 579.132446,307.905426 
	C579.740051,303.696075 582.242126,300.766998 586.575134,300.324890 
	C590.951660,299.878418 593.775024,302.358185 595.239380,306.382324 
	C595.919983,308.252594 596.575684,310.146820 597.038452,312.079132 
	C602.067993,333.080231 607.081055,354.085388 612.044922,375.102112 
	C613.970337,383.254333 615.759583,391.438751 617.697205,399.989380 
	C618.462097,399.311279 618.804749,399.158234 618.831543,398.962128 
	C620.237915,388.659546 622.493530,378.378876 622.795044,368.041504 
	C623.248901,352.485748 622.508911,336.883392 621.914734,321.314636 
	C621.673096,314.982971 620.908813,308.599915 619.631592,302.394806 
	C617.392822,291.518494 615.159729,280.577972 611.842529,270.003662 
	C608.213989,258.436523 603.359192,247.254028 598.992065,235.167664 
	C596.027466,229.432816 593.062805,223.697952 589.992981,217.236511 
	C586.350159,211.150513 582.707336,205.064499 578.930359,198.286606 
	C572.394165,189.565491 565.857971,180.844391 559.037048,171.570465 
	C553.953003,166.049515 548.868958,160.528580 543.741089,154.345612 
	C536.179688,147.555420 528.618347,140.765228 520.788635,133.352036 
	C513.684753,128.177582 506.580841,123.003128 499.054474,117.253296 
	C486.743530,110.378632 474.432617,103.503967 461.643982,96.140495 
	C449.371552,91.251389 437.099121,86.362289 424.289246,81.259087 
	C424.289246,95.800079 424.289246,108.908615 424.128815,122.939606 
	C424.175201,137.297165 424.221588,151.654739 424.107330,166.935455 
	C424.156891,177.293106 424.206451,187.650757 424.093933,198.931931 
	C424.140900,210.956512 424.187866,222.981110 424.075104,235.930252 
	C424.050140,242.429855 423.932648,248.931656 424.085815,255.427063 
	C424.113251,256.591705 425.050201,258.510773 425.924255,258.744110 
	C429.543701,259.710449 433.300262,260.163330 437.795990,260.978760 
	C439.999664,261.493713 442.188324,262.087738 444.409607,262.509979 
	C454.235809,264.378021 464.071350,266.196655 474.044006,268.957001 
	C474.105835,277.306580 474.167633,285.656158 474.068359,294.922272 
	C474.068359,298.924347 474.068359,302.926422 474.068359,307.101715 
	C466.852661,305.691986 460.428223,304.436859 453.211761,303.010406 
	C451.004913,302.506409 448.811462,301.931885 446.588959,301.510529 
	C436.742828,299.643860 426.888367,297.821228 416.613312,295.300537 
	C415.011261,295.031891 413.402832,294.796234 411.808136,294.489288 
	C400.325806,292.279205 388.846252,290.054688 376.777832,287.277435 
	C364.852325,284.933411 352.926819,282.589417 340.197571,280.044250 
M73.037315,421.785309 
	C76.681244,432.527344 80.325165,443.269409 84.028595,454.761902 
	C89.031563,465.171448 94.034531,475.580963 99.139534,486.694183 
	C106.527321,497.875519 113.915115,509.056854 121.610855,520.888550 
	C130.059341,530.296265 138.507843,539.704041 147.202301,549.729919 
	C228.781326,625.601318 324.016449,649.183533 429.726959,615.874084 
	C527.916443,584.934631 588.224670,514.877991 616.446533,415.512390 
	C613.828247,415.512390 612.151733,415.277557 610.565735,415.556793 
	C605.947449,416.369812 604.444031,414.372589 603.516968,409.909821 
	C599.497864,390.562469 595.003601,371.313843 590.682129,352.029327 
	C589.633484,353.379608 589.274658,354.759918 589.095398,356.163147 
	C585.046265,387.853333 581.197021,419.570740 576.858154,451.221039 
	C575.760132,459.230682 573.296021,467.079468 571.099792,474.901123 
	C569.985596,478.869202 566.815613,482.100952 562.763733,481.516235 
	C559.395752,481.030273 555.760742,478.733337 553.372375,476.182251 
	C551.126099,473.782928 549.950012,470.117188 549.007507,466.807983 
	C545.186035,453.390442 541.605591,439.903748 537.995117,426.426758 
	C534.975952,415.156982 532.038940,403.865173 528.722534,391.281799 
	C526.737793,393.914948 525.646240,395.313873 524.606689,396.750366 
	C519.049194,404.429749 513.870056,412.419037 507.860596,419.725861 
	C500.790833,428.321899 494.653687,429.196167 485.027557,423.782776 
	C480.107758,421.016022 475.569672,417.575897 470.687164,414.735687 
	C466.915466,412.541595 462.876221,410.807526 458.000885,408.396667 
	C458.000885,419.779480 458.438141,429.747894 457.872345,439.659058 
	C457.353485,448.747681 456.651886,457.998932 454.459198,466.786407 
	C447.943115,492.900299 434.076630,514.455383 412.568604,530.988342 
	C392.496124,546.417786 369.645233,554.193481 344.621307,554.807617 
	C329.327972,555.182861 314.251953,552.157959 300.106659,545.938782 
	C281.851196,537.912476 265.595795,527.008545 253.990616,510.447418 
	C248.074585,502.004974 243.185379,492.842957 237.769562,483.253326 
	C235.824814,476.696136 233.608307,470.204071 232.017609,463.562103 
	C230.637207,457.798248 229.965439,451.864685 229.005463,445.068329 
	C229.005463,433.813507 229.005463,422.558685 229.005463,410.520142 
	C225.945145,412.057678 223.386368,413.141968 221.032333,414.564972 
	C214.789490,418.338593 208.711884,422.389221 202.424500,426.084534 
	C195.797440,429.979401 189.210159,429.986603 182.731491,424.386993 
	C174.551727,413.791901 166.371964,403.196808 157.358185,391.521423 
	C152.313492,411.739899 147.436584,431.285950 142.175156,451.452576 
	C141.045288,455.597748 140.205185,459.850372 138.717575,463.862915 
	C136.491425,469.867554 134.459793,476.100128 131.157074,481.510284 
	C127.072205,488.201691 119.086143,488.079803 114.626114,482.007660 
	C113.662514,480.695740 112.925049,479.217743 112.074608,477.040497 
	C109.639023,465.029755 107.203445,453.019012 104.858086,440.192505 
	C103.196075,428.463654 101.534058,416.734833 99.978416,404.143768 
	C97.882935,386.424805 95.787453,368.705841 93.691971,350.986877 
	C93.227806,351.008118 92.763641,351.029358 92.299477,351.050598 
	C87.408257,372.799805 82.517029,394.549011 77.635048,416.257141 
	C75.577309,416.415558 73.959694,416.540100 71.696899,416.714325 
	C72.221405,418.363098 72.638672,419.674774 73.037315,421.785309 
M314.022614,377.926727 
	C314.016815,380.083893 314.157898,382.253540 313.975403,384.395660 
	C313.563538,389.230530 314.003723,393.628143 319.187836,396.787445 
	C325.770569,403.245087 332.353302,409.702728 339.178284,416.776306 
	C343.027161,420.631958 346.876038,424.487640 351.549194,429.169037 
	C336.424469,429.169037 322.714996,429.169037 308.119232,429.009460 
	C307.359161,427.765900 305.965057,426.535919 305.938080,425.276642 
	C305.693298,413.857208 305.687347,402.432648 305.818054,390.092010 
	C305.754059,372.738739 305.690063,355.385468 305.838501,337.251160 
	C304.768219,336.169189 303.881226,334.578369 302.588898,334.112793 
	C300.020233,333.187439 297.232086,332.862732 294.527985,332.323181 
	C283.964813,330.215546 273.399017,328.120941 262.328400,325.920990 
	C262.328400,339.268402 262.328400,352.149048 262.163086,365.949768 
	C262.196320,382.969360 262.229553,399.988953 262.100098,417.932159 
	C262.086121,422.745056 261.732239,427.586273 262.129913,432.364899 
	C262.925812,441.929901 264.133087,451.460632 265.043121,461.774994 
	C270.165009,479.536621 280.069275,493.977692 294.733307,505.285095 
	C314.858124,520.803223 337.717529,524.174194 361.804138,519.440552 
	C381.337250,515.601685 396.847198,504.500397 408.846008,488.627167 
	C417.189270,477.589783 423.292603,465.038818 423.692566,451.434662 
	C424.597565,420.650787 423.864136,389.818726 423.610077,358.227356 
	C411.520081,355.920898 399.430115,353.614441 387.058777,351.254303 
	C387.058777,361.151703 387.058777,371.076538 386.865845,381.921143 
	C386.865845,395.110931 386.865845,408.300720 386.865845,421.490509 
	C386.241516,421.912079 385.617157,422.333679 384.992828,422.755249 
	C377.079926,414.308197 369.166992,405.861145 360.963074,396.852264 
	C354.679047,390.887573 348.394989,384.922882 341.946136,378.067535 
	C343.344025,377.656555 344.738678,376.902527 346.140350,376.889252 
	C356.727600,376.789185 367.316223,376.834595 378.209473,376.834595 
	C378.209473,367.462738 378.209473,358.412720 378.209473,349.232574 
	C372.097900,348.159607 366.043640,347.096680 359.478638,345.438110 
	C344.427429,342.457397 329.376251,339.476654 314.168304,336.464905 
	C314.168304,350.095795 314.168304,363.550659 314.022614,377.926727 
M390.912659,196.084442 
	C390.846252,180.393509 390.779816,164.702591 390.894958,148.088928 
	C390.827606,130.733337 390.760284,113.377739 390.878967,95.098602 
	C390.878967,88.163033 390.878967,81.227463 390.878967,73.179726 
	C376.305695,72.212509 362.163544,71.273903 347.098480,70.145462 
	C330.325256,69.782715 313.710663,71.202232 297.159241,74.095322 
	C297.159241,85.389000 297.159241,96.199150 297.027069,107.937088 
	C297.072998,124.295418 297.118896,140.653748 297.032043,157.939438 
	C297.077576,175.295807 297.123108,192.652191 297.030823,210.935791 
	C297.030823,218.191757 297.030823,225.447708 297.030823,232.523209 
	C298.945251,232.906845 300.235504,233.176971 301.530304,233.423035 
	C311.022217,235.226807 320.515076,237.025757 330.744751,239.126953 
	C350.380493,243.233765 370.016235,247.340576 390.737549,251.674438 
	C390.737549,232.684158 390.737549,214.846039 390.912659,196.084442 
z"/>
<path fill="#161616" opacity="1.000000" stroke="none" 
	d="
M237.832031,484.006226 
	C243.185379,492.842957 248.074585,502.004974 253.990616,510.447418 
	C265.595795,527.008545 281.851196,537.912476 300.106659,545.938782 
	C314.251953,552.157959 329.327972,555.182861 344.621307,554.807617 
	C369.645233,554.193481 392.496124,546.417786 412.568604,530.988342 
	C434.076630,514.455383 447.943115,492.900299 454.459198,466.786407 
	C456.651886,457.998932 457.353485,448.747681 457.872345,439.659058 
	C458.438141,429.747894 458.000885,419.779480 458.000885,408.396667 
	C462.876221,410.807526 466.915466,412.541595 470.687164,414.735687 
	C475.569672,417.575897 480.107758,421.016022 485.027557,423.782776 
	C494.653687,429.196167 500.790833,428.321899 507.860596,419.725861 
	C513.870056,412.419037 519.049194,404.429749 524.606689,396.750366 
	C525.646240,395.313873 526.737793,393.914948 528.722534,391.281799 
	C532.038940,403.865173 534.975952,415.156982 537.995117,426.426758 
	C541.605591,439.903748 545.186035,453.390442 549.007507,466.807983 
	C549.950012,470.117188 551.126099,473.782928 553.372375,476.182251 
	C555.760742,478.733337 559.395752,481.030273 562.763733,481.516235 
	C566.815613,482.100952 569.985596,478.869202 571.099792,474.901123 
	C573.296021,467.079468 575.760132,459.230682 576.858154,451.221039 
	C581.197021,419.570740 585.046265,387.853333 589.095398,356.163147 
	C589.274658,354.759918 589.633484,353.379608 590.682129,352.029327 
	C595.003601,371.313843 599.497864,390.562469 603.516968,409.909821 
	C604.444031,414.372589 605.947449,416.369812 610.565735,415.556793 
	C612.151733,415.277557 613.828247,415.512390 616.446533,415.512390 
	C588.224670,514.877991 527.916443,584.934631 429.726959,615.874084 
	C324.016449,649.183533 228.781326,625.601318 147.091415,549.015015 
	C147.848953,546.509827 148.251038,544.101440 149.665146,543.034546 
	C156.415665,537.941895 163.420532,533.183960 170.372360,528.360962 
	C187.685669,516.349426 204.942581,504.253693 222.394531,492.446564 
	C227.230347,489.174896 232.669617,486.795166 237.832031,484.006226 
z"/>
<path fill="#171717" opacity="1.000000" stroke="none" 
	d="
M599.038818,235.903900 
	C603.359192,247.254028 608.213989,258.436523 611.842529,270.003662 
	C615.159729,280.577972 617.392822,291.518494 619.631592,302.394806 
	C620.908813,308.599915 621.673096,314.982971 621.914734,321.314636 
	C622.508911,336.883392 623.248901,352.485748 622.795044,368.041504 
	C622.493530,378.378876 620.237915,388.659546 618.831543,398.962128 
	C618.804749,399.158234 618.462097,399.311279 617.697205,399.989380 
	C615.759583,391.438751 613.970337,383.254333 612.044922,375.102112 
	C607.081055,354.085388 602.067993,333.080231 597.038452,312.079132 
	C596.575684,310.146820 595.919983,308.252594 595.239380,306.382324 
	C593.775024,302.358185 590.951660,299.878418 586.575134,300.324890 
	C582.242126,300.766998 579.740051,303.696075 579.132446,307.905426 
	C577.968018,315.972382 577.003357,324.068695 575.999634,332.158295 
	C571.289490,370.122192 566.600830,408.088776 561.868408,446.049896 
	C561.686768,447.507324 561.135620,448.918701 560.574402,451.040558 
	C555.584290,431.742859 550.893127,413.108704 545.886169,394.559814 
	C544.511230,389.466125 542.581970,384.431702 540.217651,379.715698 
	C536.219238,371.740356 528.816956,369.978485 522.149475,375.905396 
	C517.245667,380.264587 513.284241,385.761993 509.286621,391.042664 
	C504.390289,397.510468 499.894409,404.281342 495.132874,411.052765 
	C482.489532,405.150452 473.074402,394.032013 458.317841,393.672699 
	C458.317841,384.584839 458.317841,375.510284 458.317841,365.775665 
	C463.546326,366.689636 468.675842,367.586273 473.888977,368.497559 
	C473.888977,355.807190 473.888977,343.169006 473.888977,330.427063 
	C471.820679,329.933228 469.826721,329.457123 467.422791,328.548523 
	C468.107513,326.545288 468.876740,324.512634 470.347809,323.476105 
	C483.471313,314.228973 496.727478,305.170288 509.927429,296.031372 
	C526.937500,284.254517 543.836182,272.313782 560.964722,260.712067 
	C573.504272,252.218597 586.336853,244.157639 599.038818,235.903900 
z"/>
<path fill="#161616" opacity="1.000000" stroke="none" 
	d="
M309.005554,429.169037 
	C322.714996,429.169037 336.424469,429.169037 351.549194,429.169037 
	C346.876038,424.487640 343.027161,420.631958 339.105103,416.109802 
	C341.044373,413.617432 342.965576,411.676971 345.087067,409.988098 
	C350.427917,405.736267 355.859100,401.597931 361.254059,397.414093 
	C369.166992,405.861145 377.079926,414.308197 384.992828,422.755249 
	C385.617157,422.333679 386.241516,421.912079 386.865845,421.490509 
	C386.865845,408.300720 386.865845,395.110931 387.328369,381.455933 
	C392.913208,377.777649 398.002258,374.510040 403.166046,371.365112 
	C410.012512,367.195343 416.917297,363.121399 423.797028,359.006287 
	C423.864136,389.818726 424.597565,420.650787 423.692566,451.434662 
	C423.292603,465.038818 417.189270,477.589783 408.846008,488.627167 
	C396.847198,504.500397 381.337250,515.601685 361.804138,519.440552 
	C337.717529,524.174194 314.858124,520.803223 294.733307,505.285095 
	C280.069275,493.977692 270.165009,479.536621 265.444397,461.345520 
	C277.950317,452.584717 290.110382,444.331970 302.115479,435.859650 
	C304.699249,434.036224 306.723541,431.420044 309.005554,429.169037 
z"/>
<path fill="#4F4F4F" opacity="1.000000" stroke="none" 
	d="
M69.379776,293.852386 
	C74.740402,276.384308 80.101028,258.916199 86.097183,241.190552 
	C88.176018,240.138641 89.700066,239.461670 91.050873,238.532791 
	C125.180840,215.062515 159.308380,191.588608 193.400833,168.063889 
	C210.036102,156.585083 226.550049,144.929962 243.221542,133.504410 
	C249.611496,129.125153 256.287415,125.163132 262.833008,121.010986 
	C262.883057,134.700302 262.933105,148.389618 262.562134,162.584412 
	C260.363739,163.982803 258.449524,164.677719 256.829010,165.797653 
	C217.271790,193.135818 177.764359,220.546082 138.206528,247.883377 
	C117.607735,262.118622 96.947304,276.264923 76.261345,290.373169 
	C74.155869,291.809143 71.682449,292.705566 69.379776,293.852386 
z"/>
<path fill="#585858" opacity="1.000000" stroke="none" 
	d="
M262.909729,120.547134 
	C256.287415,125.163132 249.611496,129.125153 243.221542,133.504410 
	C226.550049,144.929962 210.036102,156.585083 193.400833,168.063889 
	C159.308380,191.588608 125.180840,215.062515 91.050873,238.532791 
	C89.700066,239.461670 88.176018,240.138641 86.379044,240.971039 
	C92.850372,222.876099 102.496361,206.223984 113.586540,190.472702 
	C149.069183,140.077118 195.950729,104.693047 254.338028,84.702072 
	C256.982880,83.796524 259.659943,82.985184 262.986450,81.916481 
	C262.986450,94.930374 262.986450,107.506828 262.909729,120.547134 
z"/>
<path fill="#4A4A4A" opacity="1.000000" stroke="none" 
	d="
M69.255684,294.203247 
	C71.682449,292.705566 74.155869,291.809143 76.261345,290.373169 
	C96.947304,276.264923 117.607735,262.118622 138.206528,247.883377 
	C177.764359,220.546082 217.271790,193.135818 256.829010,165.797653 
	C258.449524,164.677719 260.363739,163.982803 262.486572,163.048019 
	C262.881256,170.363708 262.930481,177.721252 262.560486,185.584030 
	C251.051392,193.600296 239.883163,200.999634 228.919662,208.690811 
	C225.653214,210.982300 222.960892,214.092148 220.005524,216.827042 
	C217.802246,216.462341 215.598984,216.097641 212.652451,215.609924 
	C212.652451,220.358536 212.652451,224.730942 212.168518,229.556183 
	C210.012848,230.634644 208.131973,230.955063 206.702774,231.934570 
	C196.059189,239.228989 185.511826,246.663666 174.921295,254.035675 
	C162.291916,262.826904 149.698456,271.670959 136.997910,280.358368 
	C126.216370,287.733124 115.304787,294.917725 104.450752,302.186493 
	C101.482887,296.366425 99.141159,295.023590 92.945747,296.155701 
	C88.702690,296.931000 87.809883,300.444763 86.958221,304.061249 
	C80.572479,331.177673 74.103828,358.274597 67.645302,385.373840 
	C67.421448,386.313110 67.031166,387.212708 66.283432,389.407928 
	C62.406612,356.766815 62.921665,325.582489 69.255684,294.203247 
z"/>
<path fill="#252525" opacity="1.000000" stroke="none" 
	d="
M182.988800,425.005066 
	C189.210159,429.986603 195.797440,429.979401 202.424500,426.084534 
	C208.711884,422.389221 214.789490,418.338593 221.032333,414.564972 
	C223.386368,413.141968 225.945145,412.057678 229.005463,410.520142 
	C229.005463,422.558685 229.005463,433.813507 228.624420,445.540100 
	C226.363892,446.980042 224.352371,447.756378 222.624771,448.945282 
	C198.778976,465.355438 174.911072,481.734894 151.184662,498.316559 
	C141.061600,505.391266 131.253906,512.917236 121.302917,520.238159 
	C113.915115,509.056854 106.527321,497.875519 99.437256,486.309204 
	C103.851120,483.221558 107.967270,480.518890 112.083420,477.816223 
	C112.925049,479.217743 113.662514,480.695740 114.626114,482.007660 
	C119.086143,488.079803 127.072205,488.201691 131.157074,481.510284 
	C134.459793,476.100128 136.491425,469.867554 138.717575,463.862915 
	C140.205185,459.850372 141.045288,455.597748 142.763107,451.185608 
	C145.510071,449.831665 147.814789,448.961121 149.803909,447.621857 
	C160.907761,440.145660 171.935226,432.555969 182.988800,425.005066 
z"/>
<path fill="#444444" opacity="1.000000" stroke="none" 
	d="
M390.692963,96.022141 
	C390.760284,113.377739 390.827606,130.733337 390.436066,148.552567 
	C385.093567,151.956772 380.046021,154.658478 375.354492,157.878830 
	C353.819824,172.660660 332.433716,187.659180 310.872314,202.401596 
	C306.578186,205.337646 301.750397,207.493134 297.168671,210.008575 
	C297.123108,192.652191 297.077576,175.295807 297.461609,157.465317 
	C299.655853,156.151123 301.573669,155.533127 303.162384,154.437836 
	C329.294220,136.421753 355.355469,118.303169 381.527283,100.345589 
	C384.276855,98.458977 387.623383,97.442368 390.692963,96.022141 
z"/>
<path fill="#1C1C1C" opacity="1.000000" stroke="none" 
	d="
M121.456894,520.563354 
	C131.253906,512.917236 141.061600,505.391266 151.184662,498.316559 
	C174.911072,481.734894 198.778976,465.355438 222.624771,448.945282 
	C224.352371,447.756378 226.363892,446.980042 228.611938,446.009003 
	C229.965439,451.864685 230.637207,457.798248 232.017609,463.562103 
	C233.608307,470.204071 235.824814,476.696136 237.800781,483.629761 
	C232.669617,486.795166 227.230347,489.174896 222.394531,492.446564 
	C204.942581,504.253693 187.685669,516.349426 170.372360,528.360962 
	C163.420532,533.183960 156.415665,537.941895 149.665146,543.034546 
	C148.251038,544.101440 147.848953,546.509827 146.968430,548.705933 
	C138.507843,539.704041 130.059341,530.296265 121.456894,520.563354 
z"/>
<path fill="#252525" opacity="1.000000" stroke="none" 
	d="
M559.321777,172.123260 
	C565.857971,180.844391 572.394165,189.565491 578.603149,198.639465 
	C576.296387,199.705780 574.063965,200.046661 572.377197,201.191452 
	C558.409485,210.671356 544.528625,220.279800 530.649414,229.889526 
	C518.267578,238.462463 505.987396,247.184067 493.531586,255.647583 
	C487.136322,259.993073 480.455383,263.918091 473.903534,268.033142 
	C464.071350,266.196655 454.235809,264.378021 444.409607,262.509979 
	C442.188324,262.087738 439.999664,261.493713 437.406250,260.535706 
	C438.257599,258.438232 439.188721,256.351929 440.791565,255.201447 
	C449.395355,249.025711 458.159698,243.073288 466.880768,237.061432 
	C496.454559,216.674835 526.041504,196.307297 555.585876,175.878159 
	C557.013855,174.890732 558.084656,173.386719 559.321777,172.123260 
z"/>
<path fill="#444444" opacity="1.000000" stroke="none" 
	d="
M104.511787,302.609131 
	C115.304787,294.917725 126.216370,287.733124 136.997910,280.358368 
	C149.698456,271.670959 162.291916,262.826904 174.921295,254.035675 
	C185.511826,246.663666 196.059189,239.228989 206.702774,231.934570 
	C208.131973,230.955063 210.012848,230.634644 212.031967,230.003265 
	C212.491531,236.258362 212.897949,242.532593 212.614838,248.775543 
	C212.418289,253.109711 213.580200,255.229507 218.188446,255.216690 
	C220.253281,255.210938 222.320618,256.107941 224.652679,257.179932 
	C224.579468,258.320526 224.371719,259.066772 223.882141,259.404510 
	C212.012329,267.593475 200.090652,275.707275 188.222687,283.898895 
	C165.705093,299.441162 143.247818,315.071167 120.680565,330.540894 
	C117.057167,333.024689 112.993942,334.866821 109.134048,337.005615 
	C107.613640,325.681000 106.093231,314.356354 104.511787,302.609131 
z"/>
<path fill="#4F4F4F" opacity="1.000000" stroke="none" 
	d="
M390.785950,95.560364 
	C387.623383,97.442368 384.276855,98.458977 381.527283,100.345589 
	C355.355469,118.303169 329.294220,136.421753 303.162384,154.437836 
	C301.573669,155.533127 299.655853,156.151123 297.528015,157.001633 
	C297.118896,140.653748 297.072998,124.295418 297.432617,107.425636 
	C313.900085,95.937187 329.981567,84.988487 345.977905,73.916786 
	C346.997131,73.211334 347.355591,71.551277 348.021423,70.335312 
	C362.163544,71.273903 376.305695,72.212509 390.878967,73.179726 
	C390.878967,81.227463 390.878967,88.163033 390.785950,95.560364 
z"/>
<path fill="#3B3B3B" opacity="1.000000" stroke="none" 
	d="
M297.099731,210.472183 
	C301.750397,207.493134 306.578186,205.337646 310.872314,202.401596 
	C332.433716,187.659180 353.819824,172.660660 375.354492,157.878830 
	C380.046021,154.658478 385.093567,151.956772 390.345276,149.013931 
	C390.779816,164.702591 390.846252,180.393509 390.452118,196.548004 
	C387.610046,198.032410 384.990051,198.702072 382.885498,200.130920 
	C368.797424,209.695801 354.741241,219.312637 340.854858,229.166565 
	C336.930420,231.951416 333.606812,235.582993 330.007629,238.826233 
	C320.515076,237.025757 311.022217,235.226807 301.530304,233.423035 
	C300.235504,233.176971 298.945251,232.906845 297.030823,232.523209 
	C297.030823,225.447708 297.030823,218.191757 297.099731,210.472183 
z"/>
<path fill="#303030" opacity="1.000000" stroke="none" 
	d="
M521.056946,133.975021 
	C528.618347,140.765228 536.179688,147.555420 543.423584,154.721039 
	C542.064758,155.602432 540.935852,155.981873 539.994873,156.632965 
	C519.439575,170.855881 498.898529,185.099274 478.369385,199.359924 
	C465.860382,208.049301 453.467255,216.909561 440.837158,225.418625 
	C435.549896,228.980713 429.783417,231.831497 424.234833,235.005692 
	C424.187866,222.981110 424.140900,210.956512 424.548767,198.469330 
	C426.833038,197.339798 428.844910,196.962830 430.456055,195.948990 
	C434.515472,193.394562 438.402863,190.565445 442.343811,187.824310 
	C454.985840,179.031113 467.563507,170.144012 480.274231,161.451416 
	C493.804138,152.198547 507.457489,143.126190 521.056946,133.975021 
z"/>
<path fill="#353535" opacity="1.000000" stroke="none" 
	d="
M212.995010,316.013763 
	C218.181885,317.020020 223.368759,318.026245 228.987122,319.116211 
	C228.987122,326.156158 228.987122,333.116821 228.552811,340.545044 
	C227.629288,341.090881 227.035034,341.016266 226.666000,341.269623 
	C212.350235,351.098236 198.027130,360.916656 183.773651,370.835114 
	C179.318848,373.935059 175.059296,377.315582 170.710358,380.567657 
	C168.500870,378.589996 166.372910,376.511108 164.066818,374.653351 
	C156.765121,368.771149 147.323898,371.662933 144.368851,381.240601 
	C139.602417,396.689178 135.361740,412.302734 131.066391,427.892761 
	C128.753021,436.289154 126.787743,444.781433 124.665405,453.230469 
	C124.158340,453.246368 123.651268,453.262238 123.144203,453.278137 
	C120.118935,429.798004 117.093666,406.317902 114.481949,382.414185 
	C119.926956,378.863190 125.074425,375.906219 129.967453,372.575439 
	C142.996796,363.706116 155.867645,354.604004 168.892899,345.728638 
	C183.541412,335.747101 198.289978,325.912354 212.995010,316.013763 
z"/>
<path fill="#2A2A2A" opacity="1.000000" stroke="none" 
	d="
M424.154968,235.467972 
	C429.783417,231.831497 435.549896,228.980713 440.837158,225.418625 
	C453.467255,216.909561 465.860382,208.049301 478.369385,199.359924 
	C498.898529,185.099274 519.439575,170.855881 539.994873,156.632965 
	C540.935852,155.981873 542.064758,155.602432 543.445496,155.052063 
	C548.868958,160.528580 553.953003,166.049515 559.179443,171.846863 
	C558.084656,173.386719 557.013855,174.890732 555.585876,175.878159 
	C526.041504,196.307297 496.454559,216.674835 466.880768,237.061432 
	C458.159698,243.073288 449.395355,249.025711 440.791565,255.201447 
	C439.188721,256.351929 438.257599,258.438232 437.011475,260.448730 
	C433.300262,260.163330 429.543701,259.710449 425.924255,258.744110 
	C425.050201,258.510773 424.113251,256.591705 424.085815,255.427063 
	C423.932648,248.931656 424.050140,242.429855 424.154968,235.467972 
z"/>
<path fill="#1B1B1B" opacity="1.000000" stroke="none" 
	d="
M599.015442,235.535797 
	C586.336853,244.157639 573.504272,252.218597 560.964722,260.712067 
	C543.836182,272.313782 526.937500,284.254517 509.927429,296.031372 
	C496.727478,305.170288 483.471313,314.228973 470.347809,323.476105 
	C468.876740,324.512634 468.107513,326.545288 467.008301,328.473755 
	C455.613373,326.540497 444.222961,324.249420 432.425781,321.509338 
	C433.718475,319.211884 435.201019,317.083160 437.158661,315.568359 
	C442.669098,311.304291 448.374969,307.292755 454.003815,303.181702 
	C460.428223,304.436859 466.852661,305.691986 474.068359,307.101715 
	C474.068359,302.926422 474.068359,298.924347 474.521118,294.463257 
	C477.041534,293.088409 479.312134,292.468475 481.145386,291.210938 
	C499.707031,278.478302 518.203308,265.650330 536.705322,252.830841 
	C548.948181,244.348083 561.071899,235.688354 573.448425,227.405914 
	C578.736572,223.867111 584.532837,221.087631 590.098206,217.963104 
	C593.062805,223.697952 596.027466,229.432816 599.015442,235.535797 
z"/>
<path fill="#3D3D3D" opacity="1.000000" stroke="none" 
	d="
M109.081123,337.426636 
	C112.993942,334.866821 117.057167,333.024689 120.680565,330.540894 
	C143.247818,315.071167 165.705093,299.441162 188.222687,283.898895 
	C200.090652,275.707275 212.012329,267.593475 223.882141,259.404510 
	C224.371719,259.066772 224.579468,258.320526 224.960815,257.419250 
	C235.409302,259.067291 245.815475,261.060638 256.611542,263.518188 
	C256.159271,265.084625 255.511566,266.449615 254.440399,267.242584 
	C250.347122,270.272736 245.962311,272.926788 242.010437,276.122040 
	C240.275574,277.524780 239.319427,279.890594 238.009705,281.819092 
	C229.722198,280.384857 221.434708,278.950592 212.722488,277.442841 
	C212.722488,282.581268 212.722488,287.832275 212.276321,293.552582 
	C210.480942,294.610687 208.993362,294.999084 207.804321,295.819946 
	C197.873840,302.675385 188.016083,309.636078 178.102341,316.515961 
	C159.218414,329.620911 140.338806,342.732513 121.387024,355.738800 
	C118.428268,357.769348 115.098595,359.259430 111.940430,360.999390 
	C110.969681,353.282135 109.998940,345.564911 109.081123,337.426636 
z"/>
<path fill="#1F1F1F" opacity="1.000000" stroke="none" 
	d="
M590.045593,217.599808 
	C584.532837,221.087631 578.736572,223.867111 573.448425,227.405914 
	C561.071899,235.688354 548.948181,244.348083 536.705322,252.830841 
	C518.203308,265.650330 499.707031,278.478302 481.145386,291.210938 
	C479.312134,292.468475 477.041534,293.088409 474.601685,294.005005 
	C474.167633,285.656158 474.105835,277.306580 473.973755,268.495056 
	C480.455383,263.918091 487.136322,259.993073 493.531586,255.647583 
	C505.987396,247.184067 518.267578,238.462463 530.649414,229.889526 
	C544.528625,220.279800 558.409485,210.671356 572.377197,201.191452 
	C574.063965,200.046661 576.296387,199.705780 578.670166,198.985413 
	C582.707336,205.064499 586.350159,211.150513 590.045593,217.599808 
z"/>
<path fill="#353535" opacity="1.000000" stroke="none" 
	d="
M520.922791,133.663528 
	C507.457489,143.126190 493.804138,152.198547 480.274231,161.451416 
	C467.563507,170.144012 454.985840,179.031113 442.343811,187.824310 
	C438.402863,190.565445 434.515472,193.394562 430.456055,195.948990 
	C428.844910,196.962830 426.833038,197.339798 424.629822,198.007568 
	C424.206451,187.650757 424.156891,177.293106 424.556793,166.473297 
	C428.111267,164.287918 431.376160,162.798294 434.294067,160.801682 
	C448.051758,151.387833 461.601227,141.665924 475.455200,132.398071 
	C483.231323,127.196106 491.454926,122.663078 499.476929,117.828674 
	C506.580841,123.003128 513.684753,128.177582 520.922791,133.663528 
z"/>
<path fill="#3B3B3B" opacity="1.000000" stroke="none" 
	d="
M499.265686,117.540985 
	C491.454926,122.663078 483.231323,127.196106 475.455200,132.398071 
	C461.601227,141.665924 448.051758,151.387833 434.294067,160.801682 
	C431.376160,162.798294 428.111267,164.287918 424.637115,166.011719 
	C424.221588,151.654739 424.175201,137.297165 424.576721,122.477646 
	C426.375305,121.525215 427.894623,121.284698 429.050385,120.505173 
	C439.285034,113.602196 449.472778,106.629021 459.617493,99.594498 
	C460.644012,98.882675 461.295929,97.630653 462.121674,96.629311 
	C474.432617,103.503967 486.743530,110.378632 499.265686,117.540985 
z"/>
<path fill="#303030" opacity="1.000000" stroke="none" 
	d="
M170.825882,380.870422 
	C175.059296,377.315582 179.318848,373.935059 183.773651,370.835114 
	C198.027130,360.916656 212.350235,351.098236 226.666000,341.269623 
	C227.035034,341.016266 227.629288,341.090881 228.476120,341.008301 
	C228.833740,358.476532 228.833740,375.949036 228.833740,393.861328 
	C215.255112,395.903503 205.630188,405.883118 193.263245,412.264069 
	C185.804123,401.874664 178.372757,391.523926 170.825882,380.870422 
z"/>
<path fill="#252525" opacity="1.000000" stroke="none" 
	d="
M305.626099,338.032196 
	C305.690063,355.385468 305.754059,372.738739 305.352875,390.556213 
	C303.800873,391.315826 302.536377,391.349121 301.654541,391.946899 
	C291.949890,398.525818 282.376831,405.301300 272.602570,411.773621 
	C269.403290,413.892059 265.723053,415.284241 262.262787,417.008545 
	C262.229553,399.988953 262.196320,382.969360 262.594727,365.484192 
	C263.651245,364.828369 264.375488,364.781342 264.886383,364.426819 
	C276.122253,356.629883 287.288879,348.731873 298.592743,341.035278 
	C300.660248,339.627563 303.267822,339.012939 305.626099,338.032196 
z"/>
<path fill="#3B3B3B" opacity="1.000000" stroke="none" 
	d="
M111.885803,361.428955 
	C115.098595,359.259430 118.428268,357.769348 121.387024,355.738800 
	C140.338806,342.732513 159.218414,329.620911 178.102341,316.515961 
	C188.016083,309.636078 197.873840,302.675385 207.804321,295.819946 
	C208.993362,294.999084 210.480942,294.610687 212.170837,294.008484 
	C212.613693,301.026428 212.715851,308.057709 212.906509,315.551392 
	C198.289978,325.912354 183.541412,335.747101 168.892899,345.728638 
	C155.867645,354.604004 142.996796,363.706116 129.967453,372.575439 
	C125.074425,375.906219 119.926956,378.863190 114.532486,381.998962 
	C113.390038,375.291046 112.610611,368.574799 111.885803,361.428955 
z"/>
<path fill="#1C1C1C" opacity="1.000000" stroke="none" 
	d="
M262.181458,417.470337 
	C265.723053,415.284241 269.403290,413.892059 272.602570,411.773621 
	C282.376831,405.301300 291.949890,398.525818 301.654541,391.946899 
	C302.536377,391.349121 303.800873,391.315826 305.249603,391.015015 
	C305.687347,402.432648 305.693298,413.857208 305.938080,425.276642 
	C305.965057,426.535919 307.359161,427.765900 308.562378,429.089233 
	C306.723541,431.420044 304.699249,434.036224 302.115479,435.859650 
	C290.110382,444.331970 277.950317,452.584717 265.508118,460.960785 
	C264.133087,451.460632 262.925812,441.929901 262.129913,432.364899 
	C261.732239,427.586273 262.086121,422.745056 262.181458,417.470337 
z"/>
<path fill="#353535" opacity="1.000000" stroke="none" 
	d="
M330.376190,238.976593 
	C333.606812,235.582993 336.930420,231.951416 340.854858,229.166565 
	C354.741241,219.312637 368.797424,209.695801 382.885498,200.130920 
	C384.990051,198.702072 387.610046,198.032410 390.364563,197.009735 
	C390.737549,214.846039 390.737549,232.684158 390.737549,251.674438 
	C370.016235,247.340576 350.380493,243.233765 330.376190,238.976593 
z"/>
<path fill="#1F1F1F" opacity="1.000000" stroke="none" 
	d="
M318.936157,396.178162 
	C314.003723,393.628143 313.563538,389.230530 313.975403,384.395660 
	C314.157898,382.253540 314.016815,380.083893 314.439362,377.421631 
	C324.573914,370.441437 334.334473,364.029266 343.992798,357.466675 
	C349.412323,353.784241 354.662781,349.852966 359.989380,346.033752 
	C366.043640,347.096680 372.097900,348.159607 378.209473,349.232574 
	C378.209473,358.412720 378.209473,367.462738 378.209473,376.834595 
	C367.316223,376.834595 356.727600,376.789185 346.140350,376.889252 
	C344.738678,376.902527 343.344025,377.656555 341.672333,378.554993 
	C336.341797,382.456787 331.177216,385.724884 326.271301,389.343689 
	C323.599548,391.314514 321.366882,393.880585 318.936157,396.178162 
z"/>
<path fill="#353535" opacity="1.000000" stroke="none" 
	d="
M238.378357,281.966187 
	C239.319427,279.890594 240.275574,277.524780 242.010437,276.122040 
	C245.962311,272.926788 250.347122,270.272736 254.440399,267.242584 
	C255.511566,266.449615 256.159271,265.084625 257.006287,263.629333 
	C272.485687,266.353790 287.960205,269.431274 303.674377,273.128296 
	C298.150818,278.049469 292.334473,282.282867 286.661011,286.699799 
	C285.210236,287.829254 284.211487,289.539307 283.005096,290.982635 
	C270.142059,288.493439 257.276642,286.016327 244.418488,283.502045 
	C242.510437,283.128937 240.636658,282.580566 238.378357,281.966187 
z"/>
<path fill="#303030" opacity="1.000000" stroke="none" 
	d="
M182.860138,424.696045 
	C171.935226,432.555969 160.907761,440.145660 149.803909,447.621857 
	C147.814789,448.961121 145.510071,449.831665 142.955383,450.875305 
	C147.436584,431.285950 152.313492,411.739899 157.358185,391.521423 
	C166.371964,403.196808 174.551727,413.791901 182.860138,424.696045 
z"/>
<path fill="#252525" opacity="1.000000" stroke="none" 
	d="
M359.734009,345.735962 
	C354.662781,349.852966 349.412323,353.784241 343.992798,357.466675 
	C334.334473,364.029266 324.573914,370.441437 314.512207,376.960999 
	C314.168304,363.550659 314.168304,350.095795 314.168304,336.464905 
	C329.376251,339.476654 344.427429,342.457397 359.734009,345.735962 
z"/>
<path fill="#585858" opacity="1.000000" stroke="none" 
	d="
M347.559937,70.240387 
	C347.355591,71.551277 346.997131,73.211334 345.977905,73.916786 
	C329.981567,84.988487 313.900085,95.937187 297.498718,106.961746 
	C297.159241,96.199150 297.159241,85.389000 297.159241,74.095322 
	C313.710663,71.202232 330.325256,69.782715 347.559937,70.240387 
z"/>
<path fill="#353535" opacity="1.000000" stroke="none" 
	d="
M83.969101,454.011444 
	C80.325165,443.269409 76.681244,432.527344 73.412216,421.384918 
	C77.844322,418.501831 81.902496,416.020721 85.958511,413.536072 
	C90.597366,410.694366 95.234276,407.849487 99.872040,405.005981 
	C101.534058,416.734833 103.196075,428.463654 104.458946,440.607178 
	C102.341064,441.910461 100.520470,442.646820 98.922455,443.715881 
	C93.893059,447.080536 88.947258,450.570190 83.969101,454.011444 
z"/>
<path fill="#252525" opacity="1.000000" stroke="none" 
	d="
M396.013397,313.954803 
	C386.421234,312.129883 376.823334,310.334503 367.239777,308.465393 
	C363.410828,307.718658 359.613617,306.809235 355.413208,305.538910 
	C355.653442,304.225677 356.110016,303.111450 356.938477,302.506378 
	C363.708374,297.562164 370.547638,292.712891 377.365814,287.834778 
	C388.846252,290.054688 400.325806,292.279205 411.808136,294.489288 
	C413.402832,294.796234 415.011261,295.031891 416.548645,295.832245 
	C410.737213,300.536713 404.897430,304.590424 399.306122,308.961945 
	C397.817352,310.125885 397.090210,312.263947 396.013397,313.954803 
z"/>
<path fill="#353535" opacity="1.000000" stroke="none" 
	d="
M305.732300,337.641663 
	C303.267822,339.012939 300.660248,339.627563 298.592743,341.035278 
	C287.288879,348.731873 276.122253,356.629883 264.886383,364.426819 
	C264.375488,364.781342 263.651245,364.828369 262.677399,365.024170 
	C262.328400,352.149048 262.328400,339.268402 262.328400,325.920990 
	C273.399017,328.120941 283.964813,330.215546 294.527985,332.323181 
	C297.232086,332.862732 300.020233,333.187439 302.588898,334.112793 
	C303.881226,334.578369 304.768219,336.169189 305.732300,337.641663 
z"/>
<path fill="#444444" opacity="1.000000" stroke="none" 
	d="
M220.406830,216.899597 
	C222.960892,214.092148 225.653214,210.982300 228.919662,208.690811 
	C239.883163,200.999634 251.051392,193.600296 262.484253,186.047485 
	C262.827209,198.929886 262.827209,211.854065 262.827209,225.501297 
	C248.673035,222.628250 234.740585,219.800201 220.406830,216.899597 
z"/>
<path fill="#303030" opacity="1.000000" stroke="none" 
	d="
M283.247742,291.291992 
	C284.211487,289.539307 285.210236,287.829254 286.661011,286.699799 
	C292.334473,282.282867 298.150818,278.049469 303.948395,273.402557 
	C316.054352,275.386261 328.125977,277.715240 340.553253,280.475708 
	C336.722198,284.213165 332.397156,287.361847 328.396973,290.879944 
	C325.695190,293.256104 323.451233,296.152893 321.002472,298.816772 
	C310.116821,296.698486 299.231812,294.576904 288.344818,292.465546 
	C286.731476,292.152679 285.108795,291.888214 283.247742,291.291992 
z"/>
<path fill="#1F1F1F" opacity="1.000000" stroke="none" 
	d="
M396.279114,314.242188 
	C397.090210,312.263947 397.817352,310.125885 399.306122,308.961945 
	C404.897430,304.590424 410.737213,300.536713 416.760437,296.173279 
	C426.888367,297.821228 436.742828,299.643860 446.588959,301.510529 
	C448.811462,301.931885 451.004913,302.506409 453.607788,303.096039 
	C448.374969,307.292755 442.669098,311.304291 437.158661,315.568359 
	C435.201019,317.083160 433.718475,319.211884 432.012756,321.415619 
	C420.185944,319.357086 408.365417,316.943329 396.279114,314.242188 
z"/>
<path fill="#444444" opacity="1.000000" stroke="none" 
	d="
M461.882812,96.384903 
	C461.295929,97.630653 460.644012,98.882675 459.617493,99.594498 
	C449.472778,106.629021 439.285034,113.602196 429.050385,120.505173 
	C427.894623,121.284698 426.375305,121.525215 424.656921,122.016418 
	C424.289246,108.908615 424.289246,95.800079 424.289246,81.259087 
	C437.099121,86.362289 449.371552,91.251389 461.882812,96.384903 
z"/>
<path fill="#1C1C1C" opacity="1.000000" stroke="none" 
	d="
M319.062012,396.482788 
	C321.366882,393.880585 323.599548,391.314514 326.271301,389.343689 
	C331.177216,385.724884 336.341797,382.456787 341.754730,379.000305 
	C348.394989,384.922882 354.679047,390.887573 361.108582,397.133179 
	C355.859100,401.597931 350.427917,405.736267 345.087067,409.988098 
	C342.965576,411.676971 341.044373,413.617432 338.984009,415.801849 
	C332.353302,409.702728 325.770569,403.245087 319.062012,396.482788 
z"/>
<path fill="#2D2D2D" opacity="1.000000" stroke="none" 
	d="
M321.384460,298.937561 
	C323.451233,296.152893 325.695190,293.256104 328.396973,290.879944 
	C332.397156,287.361847 336.722198,284.213165 340.955139,280.576294 
	C352.926819,282.589417 364.852325,284.933411 377.071838,287.556091 
	C370.547638,292.712891 363.708374,297.562164 356.938477,302.506378 
	C356.110016,303.111450 355.653442,304.225677 355.017151,305.454529 
	C343.928680,303.556183 332.847565,301.307281 321.384460,298.937561 
z"/>
<path fill="#3B3B3B" opacity="1.000000" stroke="none" 
	d="
M99.925224,404.574890 
	C95.234276,407.849487 90.597366,410.694366 85.958511,413.536072 
	C81.902496,416.020721 77.844322,418.501831 73.421524,420.985474 
	C72.638672,419.674774 72.221405,418.363098 71.696899,416.714325 
	C73.959694,416.540100 75.577309,416.415558 77.635048,416.257141 
	C82.517029,394.549011 87.408257,372.799805 92.299477,351.050598 
	C92.763641,351.029358 93.227806,351.008118 93.691971,350.986877 
	C95.787453,368.705841 97.882935,386.424805 99.925224,404.574890 
z"/>
<path fill="#2D2D2D" opacity="1.000000" stroke="none" 
	d="
M83.998848,454.386658 
	C88.947258,450.570190 93.893059,447.080536 98.922455,443.715881 
	C100.520470,442.646820 102.341064,441.910461 104.413834,441.015076 
	C107.203445,453.019012 109.639023,465.029755 112.079010,477.428345 
	C107.967270,480.518890 103.851120,483.221558 99.386230,485.957367 
	C94.034531,475.580963 89.031563,465.171448 83.998848,454.386658 
z"/>
<path fill="#1B1B1B" opacity="1.000000" stroke="none" 
	d="
M423.703552,358.616821 
	C416.917297,363.121399 410.012512,367.195343 403.166046,371.365112 
	C398.002258,374.510040 392.913208,377.777649 387.424835,380.996033 
	C387.058777,371.076538 387.058777,361.151703 387.058777,351.254303 
	C399.430115,353.614441 411.520081,355.920898 423.703552,358.616821 
z"/>
</svg>