<svg version="1.1" id="Layer_1" xmlns="http://www.w3.org/2000/svg" xmlns:xlink="http://www.w3.org/1999/xlink" x="0px" y="0px"
	 width="100%" viewBox="0 0 933 603" enable-background="new 0 0 933 603" xml:space="preserve">
<path fill="#000000" opacity="1.000000" stroke="none" 
	d="
M404.000000,604.000000 
	C295.979095,604.000000 187.958206,604.000000 79.332382,603.614685 
	C77.263359,603.063660 75.766365,603.040039 74.340294,602.710083 
	C61.053490,599.635498 48.845772,594.255432 37.882523,586.019165 
	C23.604851,575.292969 13.208437,561.656921 7.060382,544.948120 
	C4.556547,538.143372 2.991941,530.993103 1.000004,524.000000 
	C1.000000,486.312439 1.000000,448.624878 1.432925,410.490387 
	C10.957747,408.328430 20.049644,406.613373 29.298798,404.963470 
	C29.456055,405.028625 29.787424,405.106384 29.716320,405.564148 
	C29.635786,441.170746 29.543451,476.319763 29.640141,511.468323 
	C29.737761,546.955566 58.817841,575.824463 94.381783,575.842407 
	C158.682663,575.874817 222.983582,575.851562 287.284485,575.851562 
	C289.066986,575.851562 290.849518,575.851562 293.144928,575.851562 
	C293.144928,573.491882 293.144928,571.703186 293.144928,569.914490 
	C293.144928,538.596924 293.165192,507.279388 293.135834,475.961884 
	C293.122437,461.640594 293.011230,447.319366 293.044495,432.538330 
	C293.151184,424.954865 293.139862,417.831146 293.167847,410.707520 
	C293.245941,390.835754 293.340302,370.964081 293.834351,351.109680 
	C304.101562,349.260681 313.953949,347.346497 323.826263,345.541229 
	C334.167999,343.650146 344.528839,341.863586 354.935059,340.495239 
	C355.657104,357.907623 354.674194,375.116241 357.296570,391.756714 
	C365.915314,446.447845 419.847687,487.497772 474.809143,482.495819 
	C535.790344,476.946075 578.995728,429.566193 579.002563,368.233124 
	C579.004883,346.903290 579.002930,325.573425 579.002930,304.243591 
	C579.002930,302.464966 579.002930,300.686310 579.002930,298.563141 
	C584.554749,299.639069 589.591980,300.615265 594.934265,301.650604 
	C595.109314,297.680664 595.276428,293.889709 595.848694,290.114502 
	C601.102966,289.267426 605.952576,288.407318 610.801147,287.541077 
	C620.964905,285.725281 631.127991,283.906342 641.395630,282.537842 
	C641.499939,380.425079 641.499939,477.863098 641.499939,575.839417 
	C644.116638,575.839417 646.074341,575.839417 648.032104,575.839417 
	C711.692200,575.839417 775.352295,575.840088 839.012390,575.839111 
	C877.444824,575.838562 905.996033,547.340515 905.998047,508.961212 
	C906.002869,417.303986 905.998718,325.646759 906.006042,233.989548 
	C906.006226,231.992920 906.102478,229.996292 906.533936,227.926788 
	C912.727417,226.602798 918.529907,225.297699 924.357117,224.114120 
	C931.882019,222.585678 931.906067,222.627502 931.909546,214.723648 
	C931.917847,195.777359 931.942444,176.830933 931.871338,157.884903 
	C931.861511,155.258118 931.346924,152.633224 931.332153,149.692993 
	C931.419800,136.924194 931.241150,124.469879 931.336670,111.703079 
	C931.435852,100.071831 931.218933,88.753365 931.136475,77.433929 
	C931.125549,75.930489 931.797974,74.422073 932.481201,73.106361 
	C933.205566,74.864510 933.602783,76.432259 934.000000,78.000000 
	C934.000000,227.354233 934.000000,376.708466 933.614746,526.667603 
	C932.218384,531.644592 931.472473,536.098633 930.149414,540.374146 
	C925.034119,556.903748 915.713257,570.887390 902.430969,581.765259 
	C895.184448,587.700073 886.919800,592.678955 878.477600,596.777466 
	C871.468384,600.180359 863.527893,601.665344 856.000000,604.000000 
	C748.312439,604.000000 640.624878,604.000000 532.327026,603.610474 
	C514.244446,600.989807 498.913330,593.815369 485.882172,582.184875 
	C479.130676,576.159119 473.353638,569.041443 467.338379,562.632263 
	C464.829895,565.638611 462.092468,568.647278 459.658661,571.884216 
	C450.282806,584.353943 437.499390,592.133972 423.408722,597.906616 
	C417.156433,600.468140 410.482544,602.000549 404.000000,604.000000 
z"/>
<path fill="#010101" opacity="1.000000" stroke="none" 
	d="
M0.999999,147.000000 
	C1.000000,125.312439 1.000000,103.624878 1.389604,81.325836 
	C2.185535,78.153404 2.395086,75.542709 3.027969,73.039024 
	C11.343136,40.144215 31.110600,17.455118 63.259323,6.019381 
	C69.036980,3.964192 75.079674,2.654103 81.000000,1.000000 
	C187.687561,1.000000 294.375122,1.000000 401.674164,1.389602 
	C430.575409,5.427369 451.686859,20.590620 467.562439,42.978035 
	C471.589020,38.345638 475.272949,34.107468 478.965942,30.244701 
	C476.650879,34.414055 474.326691,38.208008 471.862305,42.319996 
	C469.429230,47.174316 467.136292,51.710606 464.583282,56.761448 
	C463.685944,55.071087 462.956604,53.679108 462.211029,52.295891 
	C459.304413,46.903614 456.737823,41.287937 453.392426,36.182838 
	C449.516205,30.267727 444.626160,28.866758 438.279602,30.786800 
	C397.952942,42.986908 357.632843,55.208794 317.287903,67.348106 
	C309.369934,69.730530 301.352814,71.783325 293.295593,73.558105 
	C293.123932,71.084930 293.038147,69.041801 293.035645,66.536316 
	C293.118958,54.004459 293.118958,41.934959 293.118958,29.909250 
	C291.589539,29.760141 290.929321,29.639511 290.269104,29.639400 
	C224.277908,29.628340 158.285416,29.379988 92.296066,29.728151 
	C59.443233,29.901485 31.810808,56.560135 29.943224,89.492851 
	C28.991764,106.270752 29.379314,123.124596 28.753796,139.966309 
	C24.999517,140.921219 21.669643,141.919449 18.302874,142.771988 
	C12.547421,144.229401 6.768855,145.595520 0.999999,147.000000 
z"/>
<path fill="#0B0B0B" opacity="1.000000" stroke="none" 
	d="
M293.381409,73.988144 
	C301.352814,71.783325 309.369934,69.730530 317.287903,67.348106 
	C357.632843,55.208794 397.952942,42.986908 438.279602,30.786800 
	C444.626160,28.866758 449.516205,30.267727 453.392426,36.182838 
	C456.737823,41.287937 459.304413,46.903614 462.211029,52.295891 
	C462.956604,53.679108 463.685944,55.071087 464.583282,56.761448 
	C467.136292,51.710606 469.429230,47.174316 472.236084,42.314445 
	C476.371490,40.416065 479.879761,38.469349 483.632935,37.327427 
	C506.312836,30.426928 528.994751,23.521854 551.784912,16.998663 
	C567.041443,12.631816 582.499573,8.972237 597.802979,4.761897 
	C599.424255,4.315853 600.611389,2.291904 602.000000,0.999991 
	C602.444458,1.000000 602.888916,1.000000 603.755859,1.397245 
	C606.010193,2.196328 607.841370,2.944788 609.674133,2.948616 
	C643.449280,3.019163 677.224670,3.000704 710.958130,3.363707 
	C709.374146,4.809782 707.978516,6.349271 706.265137,6.899598 
	C697.746399,9.635707 689.135498,12.083647 680.572632,14.684023 
	C657.410278,21.717964 634.270203,28.825336 611.094849,35.815968 
	C577.132080,46.060539 543.137573,56.200378 509.173187,66.439758 
	C486.791901,73.187119 464.452576,80.073624 442.071533,86.821686 
	C408.107361,97.062157 374.136871,107.282204 340.141541,117.418503 
	C324.588043,122.056061 308.968903,126.473473 293.292053,130.548615 
	C293.119171,127.404549 293.033813,124.702583 293.029480,121.537788 
	C293.200836,105.379356 293.291107,89.683746 293.381409,73.988144 
z"/>
<path fill="#FFFFFF" opacity="1.000000" stroke="none" 
	d="
M478.956848,29.869297 
	C475.272949,34.107468 471.589020,38.345638 467.562439,42.978035 
	C451.686859,20.590620 430.575409,5.427369 402.142822,1.389602 
	C445.354218,1.000000 488.708466,1.000000 532.390625,1.385326 
	C521.305542,3.220818 510.620667,6.743365 500.651611,12.980738 
	C500.421844,13.004338 499.987396,13.161355 499.718140,13.114677 
	C499.256378,13.364981 499.063904,13.661963 498.643982,13.979334 
	C498.416565,13.999724 497.987793,14.156829 497.717957,14.111672 
	C497.254517,14.363468 497.060852,14.660420 496.545074,15.086929 
	C493.143860,17.530214 490.064789,19.843943 486.716492,22.113729 
	C486.253876,22.365999 486.060455,22.662210 485.558594,23.073578 
	C483.152344,25.415588 481.054596,27.642443 478.956848,29.869297 
z"/>
<path fill="#FFFFFF" opacity="1.000000" stroke="none" 
	d="
M404.468658,604.000000 
	C410.482544,602.000549 417.156433,600.468140 423.408722,597.906616 
	C437.499390,592.133972 450.282806,584.353943 459.658661,571.884216 
	C462.092468,568.647278 464.829895,565.638611 467.338379,562.632263 
	C473.353638,569.041443 479.130676,576.159119 485.882172,582.184875 
	C498.913330,593.815369 514.244446,600.989807 531.858398,603.610474 
	C489.645782,604.000000 447.291534,604.000000 404.468658,604.000000 
z"/>
<path fill="#FFFFFF" opacity="1.000000" stroke="none" 
	d="
M80.531342,1.000000 
	C75.079674,2.654103 69.036980,3.964192 63.259323,6.019381 
	C31.110600,17.455118 11.343136,40.144215 3.027969,73.039024 
	C2.395086,75.542709 2.185535,78.153404 1.389604,80.857178 
	C1.000000,54.406445 1.000000,27.812887 1.000000,1.000000 
	C27.353823,1.000000 53.708252,1.000000 80.531342,1.000000 
z"/>
<path fill="#171717" opacity="1.000000" stroke="none" 
	d="
M0.999998,305.000000 
	C1.000000,284.312439 1.000000,263.624878 1.406482,242.467819 
	C3.584656,241.611374 5.371964,241.284317 7.125318,240.827042 
	C14.473948,238.910583 21.812403,236.955093 29.238823,235.465698 
	C29.500753,241.944580 29.678448,247.971634 29.778088,254.462265 
	C29.519201,268.939728 29.338369,282.953583 28.755684,296.982239 
	C19.235884,299.664642 10.117939,302.332306 0.999998,305.000000 
z"/>
<path fill="#FFFFFF" opacity="1.000000" stroke="none" 
	d="
M1.000004,524.468628 
	C2.991941,530.993103 4.556547,538.143372 7.060382,544.948120 
	C13.208437,561.656921 23.604851,575.292969 37.882523,586.019165 
	C48.845772,594.255432 61.053490,599.635498 74.340294,602.710083 
	C75.766365,603.040039 77.263359,603.063660 78.863724,603.614685 
	C53.072189,604.000000 27.144379,604.000000 1.000000,604.000000 
	C1.000000,577.646179 1.000000,551.291748 1.000004,524.468628 
z"/>
<path fill="#FFFFFF" opacity="1.000000" stroke="none" 
	d="
M934.000000,77.531342 
	C933.602783,76.432259 933.205566,74.864510 932.444092,72.737747 
	C932.014038,71.444832 931.948303,70.710930 931.904602,69.706932 
	C931.630859,69.245338 931.335144,69.053841 931.020935,68.476349 
	C930.003357,65.589073 928.812805,63.145500 928.038208,60.576492 
	C924.729065,49.600811 918.542297,40.387192 910.768799,31.730129 
	C898.327148,18.136780 883.699158,8.632851 865.638977,4.014979 
	C863.559509,3.557868 861.832703,3.262796 860.029663,2.707440 
	C859.644165,2.344217 859.334778,2.241278 858.634888,2.059673 
	C857.183777,1.945911 856.123230,1.910815 855.036011,1.657578 
	C855.009338,1.439438 855.000000,1.000000 855.000000,1.000000 
	C881.259277,1.000000 907.518555,1.000000 934.000000,1.000000 
	C934.000000,26.353796 934.000000,51.708241 934.000000,77.531342 
z"/>
<path fill="#FFFFFF" opacity="1.000000" stroke="none" 
	d="
M856.468628,604.000000 
	C863.527893,601.665344 871.468384,600.180359 878.477600,596.777466 
	C886.919800,592.678955 895.184448,587.700073 902.430969,581.765259 
	C915.713257,570.887390 925.034119,556.903748 930.149414,540.374146 
	C931.472473,536.098633 932.218384,531.644592 933.614746,527.136230 
	C934.000000,552.593994 934.000000,578.188049 934.000000,604.000000 
	C908.312866,604.000000 882.625061,604.000000 856.468628,604.000000 
z"/>
<path fill="#070707" opacity="1.000000" stroke="none" 
	d="
M499.987396,13.161355 
	C499.987396,13.161355 500.421844,13.004338 501.054138,12.992266 
	C503.562897,12.431387 505.499237,12.032188 507.306152,11.309542 
	C519.209656,6.548963 531.229736,2.667420 544.341919,2.927583 
	C559.939636,3.237062 575.548706,3.058600 591.151245,2.912196 
	C592.773315,2.896976 594.384033,1.666577 596.000000,1.000001 
	C597.714355,1.000000 599.428711,1.000000 601.571533,0.999991 
	C600.611389,2.291904 599.424255,4.315853 597.802979,4.761897 
	C582.499573,8.972237 567.041443,12.631816 551.784912,16.998663 
	C528.994751,23.521854 506.312836,30.426928 483.632935,37.327427 
	C479.879761,38.469349 476.371490,40.416065 472.376251,41.996414 
	C474.326691,38.208008 476.650879,34.414055 478.965942,30.244701 
	C481.054596,27.642443 483.152344,25.415588 485.785217,23.001509 
	C486.622406,22.676802 486.844208,22.457932 486.985718,22.157673 
	C490.064789,19.843943 493.143860,17.530214 496.772827,15.016991 
	C497.623260,14.676630 497.844940,14.456408 497.987793,14.156829 
	C497.987793,14.156829 498.416565,13.999724 498.870544,13.909155 
	C499.623352,13.678063 499.844299,13.458986 499.987396,13.161355 
z"/>
<path fill="#222222" opacity="1.000000" stroke="none" 
	d="
M0.999998,305.468628 
	C10.117939,302.332306 19.235884,299.664642 28.923943,297.197510 
	C29.619558,297.932129 29.745062,298.466187 29.797642,299.418365 
	C29.599627,303.474609 29.389202,307.112213 29.364410,310.751038 
	C29.264008,325.487366 29.220707,340.224060 28.769640,355.006531 
	C19.255297,357.701630 10.127650,360.350830 1.000002,363.000000 
	C1.000000,343.979095 1.000000,324.958221 0.999998,305.468628 
z"/>
<path fill="#0E0E0E" opacity="1.000000" stroke="none" 
	d="
M29.154583,235.013885 
	C21.812403,236.955093 14.473948,238.910583 7.125318,240.827042 
	C5.371964,241.284317 3.584656,241.611374 1.406482,241.999161 
	C1.000000,224.312439 1.000000,206.624878 1.406485,188.467819 
	C3.584948,187.611298 5.372547,187.284180 7.126184,186.826813 
	C14.476079,184.909882 21.815802,182.953918 29.249880,181.401855 
	C29.509094,190.526505 29.677681,199.261566 29.761108,208.459534 
	C29.502161,217.619583 29.328373,226.316727 29.154583,235.013885 
z"/>
<path fill="#2A2A2A" opacity="1.000000" stroke="none" 
	d="
M1.000002,363.468658 
	C10.127650,360.350830 19.255297,357.701630 28.930328,355.147461 
	C29.594828,355.503540 29.725563,355.757538 29.801529,356.469116 
	C29.535938,372.921906 29.338741,388.910126 29.141542,404.898315 
	C20.049644,406.613373 10.957747,408.328430 1.432925,410.021729 
	C1.000000,394.645782 1.000000,379.291534 1.000002,363.468658 
z"/>
<path fill="#060606" opacity="1.000000" stroke="none" 
	d="
M29.159248,181.012253 
	C21.815802,182.953918 14.476079,184.909882 7.126184,186.826813 
	C5.372547,187.284180 3.584948,187.611298 1.406485,187.999161 
	C1.000000,174.645767 1.000000,161.291550 0.999999,147.468658 
	C6.768855,145.595520 12.547421,144.229401 18.302874,142.771988 
	C21.669643,141.919449 24.999517,140.921219 28.925238,139.991028 
	C29.504484,139.993515 29.846001,140.052811 29.761906,140.511597 
	C29.722687,152.657745 29.767563,164.345093 29.655724,176.421265 
	C29.385754,178.210815 29.272501,179.611526 29.159248,181.012253 
z"/>
<path fill="#040404" opacity="1.000000" stroke="none" 
	d="
M854.531372,1.000000 
	C855.000000,1.000000 855.009338,1.439438 854.753052,1.975083 
	C852.531555,2.670110 850.566284,2.967362 848.600952,2.968655 
	C802.733948,2.998842 756.867004,2.996994 711.000000,3.001054 
	C677.224670,3.000704 643.449280,3.019163 609.674133,2.948616 
	C607.841370,2.944788 606.010193,2.196328 604.089111,1.397245 
	C687.354248,1.000000 770.708435,1.000000 854.531372,1.000000 
z"/>
<path fill="#040404" opacity="1.000000" stroke="none" 
	d="
M595.531372,1.000001 
	C594.384033,1.666577 592.773315,2.896976 591.151245,2.912196 
	C575.548706,3.058600 559.939636,3.237062 544.341919,2.927583 
	C531.229736,2.667420 519.209656,6.548963 507.306152,11.309542 
	C505.499237,12.032188 503.562897,12.431387 501.283905,12.968666 
	C510.620667,6.743365 521.305542,3.220818 532.859253,1.385326 
	C553.687561,1.000000 574.375122,1.000000 595.531372,1.000001 
z"/>
<path fill="#2568FF" opacity="1.000000" stroke="none" 
	d="
M906.153931,227.999664 
	C906.102478,229.996292 906.006226,231.992920 906.006042,233.989548 
	C905.998718,325.646759 906.002869,417.303986 905.998047,508.961212 
	C905.996033,547.340515 877.444824,575.838562 839.012390,575.839111 
	C775.352295,575.840088 711.692200,575.839417 648.032104,575.839417 
	C646.074341,575.839417 644.116638,575.839417 641.499939,575.839417 
	C641.499939,477.863098 641.499939,380.425079 641.578125,282.280548 
	C641.737793,281.379883 641.819336,281.185730 642.321289,280.994507 
	C643.239441,280.978424 643.751526,281.028931 644.232971,280.930237 
	C665.410706,276.588684 686.586304,272.236847 707.760803,267.879730 
	C720.512512,265.255798 733.261963,262.621094 746.367188,260.110657 
	C747.775818,259.797028 748.829773,259.364014 750.307617,258.957031 
	C755.445190,258.333832 760.158875,257.684540 764.924927,257.498505 
	C764.977234,263.203094 764.977234,268.444397 764.977234,273.677979 
	C770.312195,273.677979 775.016724,273.677979 780.172668,273.677979 
	C780.172668,266.585999 780.172668,259.816315 780.573608,253.030304 
	C783.373535,252.640503 785.772400,252.266998 788.465515,252.045731 
	C791.487732,255.222702 794.215759,258.247437 797.568298,261.964600 
	C801.182190,257.987213 804.032532,254.986664 806.681335,251.817612 
	C807.199707,251.197403 806.936157,249.923767 807.254822,248.658218 
	C808.373169,247.942551 809.229126,247.316818 810.172607,247.127197 
	C842.035461,240.723862 873.906738,234.361954 905.870728,228.016754 
	C905.964722,228.039459 906.153931,227.999664 906.153931,227.999664 
M719.956848,493.942688 
	C719.956848,493.942688 719.929138,493.894196 720.412964,494.664001 
	C718.997559,502.298340 717.582153,509.932678 716.095276,517.952454 
	C721.005066,518.944153 725.650391,519.882446 730.726440,520.907715 
	C732.827942,510.451752 735.347534,500.439148 736.705688,490.271393 
	C737.611877,483.486816 740.514038,479.173065 746.384827,475.877838 
	C752.655273,472.358307 758.441895,467.976837 764.994263,463.601349 
	C764.994263,475.254883 765.183167,485.914124 764.853455,496.557312 
	C764.776672,499.034729 763.519043,502.013031 761.807068,503.810852 
	C753.671204,512.354736 745.190613,520.570312 737.554443,528.183228 
	C741.024414,532.269104 744.187439,535.993530 748.411804,540.967651 
	C754.036621,534.782166 759.221375,529.080627 765.140198,522.571899 
	C765.140198,533.276306 765.140198,542.849304 765.140198,552.498291 
	C770.296326,552.498291 775.013977,552.498291 780.187256,552.498291 
	C780.187256,542.607117 780.187256,533.064819 780.187256,523.522583 
	C780.550049,523.316589 780.912842,523.110596 781.275574,522.904602 
	C786.564575,528.578552 791.853577,534.252441 797.311646,540.107788 
	C801.137085,536.153259 804.466614,532.711487 808.184204,528.868530 
	C799.775391,520.498901 791.262817,512.092102 782.854309,503.582428 
	C781.649902,502.363556 780.166687,500.663574 780.137390,499.160431 
	C779.911804,487.589264 780.013306,476.011719 780.013306,463.606018 
	C786.105347,467.671265 791.182495,471.785706 796.878418,474.684418 
	C804.782776,478.707062 808.272461,484.693939 809.269104,493.379181 
	C810.318848,502.527466 812.752686,511.516907 814.647766,520.902588 
	C819.864441,519.811584 824.479309,518.846375 829.286804,517.840942 
	C827.717773,509.659668 826.267517,502.097931 824.626770,493.542450 
	C835.071960,500.494232 844.568848,506.814850 854.277893,513.276672 
	C857.147949,508.906830 859.764771,504.922485 862.507202,500.746948 
	C857.444153,497.300568 852.788330,494.108673 848.108459,490.952240 
	C843.471497,487.824799 838.810425,484.733124 833.350098,481.084686 
	C841.906677,479.285736 849.451233,477.699524 857.269531,476.055756 
	C856.202698,470.935822 855.270569,466.462402 854.283264,461.724335 
	C852.181335,461.999237 850.538757,462.121338 848.934814,462.439026 
	C838.816467,464.443298 828.720520,466.565857 818.579773,468.447662 
	C816.963806,468.747528 814.819702,468.555725 813.496460,467.699677 
	C804.419250,461.827301 795.495728,455.717316 786.157837,449.438477 
	C789.880371,446.921570 793.692688,445.018738 796.658691,442.219208 
	C808.209473,431.317047 821.096069,429.256897 835.901550,434.558594 
	C841.689087,436.631012 848.077454,437.025299 854.404846,438.224243 
	C855.402039,432.974945 856.260071,428.458527 857.178528,423.623840 
	C848.950867,421.931030 841.119812,420.319824 832.282227,418.501495 
	C842.907471,411.327515 852.619934,404.769836 862.599304,398.031921 
	C859.667725,393.638824 857.042297,389.704498 854.267212,385.545837 
	C844.373352,392.141907 834.957825,398.419128 824.806274,405.187042 
	C826.406250,396.841461 827.804260,389.549774 829.278076,381.862366 
	C824.151917,380.840546 819.517029,379.916656 814.586487,378.933868 
	C812.326355,390.313141 810.216125,401.222565 807.948914,412.099213 
	C807.526001,414.128387 807.047058,416.823669 805.616577,417.853058 
	C797.449341,423.730194 788.986206,429.196259 780.005737,435.216187 
	C780.005737,425.524353 779.787903,416.724640 780.144409,407.948242 
	C780.245422,405.460968 781.426636,402.472778 783.131714,400.688141 
	C791.271484,392.168762 799.762085,383.984558 807.862244,375.944794 
	C804.242798,372.049347 800.972351,368.529633 796.649475,363.877167 
	C790.995911,369.725922 785.538757,375.371490 779.782715,381.326233 
	C779.782715,369.481232 779.782715,357.891418 779.782715,346.351166 
	C774.656616,346.351166 769.935120,346.351166 764.767090,346.351166 
	C764.767090,358.235138 764.767090,369.765442 764.767090,382.630585 
	C758.564148,376.037781 753.232544,370.371033 747.791748,364.588257 
	C743.925537,368.499084 740.549866,371.913757 736.835449,375.671051 
	C742.896667,381.657349 748.488892,388.143188 755.053406,393.419342 
	C763.205200,399.971222 766.451843,407.706055 765.118347,418.009705 
	C764.416626,423.432037 764.994324,429.019989 764.994324,435.237427 
	C756.304749,429.410217 748.494446,424.315582 740.882385,418.940308 
	C739.462036,417.937347 738.307495,415.923126 737.930176,414.180725 
	C735.406555,402.528046 733.126770,390.822540 730.708801,378.841309 
	C725.569702,379.906525 720.927307,380.868774 716.066406,381.876312 
	C717.524597,389.542480 718.895874,396.751587 720.541138,405.401245 
	C709.819824,398.263336 700.368347,391.970856 690.717346,385.545532 
	C687.749084,390.062653 685.151489,394.015686 682.474609,398.089325 
	C692.706177,405.001099 702.393738,411.545410 712.776733,418.559479 
	C703.888367,420.386383 696.142700,421.978455 688.081970,423.635254 
	C689.166016,428.807037 690.133850,433.424316 691.157837,438.309570 
	C699.721252,436.595856 707.884888,435.609161 715.631958,433.253052 
	C726.024414,430.092438 734.833191,431.200684 743.117920,438.677368 
	C747.662292,442.778473 753.295776,445.672760 758.917480,449.431732 
	C750.919189,454.776367 743.445068,459.214172 736.635254,464.506897 
	C731.668823,468.366943 727.039307,469.022491 721.044434,467.505402 
	C711.288696,465.036713 701.289978,463.528076 691.068848,461.551392 
	C690.032288,466.676636 689.121887,471.178131 688.118896,476.137421 
	C695.862183,477.746307 703.275757,479.286652 711.640686,481.024689 
	C701.513977,487.865540 692.189941,494.164154 682.409546,500.771027 
	C685.263977,505.041656 687.968445,509.087891 690.718872,513.203003 
	C700.826599,506.567627 710.404907,500.279785 719.956848,493.942688 
z"/>
<path fill="#E04A07" opacity="1.000000" stroke="none" 
	d="
M292.944397,432.998108 
	C293.011230,447.319366 293.122437,461.640594 293.135834,475.961884 
	C293.165192,507.279388 293.144928,538.596924 293.144928,569.914490 
	C293.144928,571.703186 293.144928,573.491882 293.144928,575.851562 
	C290.849518,575.851562 289.066986,575.851562 287.284485,575.851562 
	C222.983582,575.851562 158.682663,575.874817 94.381783,575.842407 
	C58.817841,575.824463 29.737761,546.955566 29.640141,511.468323 
	C29.543451,476.319763 29.635786,441.170746 30.122580,405.487488 
	C51.304325,400.633972 71.994652,396.246124 92.716644,392.013245 
	C118.612511,386.723450 144.522125,381.498932 170.452148,376.379608 
	C178.866592,374.718384 187.363861,373.476624 196.028778,372.321411 
	C197.222794,374.130493 198.173737,375.686981 199.205261,377.188049 
	C221.880447,410.184113 253.019745,428.970886 292.944397,432.998108 
M150.842316,510.337006 
	C150.003708,516.195251 149.165100,522.053528 148.250809,528.440491 
	C160.655899,528.440491 172.040955,528.440491 183.596680,528.440491 
	C183.831299,525.956787 183.861023,523.625916 184.295883,521.373230 
	C186.711716,508.858307 188.279129,505.876129 201.471100,507.670868 
	C211.387131,509.019928 221.015060,507.436798 229.591385,501.553436 
	C242.422333,492.751495 249.869812,480.046448 256.273041,465.907898 
	C245.150696,461.468903 234.472275,457.207092 224.055908,453.049835 
	C221.264832,457.717316 218.891068,461.896301 216.313507,465.945526 
	C212.918182,471.279449 208.516571,473.694611 201.679214,472.808929 
	C195.701981,472.034698 189.257217,472.244507 183.402405,473.634491 
	C164.603943,478.097443 155.002914,491.409729 150.842316,510.337006 
M172.123856,387.334564 
	C170.635773,385.769043 169.147690,384.203522 167.351791,382.314209 
	C157.861847,391.197540 148.559494,399.905243 138.936401,408.913208 
	C147.752686,418.331573 156.331314,427.496063 165.102676,436.866425 
	C174.872543,427.676331 184.151306,418.948181 193.582291,410.076813 
	C186.299042,402.369843 179.446884,395.119049 172.123856,387.334564 
z"/>
<path fill="#FDFDFD" opacity="1.000000" stroke="none" 
	d="
M595.443604,290.098755 
	C595.276428,293.889709 595.109314,297.680664 594.934265,301.650604 
	C589.591980,300.615265 584.554749,299.639069 579.002930,298.563141 
	C579.002930,300.686310 579.002930,302.464966 579.002930,304.243591 
	C579.002930,325.573425 579.004883,346.903290 579.002563,368.233124 
	C578.995728,429.566193 535.790344,476.946075 474.809143,482.495819 
	C419.847687,487.497772 365.915314,446.447845 357.296570,391.756714 
	C354.674194,375.116241 355.657104,357.907623 355.006592,340.029419 
	C354.960358,327.064301 354.896362,315.029022 354.902527,302.530090 
	C354.925476,288.375885 354.878204,274.685333 354.902649,260.548340 
	C354.974335,257.823822 354.974335,255.545776 354.974335,253.224075 
	C351.729187,252.769592 348.848663,252.525253 346.038635,251.941498 
	C338.833374,250.444717 338.856689,250.384369 338.820404,242.439148 
	C338.813629,240.955414 338.681427,239.472244 338.702972,237.529984 
	C338.798859,228.466171 338.798859,219.861191 338.798859,210.842651 
	C367.549469,216.575409 395.770874,222.202637 424.368286,227.962128 
	C441.013763,231.410568 457.275391,234.765778 473.554962,238.031677 
	C489.005768,241.131287 504.475281,244.137375 520.238464,247.420486 
	C522.003967,247.947128 523.467407,248.239182 524.931335,248.528427 
	C544.595093,252.413742 564.258850,256.298645 584.226318,260.418121 
	C586.472107,261.051575 588.410645,261.763885 590.356934,261.785370 
	C594.603210,261.832184 595.366760,264.000854 595.258728,267.794525 
	C595.047241,275.221466 595.352295,282.663177 595.443604,290.098755 
M388.524292,309.714966 
	C388.638123,317.149475 388.751984,324.583984 388.585968,332.917725 
	C388.832458,349.225220 387.362061,365.778381 389.653320,381.793335 
	C396.054260,426.533203 435.965485,454.919952 480.607544,447.984131 
	C514.267090,442.754547 543.530823,411.601959 544.809998,377.936890 
	C545.783020,352.329468 544.984009,326.654724 545.172485,300.117889 
	C545.177246,298.126434 545.388550,296.104919 545.104675,294.155518 
	C544.949097,293.087463 544.111633,291.418030 543.319214,291.248840 
	C531.876831,288.805206 520.389832,286.570465 508.802704,284.263580 
	C508.802704,292.512604 508.802704,300.268219 508.551636,308.929291 
	C508.551636,325.660461 508.551636,342.391632 508.551636,359.122772 
	C507.964417,359.491852 507.377197,359.860931 506.789978,360.230011 
	C505.672852,358.581879 504.785614,356.703766 503.402771,355.321442 
	C490.472626,342.396240 477.457489,329.556061 464.157379,316.079926 
	C462.873962,314.669861 461.590515,313.259796 459.593292,311.065491 
	C473.626953,311.065491 486.639465,311.065491 499.465302,311.065491 
	C499.465302,301.155334 499.465302,291.757538 499.465302,282.323822 
	C479.527710,278.291138 459.941742,274.329529 440.156372,270.327637 
	C440.156372,288.089478 440.156372,305.065369 440.024323,322.735352 
	C441.008728,324.015259 441.867310,325.420410 442.997040,326.555725 
	C454.156952,337.771088 465.367920,348.935669 476.543121,360.135864 
	C477.484131,361.078979 478.270660,362.176270 479.468719,363.607971 
	C462.893921,363.607971 447.155334,363.607971 430.847321,363.607971 
	C430.847321,350.268951 430.847321,337.156128 430.991669,323.110229 
	C430.939545,314.737183 430.887451,306.364166 430.973785,297.064087 
	C430.973785,287.485321 430.973785,277.906586 430.973785,268.429413 
	C416.626953,265.526306 402.879944,262.744568 388.830688,259.901703 
	C388.830688,276.551544 388.830688,292.754547 388.524292,309.714966 
z"/>
<path fill="#FFFFFF" opacity="1.000000" stroke="none" 
	d="
M293.044495,432.538330 
	C253.019745,428.970886 221.880447,410.184113 199.205261,377.188049 
	C198.173737,375.686981 197.222794,374.130493 195.960052,371.987671 
	C184.772095,353.081268 179.660416,333.118713 178.697174,311.527893 
	C178.313446,299.057526 179.526306,287.203125 183.089218,275.736389 
	C185.687912,267.372803 189.022995,259.238098 192.216217,250.702698 
	C195.307297,245.917389 198.016663,241.289291 201.147781,236.966690 
	C223.838226,205.641953 254.287033,187.688202 293.043732,184.462006 
	C293.221161,191.277954 293.300568,197.633743 293.276611,204.448364 
	C293.244171,219.934372 293.315125,234.961533 293.286285,250.448547 
	C293.252747,260.270203 293.319031,269.631989 293.283813,279.452637 
	C293.249664,293.604492 293.317047,307.297516 293.282166,321.449432 
	C293.262665,331.636353 293.345490,341.364349 293.428284,351.092346 
	C293.340302,370.964081 293.245941,390.835754 293.167847,410.707520 
	C293.139862,417.831146 293.151184,424.954865 293.044495,432.538330 
z"/>
<path fill="#E56931" opacity="1.000000" stroke="none" 
	d="
M178.609970,311.988403 
	C179.660416,333.118713 184.772095,353.081268 195.754532,371.709259 
	C187.363861,373.476624 178.866592,374.718384 170.452148,376.379608 
	C144.522125,381.498932 118.612511,386.723450 92.716644,392.013245 
	C71.994652,396.246124 51.304325,400.633972 30.193684,405.029724 
	C29.787424,405.106384 29.456055,405.028625 29.298800,404.963501 
	C29.338741,388.910126 29.535938,372.921906 30.197453,356.429077 
	C38.721119,353.580902 46.819614,351.359100 54.806984,348.791626 
	C56.415749,348.274445 57.602917,346.445770 59.331497,345.275574 
	C80.498291,355.169403 100.066765,351.514282 115.491058,334.868286 
	C117.751511,332.428772 119.571144,329.449219 122.178535,327.500732 
	C124.645782,325.656921 127.953873,323.636871 130.764450,323.806763 
	C138.123444,324.251678 145.412689,325.850250 153.112839,327.048553 
	C154.827866,323.370972 156.844406,319.046875 159.106384,315.043945 
	C161.539856,315.294983 163.785660,315.515137 165.903748,315.093536 
	C170.175919,314.243164 174.378616,313.043823 178.609970,311.988403 
z"/>
<path fill="#343130" opacity="1.000000" stroke="none" 
	d="
M293.834351,351.109680 
	C293.345490,341.364349 293.262665,331.636353 293.655548,321.433594 
	C314.364929,314.970459 334.598633,308.982086 354.832336,302.993713 
	C354.896362,315.029022 354.960358,327.064301 354.952881,339.565460 
	C344.528839,341.863586 334.167999,343.650146 323.826263,345.541229 
	C313.953949,347.346497 304.101562,349.260681 293.834351,351.109680 
z"/>
<path fill="#333333" opacity="1.000000" stroke="none" 
	d="
M931.065918,150.007462 
	C931.346924,152.633224 931.861511,155.258118 931.871338,157.884903 
	C931.942444,176.830933 931.917847,195.777359 931.909546,214.723648 
	C931.906067,222.627502 931.882019,222.585678 924.357117,224.114120 
	C918.529907,225.297699 912.727417,226.602798 906.533936,227.926788 
	C906.153931,227.999664 905.964722,228.039459 905.954712,227.557831 
	C906.018066,203.382553 906.091370,179.688904 906.570862,155.996674 
	C909.350708,155.485229 911.742432,155.043213 914.094482,154.445343 
	C919.761475,153.004883 925.409973,151.491470 931.065918,150.007462 
z"/>
<path fill="#333333" opacity="1.000000" stroke="none" 
	d="
M595.848633,290.114502 
	C595.352295,282.663177 595.047241,275.221466 595.258728,267.794525 
	C595.366760,264.000854 594.603210,261.832184 590.356934,261.785370 
	C588.410645,261.763885 586.472107,261.051575 584.384277,260.086823 
	C585.950562,258.602966 587.569336,257.389496 589.389771,256.814941 
	C600.720764,253.238770 612.064575,249.695160 623.471375,246.371201 
	C629.302795,244.671921 635.273621,243.451111 641.344971,242.443863 
	C641.497620,246.677429 641.437988,250.481796 641.485535,254.284821 
	C641.596741,263.187378 641.759216,272.089355 641.900940,280.991547 
	C641.819336,281.185730 641.737793,281.379883 641.473816,281.831360 
	C631.127991,283.906342 620.964905,285.725281 610.801147,287.541077 
	C605.952576,288.407318 601.102966,289.267426 595.848633,290.114502 
z"/>
<path fill="#262626" opacity="1.000000" stroke="none" 
	d="
M931.882568,69.977028 
	C931.948303,70.710930 932.014038,71.444832 932.116821,72.547348 
	C931.797974,74.422073 931.125549,75.930489 931.136475,77.433929 
	C931.218933,88.753365 931.435852,100.071831 930.923462,111.698219 
	C928.494751,112.379143 926.739563,112.697525 925.014648,113.135544 
	C918.726990,114.732246 912.449524,116.368927 906.104553,117.526314 
	C906.030334,115.238060 906.115173,113.407646 905.993896,111.590988 
	C905.246216,100.392868 904.452026,89.197853 903.708923,77.776566 
	C903.744446,77.551331 903.697266,77.097725 904.067627,76.953522 
	C906.937744,76.049561 909.410400,75.180847 911.942505,74.551476 
	C918.262024,72.980743 924.608643,71.518753 931.179443,70.018204 
	C931.414551,70.023293 931.882568,69.977028 931.882568,69.977028 
z"/>
<path fill="#2E2E2E" opacity="1.000000" stroke="none" 
	d="
M906.168213,117.990509 
	C912.449524,116.368927 918.726990,114.732246 925.014648,113.135544 
	C926.739563,112.697525 928.494751,112.379143 930.649292,112.010704 
	C931.241150,124.469879 931.419800,136.924194 931.332153,149.692993 
	C925.409973,151.491470 919.761475,153.004883 914.094482,154.445343 
	C911.742432,155.043213 909.350708,155.485229 906.505737,155.534012 
	C905.967407,150.047791 905.900452,145.025681 905.902039,139.539093 
	C906.036499,132.046585 906.102356,125.018547 906.168213,117.990509 
z"/>
<path fill="#E04B08" opacity="1.000000" stroke="none" 
	d="
M29.846001,140.052811 
	C29.846001,140.052811 29.504484,139.993515 29.333042,139.968811 
	C29.379314,123.124596 28.991764,106.270752 29.943224,89.492851 
	C31.810808,56.560135 59.443233,29.901485 92.296066,29.728151 
	C158.285416,29.379988 224.277908,29.628340 290.269104,29.639400 
	C290.929321,29.639511 291.589539,29.760141 293.118958,29.909250 
	C293.118958,41.934959 293.118958,54.004459 292.621582,66.536926 
	C290.659790,67.205162 289.138794,67.222443 287.739258,67.643394 
	C258.427948,76.459541 229.143021,85.363609 199.818283,94.134659 
	C194.624420,95.688141 189.276001,96.724770 183.692596,97.713623 
	C171.983170,97.427170 160.580093,97.427170 148.850754,97.427170 
	C148.850754,100.388130 148.850754,102.692070 148.467957,105.005478 
	C115.370628,114.851349 82.663757,124.713409 49.935165,134.502808 
	C43.280773,136.493225 36.544521,138.209930 29.846001,140.052811 
z"/>
<path fill="#E15010" opacity="1.000000" stroke="none" 
	d="
M183.998947,98.000069 
	C189.276001,96.724770 194.624420,95.688141 199.818283,94.134659 
	C229.143021,85.363609 258.427948,76.459541 287.739258,67.643394 
	C289.138794,67.222443 290.659790,67.205162 292.538269,66.999283 
	C293.038147,69.041801 293.123932,71.084930 293.295593,73.558098 
	C293.291107,89.683746 293.200836,105.379356 292.648987,121.584457 
	C275.764709,127.071831 259.341980,132.049713 242.603928,136.906815 
	C234.296494,126.411324 224.407471,119.117447 210.870590,118.381599 
	C205.776932,118.104721 200.630325,118.690414 195.513550,118.982422 
	C190.735199,119.255096 187.278275,117.422142 186.250687,112.627083 
	C185.218765,107.811707 184.727280,102.880508 183.998947,98.000069 
z"/>
<path fill="#131313" opacity="1.000000" stroke="none" 
	d="
M710.958130,3.363707 
	C756.867004,2.996994 802.733948,2.998842 848.600952,2.968655 
	C850.566284,2.967362 852.531555,2.670110 854.779785,2.193223 
	C856.123230,1.910815 857.183777,1.945911 858.758545,2.260422 
	C859.515137,2.751442 859.792847,2.894070 860.105896,2.967723 
	C861.832703,3.262796 863.559509,3.557868 865.591858,4.366711 
	C864.711853,5.910233 863.688354,7.470229 862.316223,7.889587 
	C843.976990,13.494358 825.559082,18.842939 807.238770,24.507576 
	C803.649719,25.617308 800.391479,27.797052 796.515137,29.511314 
	C744.737305,29.539345 693.424988,29.539345 641.606323,29.539345 
	C641.606323,32.334335 641.622925,34.463943 641.603699,36.593231 
	C641.464417,52.041775 641.317871,67.490257 640.825806,82.962143 
	C636.646423,84.033913 632.790283,85.000710 628.987122,86.143715 
	C601.195618,94.496048 573.404053,102.849045 545.649475,111.322586 
	C543.292603,112.042137 541.204224,113.640938 538.527832,114.902283 
	C529.683228,114.972755 521.301880,114.972214 512.509155,114.967117 
	C510.789246,115.121376 509.423889,115.091911 508.180969,115.467575 
	C492.671082,120.155273 477.203735,124.985077 461.674591,129.607559 
	C448.539154,133.517563 435.337402,137.204926 422.094269,140.527466 
	C422.023529,131.810928 422.023529,123.557724 422.023529,115.327576 
	C410.476105,115.327576 399.449890,115.327576 387.942169,115.327576 
	C387.942169,123.435226 387.942169,131.216934 387.541168,139.000061 
	C374.908112,142.601685 362.666107,146.168945 350.463043,149.864853 
	C349.492126,150.158936 348.790894,151.343475 347.544189,152.137115 
	C344.493958,151.720306 341.863922,151.280548 339.038971,150.808212 
	C338.872437,153.187012 338.739136,155.091019 338.203003,156.993469 
	C335.692810,157.329834 333.527496,157.462784 331.487427,158.039108 
	C318.770081,161.631729 306.080780,165.323563 293.292572,168.523590 
	C293.261841,155.706696 293.320679,143.348709 293.379517,130.990723 
	C308.968903,126.473473 324.588043,122.056061 340.141541,117.418503 
	C374.136871,107.282204 408.107361,97.062157 442.071533,86.821686 
	C464.452576,80.073624 486.791901,73.187119 509.173187,66.439758 
	C543.137573,56.200378 577.132080,46.060539 611.094849,35.815968 
	C634.270203,28.825336 657.410278,21.717964 680.572632,14.684023 
	C689.135498,12.083647 697.746399,9.635707 706.265137,6.899598 
	C707.978516,6.349271 709.374146,4.809782 710.958130,3.363707 
z"/>
<path fill="#E25719" opacity="1.000000" stroke="none" 
	d="
M293.292053,130.548630 
	C293.320679,143.348709 293.261841,155.706696 293.198151,168.954269 
	C293.108856,171.896439 293.024384,173.949005 292.559906,176.048370 
	C289.475800,176.887360 286.767822,177.666489 284.068237,178.473785 
	C264.360382,184.367447 244.630676,190.189667 224.954529,196.187515 
	C207.815414,201.411987 190.737350,206.836685 173.316376,212.078186 
	C163.035767,204.573013 153.071091,197.162552 142.867294,189.574280 
	C135.148682,199.907135 127.722717,209.848221 120.142365,219.995987 
	C122.590889,222.003601 124.747490,223.771866 126.481949,225.657211 
	C124.368454,226.461929 122.719810,227.291183 120.979347,227.815857 
	C97.179359,234.990372 73.388824,242.198029 49.542568,249.216080 
	C43.071716,251.120468 36.423145,252.420990 29.856140,253.998688 
	C29.678448,247.971634 29.500753,241.944580 29.238821,235.465698 
	C29.328373,226.316727 29.502161,217.619583 30.190411,208.460571 
	C32.021797,207.874176 33.403465,207.965027 34.645618,207.591705 
	C46.718800,203.962997 58.759228,200.225479 70.827255,196.579391 
	C90.352379,190.680283 109.901634,184.860886 129.421692,178.945099 
	C153.390854,171.680954 177.351440,164.387634 201.271454,156.964264 
	C202.715225,156.516190 203.768585,154.810196 205.297150,153.501450 
	C207.933167,154.217575 211.070145,154.462341 212.469955,156.148895 
	C216.760132,161.317978 220.383667,167.040375 224.568863,172.976562 
	C234.695496,168.916061 245.347900,164.644760 257.022858,159.963425 
	C252.059296,151.891479 247.489273,144.459549 242.919250,137.027603 
	C259.341980,132.049713 275.764709,127.071831 292.567932,122.047272 
	C293.033813,124.702583 293.119171,127.404549 293.292053,130.548630 
z"/>
<path fill="#040404" opacity="1.000000" stroke="none" 
	d="
M499.718140,13.114677 
	C499.844299,13.458986 499.623352,13.678063 499.097961,13.888765 
	C499.063904,13.661963 499.256378,13.364981 499.718140,13.114677 
z"/>
<path fill="#040404" opacity="1.000000" stroke="none" 
	d="
M497.717957,14.111672 
	C497.844940,14.456408 497.623260,14.676630 497.094971,14.887434 
	C497.060852,14.660420 497.254517,14.363468 497.717957,14.111672 
z"/>
<path fill="#010101" opacity="1.000000" stroke="none" 
	d="
M486.716492,22.113731 
	C486.844208,22.457932 486.622406,22.676802 486.093689,22.886353 
	C486.060455,22.662210 486.253876,22.365999 486.716492,22.113731 
z"/>
<path fill="#E35C20" opacity="1.000000" stroke="none" 
	d="
M29.778088,254.462265 
	C36.423145,252.420990 43.071716,251.120468 49.542568,249.216080 
	C73.388824,242.198029 97.179359,234.990372 120.979347,227.815857 
	C122.719810,227.291183 124.368454,226.461929 126.759224,225.799149 
	C135.315796,231.616547 143.172943,237.409088 151.318069,243.413940 
	C158.912903,233.273026 166.272827,223.459244 173.590530,213.614090 
	C173.825485,213.297989 173.628113,212.660538 173.632294,212.172897 
	C190.737350,206.836685 207.815414,201.411987 224.954529,196.187515 
	C244.630676,190.189667 264.360382,184.367447 284.068237,178.473785 
	C286.767822,177.666489 289.475800,176.887360 292.634705,176.488113 
	C293.041595,179.254639 292.993652,181.628250 292.945679,184.001846 
	C254.287033,187.688202 223.838226,205.641953 201.147781,236.966690 
	C198.016663,241.289291 195.307297,245.917389 191.816132,250.709488 
	C186.940323,252.257996 182.640945,253.467255 178.363403,254.749435 
	C138.076294,266.825256 97.797691,278.929474 57.504868,290.986145 
	C48.316753,293.735474 39.083199,296.332916 29.870564,299.000275 
	C29.745062,298.466187 29.619558,297.932129 29.325798,297.182739 
	C29.338369,282.953583 29.519201,268.939728 29.778088,254.462265 
z"/>
<path fill="#1A1D23" opacity="1.000000" stroke="none" 
	d="
M796.980652,29.483280 
	C800.391479,27.797052 803.649719,25.617308 807.238770,24.507576 
	C825.559082,18.842939 843.976990,13.494358 862.316223,7.889587 
	C863.688354,7.470229 864.711853,5.910233 865.944519,4.528751 
	C883.699158,8.632851 898.327148,18.136780 910.538513,31.941450 
	C910.875183,34.931675 910.632324,36.635647 907.524353,37.367054 
	C902.112671,38.640606 896.768555,40.289303 891.520569,42.134483 
	C888.858887,43.070343 886.468506,44.778053 883.645630,45.976273 
	C880.588623,43.861641 877.841553,41.907551 874.929199,39.636772 
	C863.700867,32.160744 851.521851,29.401852 838.430725,29.585110 
	C824.617249,29.778479 810.797607,29.535583 796.980652,29.483280 
z"/>
<path fill="#212121" opacity="1.000000" stroke="none" 
	d="
M883.955505,46.136803 
	C886.468506,44.778053 888.858887,43.070343 891.520569,42.134483 
	C896.768555,40.289303 902.112671,38.640606 907.524353,37.367054 
	C910.632324,36.635647 910.875183,34.931675 910.657715,32.251526 
	C918.542297,40.387192 924.729065,49.600811 928.038208,60.576492 
	C928.812805,63.145500 930.003357,65.589073 931.001343,68.764412 
	C930.981628,69.630020 930.962952,69.821579 930.944336,70.013130 
	C924.608643,71.518753 918.262024,72.980743 911.942505,74.551476 
	C909.410400,75.180847 906.937744,76.049561 903.806152,76.705734 
	C900.355286,64.184006 892.984680,54.637245 883.955505,46.136803 
z"/>
<path fill="#040404" opacity="1.000000" stroke="none" 
	d="
M860.029663,2.707439 
	C859.792847,2.894070 859.515137,2.751442 859.149170,2.339089 
	C859.334778,2.241278 859.644165,2.344217 860.029663,2.707439 
z"/>
<path fill="#000000" opacity="1.000000" stroke="none" 
	d="
M931.179443,70.018219 
	C930.962952,69.821579 930.981628,69.630020 931.019775,69.150406 
	C931.335144,69.053841 931.630859,69.245338 931.904602,69.706932 
	C931.882568,69.977028 931.414551,70.023293 931.179443,70.018219 
z"/>
<path fill="#E46127" opacity="1.000000" stroke="none" 
	d="
M29.797640,299.418365 
	C39.083199,296.332916 48.316753,293.735474 57.504868,290.986145 
	C97.797691,278.929474 138.076294,266.825256 178.363403,254.749435 
	C182.640945,253.467255 186.940323,252.257996 191.629684,251.008133 
	C189.022995,259.238098 185.687912,267.372803 183.089218,275.736389 
	C179.526306,287.203125 178.313446,299.057526 178.697174,311.527893 
	C174.378616,313.043823 170.175919,314.243164 165.903748,315.093536 
	C163.785660,315.515137 161.539856,315.294983 159.139175,314.684845 
	C161.307816,308.056793 163.689102,302.109039 166.207367,295.819153 
	C154.918671,291.086548 143.502823,288.708740 131.601166,288.406036 
	C116.820648,288.030060 104.684822,293.416565 95.174149,304.761780 
	C93.144424,307.183014 91.015083,309.534668 88.781357,311.768036 
	C84.046227,316.502441 81.370125,317.101013 75.436409,313.851624 
	C70.681648,311.247925 66.294930,307.972137 63.039661,305.841888 
	C54.531044,313.934448 46.282219,321.779907 37.134445,330.480347 
	C44.583790,335.506165 51.784122,340.363953 58.984459,345.221741 
	C57.602917,346.445770 56.415749,348.274445 54.806984,348.791626 
	C46.819614,351.359100 38.721119,353.580902 30.265846,355.964478 
	C29.725563,355.757538 29.594828,355.503540 29.317028,355.101562 
	C29.220707,340.224060 29.264008,325.487366 29.364410,310.751038 
	C29.389202,307.112213 29.599627,303.474609 29.797640,299.418365 
z"/>
<path fill="#E15213" opacity="1.000000" stroke="none" 
	d="
M205.003601,153.689514 
	C203.768585,154.810196 202.715225,156.516190 201.271454,156.964264 
	C177.351440,164.387634 153.390854,171.680954 129.421692,178.945099 
	C109.901634,184.860886 90.352379,190.680283 70.827255,196.579391 
	C58.759228,200.225479 46.718800,203.962997 34.645618,207.591705 
	C33.403465,207.965027 32.021797,207.874176 30.275568,207.997665 
	C29.677681,199.261566 29.509094,190.526505 29.249878,181.401855 
	C29.272501,179.611526 29.385754,178.210815 30.022135,176.409119 
	C32.020084,175.841644 33.560101,175.893295 34.959663,175.474991 
	C49.409859,171.156174 63.828644,166.732407 78.273209,162.394577 
	C101.127701,155.531174 124.015373,148.777176 146.839081,141.813263 
	C151.042038,140.530869 155.008255,138.472580 159.382385,136.939636 
	C165.758835,146.056793 174.072479,151.847656 184.796890,153.210770 
	C191.445343,154.055817 198.262283,153.575134 205.003601,153.689514 
z"/>
<path fill="#E14F0E" opacity="1.000000" stroke="none" 
	d="
M159.083755,136.772430 
	C155.008255,138.472580 151.042038,140.530869 146.839081,141.813263 
	C124.015373,148.777176 101.127701,155.531174 78.273209,162.394577 
	C63.828644,166.732407 49.409859,171.156174 34.959663,175.474991 
	C33.560101,175.893295 32.020084,175.841644 30.178852,176.020294 
	C29.767563,164.345093 29.722687,152.657745 29.761906,140.511597 
	C36.544521,138.209930 43.280773,136.493225 49.935165,134.502808 
	C82.663757,124.713409 115.370628,114.851349 148.577042,105.419449 
	C150.119415,116.880440 152.433121,127.528145 159.083755,136.772430 
z"/>
<path fill="#FCFDFF" opacity="1.000000" stroke="none" 
	d="
M719.983215,493.991882 
	C710.404907,500.279785 700.826599,506.567627 690.718872,513.203003 
	C687.968445,509.087891 685.263977,505.041656 682.409546,500.771027 
	C692.189941,494.164154 701.513977,487.865540 711.640686,481.024689 
	C703.275757,479.286652 695.862183,477.746307 688.118896,476.137421 
	C689.121887,471.178131 690.032288,466.676636 691.068848,461.551392 
	C701.289978,463.528076 711.288696,465.036713 721.044434,467.505402 
	C727.039307,469.022491 731.668823,468.366943 736.635254,464.506897 
	C743.445068,459.214172 750.919189,454.776367 758.917480,449.431732 
	C753.295776,445.672760 747.662292,442.778473 743.117920,438.677368 
	C734.833191,431.200684 726.024414,430.092438 715.631958,433.253052 
	C707.884888,435.609161 699.721252,436.595856 691.157837,438.309570 
	C690.133850,433.424316 689.166016,428.807037 688.081970,423.635254 
	C696.142700,421.978455 703.888367,420.386383 712.776733,418.559479 
	C702.393738,411.545410 692.706177,405.001099 682.474609,398.089325 
	C685.151489,394.015686 687.749084,390.062653 690.717346,385.545532 
	C700.368347,391.970856 709.819824,398.263336 720.541138,405.401245 
	C718.895874,396.751587 717.524597,389.542480 716.066406,381.876312 
	C720.927307,380.868774 725.569702,379.906525 730.708801,378.841309 
	C733.126770,390.822540 735.406555,402.528046 737.930176,414.180725 
	C738.307495,415.923126 739.462036,417.937347 740.882385,418.940308 
	C748.494446,424.315582 756.304749,429.410217 764.994324,435.237427 
	C764.994324,429.019989 764.416626,423.432037 765.118347,418.009705 
	C766.451843,407.706055 763.205200,399.971222 755.053406,393.419342 
	C748.488892,388.143188 742.896667,381.657349 736.835449,375.671051 
	C740.549866,371.913757 743.925537,368.499084 747.791748,364.588257 
	C753.232544,370.371033 758.564148,376.037781 764.767090,382.630585 
	C764.767090,369.765442 764.767090,358.235138 764.767090,346.351166 
	C769.935120,346.351166 774.656616,346.351166 779.782715,346.351166 
	C779.782715,357.891418 779.782715,369.481232 779.782715,381.326233 
	C785.538757,375.371490 790.995911,369.725922 796.649475,363.877167 
	C800.972351,368.529633 804.242798,372.049347 807.862244,375.944794 
	C799.762085,383.984558 791.271484,392.168762 783.131714,400.688141 
	C781.426636,402.472778 780.245422,405.460968 780.144409,407.948242 
	C779.787903,416.724640 780.005737,425.524353 780.005737,435.216187 
	C788.986206,429.196259 797.449341,423.730194 805.616577,417.853058 
	C807.047058,416.823669 807.526001,414.128387 807.948914,412.099213 
	C810.216125,401.222565 812.326355,390.313141 814.586487,378.933868 
	C819.517029,379.916656 824.151917,380.840546 829.278076,381.862366 
	C827.804260,389.549774 826.406250,396.841461 824.806274,405.187042 
	C834.957825,398.419128 844.373352,392.141907 854.267212,385.545837 
	C857.042297,389.704498 859.667725,393.638824 862.599304,398.031921 
	C852.619934,404.769836 842.907471,411.327515 832.282227,418.501495 
	C841.119812,420.319824 848.950867,421.931030 857.178528,423.623840 
	C856.260071,428.458527 855.402039,432.974945 854.404846,438.224243 
	C848.077454,437.025299 841.689087,436.631012 835.901550,434.558594 
	C821.096069,429.256897 808.209473,431.317047 796.658691,442.219208 
	C793.692688,445.018738 789.880371,446.921570 786.157837,449.438477 
	C795.495728,455.717316 804.419250,461.827301 813.496460,467.699677 
	C814.819702,468.555725 816.963806,468.747528 818.579773,468.447662 
	C828.720520,466.565857 838.816467,464.443298 848.934814,462.439026 
	C850.538757,462.121338 852.181335,461.999237 854.283264,461.724335 
	C855.270569,466.462402 856.202698,470.935822 857.269531,476.055756 
	C849.451233,477.699524 841.906677,479.285736 833.350098,481.084686 
	C838.810425,484.733124 843.471497,487.824799 848.108459,490.952240 
	C852.788330,494.108673 857.444153,497.300568 862.507202,500.746948 
	C859.764771,504.922485 857.147949,508.906830 854.277893,513.276672 
	C844.568848,506.814850 835.071960,500.494232 824.626770,493.542450 
	C826.267517,502.097931 827.717773,509.659668 829.286804,517.840942 
	C824.479309,518.846375 819.864441,519.811584 814.647766,520.902588 
	C812.752686,511.516907 810.318848,502.527466 809.269104,493.379181 
	C808.272461,484.693939 804.782776,478.707062 796.878418,474.684418 
	C791.182495,471.785706 786.105347,467.671265 780.013306,463.606018 
	C780.013306,476.011719 779.911804,487.589264 780.137390,499.160431 
	C780.166687,500.663574 781.649902,502.363556 782.854309,503.582428 
	C791.262817,512.092102 799.775391,520.498901 808.184204,528.868530 
	C804.466614,532.711487 801.137085,536.153259 797.311646,540.107788 
	C791.853577,534.252441 786.564575,528.578552 781.275574,522.904602 
	C780.912842,523.110596 780.550049,523.316589 780.187256,523.522583 
	C780.187256,533.064819 780.187256,542.607117 780.187256,552.498291 
	C775.013977,552.498291 770.296326,552.498291 765.140198,552.498291 
	C765.140198,542.849304 765.140198,533.276306 765.140198,522.571899 
	C759.221375,529.080627 754.036621,534.782166 748.411804,540.967651 
	C744.187439,535.993530 741.024414,532.269104 737.554443,528.183228 
	C745.190613,520.570312 753.671204,512.354736 761.807068,503.810852 
	C763.519043,502.013031 764.776672,499.034729 764.853455,496.557312 
	C765.183167,485.914124 764.994263,475.254883 764.994263,463.601349 
	C758.441895,467.976837 752.655273,472.358307 746.384827,475.877838 
	C740.514038,479.173065 737.611877,483.486816 736.705688,490.271393 
	C735.347534,500.439148 732.827942,510.451752 730.726440,520.907715 
	C725.650391,519.882446 721.005066,518.944153 716.095276,517.952454 
	C717.582153,509.932678 718.997559,502.298340 720.319946,494.403046 
	C720.331177,494.040009 720.435486,493.937927 720.539734,493.835846 
	C720.470398,493.782104 720.362244,493.668854 720.338257,493.684509 
	C720.208435,493.769379 720.099365,493.886108 719.983215,493.991882 
z"/>
<path fill="#FDFEFF" opacity="1.000000" stroke="none" 
	d="
M780.172668,253.046616 
	C780.172668,259.816315 780.172668,266.585999 780.172668,273.677979 
	C775.016724,273.677979 770.312195,273.677979 764.977234,273.677979 
	C764.977234,268.444397 764.977234,263.203094 764.986633,257.038757 
	C764.996033,252.252914 764.996033,248.390106 764.996033,245.017654 
	C759.853577,249.752075 754.868652,254.341522 749.883667,258.930969 
	C748.829773,259.364014 747.775818,259.797028 746.225952,259.809143 
	C742.679932,256.604889 739.629822,253.821518 736.235474,250.724030 
	C743.344727,243.702225 749.338623,236.914612 756.231934,231.214706 
	C763.298950,225.371124 766.066895,218.728790 765.162231,209.615891 
	C764.372375,201.659073 764.997559,193.561783 764.997559,184.661469 
	C756.235107,190.526062 748.297485,195.674225 740.591431,201.148376 
	C739.211426,202.128708 738.376648,204.368469 737.990417,206.176331 
	C735.461792,218.011749 733.125732,229.888290 730.659729,242.082504 
	C725.524780,240.962952 720.791443,239.930954 716.116394,238.911667 
	C717.620178,230.765228 718.972961,223.437134 720.325745,216.109055 
	C719.914551,215.918152 719.503357,215.727249 719.092163,215.536362 
	C709.729431,221.747803 700.366760,227.959244 690.720398,234.358871 
	C687.846619,230.042389 685.217224,226.093124 682.413940,221.882507 
	C692.217224,215.267761 701.538818,208.977997 711.975342,201.935989 
	C706.480225,201.034225 702.263062,200.342194 697.703613,199.468414 
	C694.339050,198.708481 691.316833,198.130280 687.678528,197.434219 
	C688.899475,192.343018 690.022949,187.658112 691.229553,182.626862 
	C703.128601,184.978073 714.490479,187.261154 725.874512,189.427963 
	C727.422791,189.722656 729.483215,190.057663 730.626099,189.319901 
	C740.003418,183.266617 749.219421,176.963547 758.956421,170.419052 
	C749.562622,164.270142 740.823486,158.549789 731.809814,152.530670 
	C727.937927,152.643875 724.301819,152.847046 720.750854,153.507828 
	C710.998596,155.322617 701.282166,157.329498 691.003052,159.369171 
	C690.063843,154.208206 689.221985,149.582657 688.326965,144.664825 
	C696.560791,143.005035 704.154175,141.474335 712.875427,139.716278 
	C702.206787,132.490677 692.411133,125.856354 682.444092,119.105919 
	C685.444946,114.668716 688.027710,110.849709 690.796997,106.754883 
	C700.614136,113.283920 710.106201,119.596825 720.564758,126.552452 
	C718.977173,118.099411 717.608215,110.810547 716.151855,103.056160 
	C720.992126,102.043686 725.658752,101.067543 730.651489,100.023186 
	C733.085999,111.955704 735.395081,123.676407 737.946411,135.344162 
	C738.329529,137.096329 739.491516,139.078293 740.906128,140.127823 
	C744.761963,142.988541 748.945984,145.407013 753.186890,148.280014 
	C757.034729,150.989365 760.695496,153.419418 764.829956,156.163879 
	C764.829956,151.561142 764.829956,147.779968 764.896729,143.534760 
	C764.975037,139.428177 764.695496,135.755585 765.067444,132.150208 
	C765.603638,126.953201 763.903015,123.200531 759.999146,119.612312 
	C752.007385,112.266701 744.516785,104.375908 736.815674,96.705521 
	C739.431274,93.819305 741.639587,91.382599 744.144287,88.800690 
	C745.426086,87.792465 746.411438,86.929451 748.650208,84.968697 
	C754.111267,90.672791 759.519348,96.321533 765.225586,102.281700 
	C765.225586,90.451340 765.225586,78.893105 765.225586,66.997925 
	C769.724548,66.997925 773.851929,66.897873 777.965942,67.087921 
	C778.728455,67.123146 779.436890,68.328018 780.100220,69.457420 
	C780.030151,80.719536 780.030151,91.517288 780.030151,102.315033 
	C780.484802,102.505112 780.939453,102.695190 781.394104,102.885262 
	C786.693542,97.226105 791.992981,91.566940 797.207764,85.998131 
	C801.051697,89.628410 804.530151,92.913490 808.114990,96.299080 
	C804.381714,100.306381 800.896729,104.047203 797.134827,107.922379 
	C792.009216,112.864319 787.121277,117.633446 782.344055,122.511047 
	C781.356018,123.519920 780.139282,124.920540 780.115967,126.161041 
	C779.932800,135.908905 780.014404,145.661728 780.014404,156.343918 
	C789.175049,150.211639 797.585876,144.636627 805.903625,138.926071 
	C806.716797,138.367828 807.214478,137.025467 807.422974,135.961685 
	C809.436279,125.690163 811.356140,115.400345 813.513550,104.804787 
	C814.033508,103.105934 814.342773,101.718048 814.693909,100.142296 
	C818.990051,100.831360 822.981873,101.471611 827.262939,102.354599 
	C827.898743,104.166130 828.745789,105.817062 828.504272,107.289413 
	C827.510803,113.344948 826.186462,119.346191 824.798462,126.295242 
	C835.194275,119.374596 844.654297,113.076912 854.330078,106.635620 
	C857.254272,111.137573 859.822266,115.091202 862.504944,119.221313 
	C852.333374,126.091667 842.687012,132.607254 832.240051,139.663635 
	C838.340515,140.899948 843.205566,141.920151 848.084900,142.867157 
	C856.645813,144.528702 856.649475,144.509933 855.769287,153.333984 
	C855.125671,155.399948 854.687744,157.133865 854.202332,159.055786 
	C852.637024,158.911865 851.308472,158.908768 850.030273,158.653412 
	C839.598755,156.569534 829.189026,154.373093 818.739929,152.382935 
	C816.884460,152.029526 814.429626,151.768082 813.012451,152.665588 
	C804.045776,158.344177 795.293335,164.361023 786.141663,170.486176 
	C791.783508,174.309418 797.369324,177.432465 802.164490,181.489899 
	C810.664978,188.682693 819.627014,191.750717 830.387451,187.252701 
	C832.041809,186.561142 833.949951,186.464127 835.747925,186.130875 
	C841.874634,184.995346 848.004517,183.877182 854.410400,182.701477 
	C855.417053,187.944061 856.282471,192.451080 857.197083,197.214340 
	C849.297668,198.862991 841.843567,200.418701 833.402527,202.180389 
	C843.731995,209.157532 853.038269,215.443512 862.600525,221.902451 
	C859.617737,226.362656 856.992798,230.287842 854.246826,234.393936 
	C844.293335,227.755386 834.913086,221.499207 824.694153,214.683609 
	C826.321472,223.402405 827.760559,231.112823 829.242371,239.051880 
	C823.966553,240.100494 819.440430,241.000092 814.537842,241.974518 
	C812.282471,230.396011 810.145325,219.154541 807.861084,207.943024 
	C807.444397,205.897888 807.015564,203.165207 805.590027,202.129700 
	C797.453430,196.219315 789.013489,190.726547 780.010315,184.641571 
	C780.010315,197.194992 779.952393,208.668060 780.090149,220.138763 
	C780.105774,221.441650 780.924438,223.025406 781.872559,223.981003 
	C790.194763,232.368744 798.630859,240.643372 807.033203,248.951492 
	C806.936157,249.923767 807.199707,251.197403 806.681335,251.817612 
	C804.032532,254.986664 801.182190,257.987213 797.568298,261.964600 
	C794.215759,258.247437 791.487732,255.222702 788.314148,251.745087 
	C785.626587,248.800018 783.384521,246.307846 781.142517,243.815674 
	C780.819214,244.126434 780.495972,244.437195 780.172668,244.747955 
	C780.172668,247.514175 780.172668,250.280396 780.172668,253.046616 
z"/>
<path fill="#5086FF" opacity="1.000000" stroke="none" 
	d="
M807.254883,248.658218 
	C798.630859,240.643372 790.194763,232.368744 781.872559,223.981003 
	C780.924438,223.025406 780.105774,221.441650 780.090149,220.138763 
	C779.952393,208.668060 780.010315,197.194992 780.010315,184.641571 
	C789.013489,190.726547 797.453430,196.219315 805.590027,202.129700 
	C807.015564,203.165207 807.444397,205.897888 807.861084,207.943024 
	C810.145325,219.154541 812.282471,230.396011 814.537842,241.974518 
	C819.440430,241.000092 823.966553,240.100494 829.242371,239.051880 
	C827.760559,231.112823 826.321472,223.402405 824.694153,214.683609 
	C834.913086,221.499207 844.293335,227.755386 854.246826,234.393936 
	C856.992798,230.287842 859.617737,226.362656 862.600525,221.902451 
	C853.038269,215.443512 843.731995,209.157532 833.402527,202.180389 
	C841.843567,200.418701 849.297668,198.862991 857.197083,197.214340 
	C856.282471,192.451080 855.417053,187.944061 854.410400,182.701477 
	C848.004517,183.877182 841.874634,184.995346 835.747925,186.130875 
	C833.949951,186.464127 832.041809,186.561142 830.387451,187.252701 
	C819.627014,191.750717 810.664978,188.682693 802.164490,181.489899 
	C797.369324,177.432465 791.783508,174.309418 786.141663,170.486176 
	C795.293335,164.361023 804.045776,158.344177 813.012451,152.665588 
	C814.429626,151.768082 816.884460,152.029526 818.739929,152.382935 
	C829.189026,154.373093 839.598755,156.569534 850.030273,158.653412 
	C851.308472,158.908768 852.637024,158.911865 854.202332,159.055786 
	C854.687744,157.133865 855.125671,155.399948 856.191772,153.333313 
	C864.904602,150.823669 872.982605,148.622345 881.075378,146.476608 
	C889.320557,144.290466 897.580139,142.158981 905.833435,140.003571 
	C905.900452,145.025681 905.967407,150.047791 906.099548,155.532593 
	C906.091370,179.688904 906.018066,203.382553 905.860718,227.535126 
	C873.906738,234.361954 842.035461,240.723862 810.172607,247.127197 
	C809.229126,247.316818 808.373169,247.942551 807.254883,248.658218 
z"/>
<path fill="#5086FF" opacity="1.000000" stroke="none" 
	d="
M698.045959,199.650146 
	C702.263062,200.342194 706.480225,201.034225 711.975342,201.935989 
	C701.538818,208.977997 692.217224,215.267761 682.413940,221.882507 
	C685.217224,226.093124 687.846619,230.042389 690.720398,234.358871 
	C700.366760,227.959244 709.729431,221.747803 719.092163,215.536362 
	C719.503357,215.727249 719.914551,215.918152 720.325745,216.109055 
	C718.972961,223.437134 717.620178,230.765228 716.116394,238.911667 
	C720.791443,239.930954 725.524780,240.962952 730.659729,242.082504 
	C733.125732,229.888290 735.461792,218.011749 737.990417,206.176331 
	C738.376648,204.368469 739.211426,202.128708 740.591431,201.148376 
	C748.297485,195.674225 756.235107,190.526062 764.997559,184.661469 
	C764.997559,193.561783 764.372375,201.659073 765.162231,209.615891 
	C766.066895,218.728790 763.298950,225.371124 756.231934,231.214706 
	C749.338623,236.914612 743.344727,243.702225 736.235474,250.724030 
	C739.629822,253.821518 742.679932,256.604889 745.871216,259.689758 
	C733.261963,262.621094 720.512512,265.255798 707.760803,267.879730 
	C686.586304,272.236847 665.410706,276.588684 644.232971,280.930237 
	C643.751526,281.028931 643.239441,280.978424 642.321289,280.994507 
	C641.759216,272.089355 641.596741,263.187378 641.485535,254.284821 
	C641.437988,250.481796 641.497620,246.677429 641.503845,241.997772 
	C641.616943,233.413223 641.734741,225.704590 642.263428,217.991180 
	C660.002014,212.871201 677.341736,207.795547 694.633606,202.561966 
	C695.944763,202.165146 696.916443,200.647034 698.045959,199.650146 
z"/>
<path fill="#5187FF" opacity="1.000000" stroke="none" 
	d="
M750.307617,258.957031 
	C754.868652,254.341522 759.853577,249.752075 764.996033,245.017654 
	C764.996033,248.390106 764.996033,252.252914 764.934326,256.575470 
	C760.158875,257.684540 755.445190,258.333832 750.307617,258.957031 
z"/>
<path fill="#5187FF" opacity="1.000000" stroke="none" 
	d="
M780.573608,253.030304 
	C780.172668,250.280396 780.172668,247.514175 780.172668,244.747955 
	C780.495972,244.437195 780.819214,244.126434 781.142517,243.815674 
	C783.384521,246.307846 785.626587,248.800018 788.019958,251.592834 
	C785.772400,252.266998 783.373535,252.640503 780.573608,253.030304 
z"/>
<path fill="#FFFDFC" opacity="1.000000" stroke="none" 
	d="
M150.914276,509.923767 
	C155.002914,491.409729 164.603943,478.097443 183.402405,473.634491 
	C189.257217,472.244507 195.701981,472.034698 201.679214,472.808929 
	C208.516571,473.694611 212.918182,471.279449 216.313507,465.945526 
	C218.891068,461.896301 221.264832,457.717316 224.055908,453.049835 
	C234.472275,457.207092 245.150696,461.468903 256.273041,465.907898 
	C249.869812,480.046448 242.422333,492.751495 229.591385,501.553436 
	C221.015060,507.436798 211.387131,509.019928 201.471100,507.670868 
	C188.279129,505.876129 186.711716,508.858307 184.295883,521.373230 
	C183.861023,523.625916 183.831299,525.956787 183.596680,528.440491 
	C172.040955,528.440491 160.655899,528.440491 148.250809,528.440491 
	C149.165100,522.053528 150.003708,516.195251 150.914276,509.923767 
z"/>
<path fill="#FFFDFC" opacity="1.000000" stroke="none" 
	d="
M172.359283,387.601379 
	C179.446884,395.119049 186.299042,402.369843 193.582291,410.076813 
	C184.151306,418.948181 174.872543,427.676331 165.102676,436.866425 
	C156.331314,427.496063 147.752686,418.331573 138.936401,408.913208 
	C148.559494,399.905243 157.861847,391.197540 167.351791,382.314209 
	C169.147690,384.203522 170.635773,385.769043 172.359283,387.601379 
z"/>
<path fill="#010101" opacity="1.000000" stroke="none" 
	d="
M464.466949,316.691254 
	C477.457489,329.556061 490.472626,342.396240 503.402771,355.321442 
	C504.785614,356.703766 505.672852,358.581879 506.789978,360.230011 
	C507.377197,359.860931 507.964417,359.491852 508.551636,359.122772 
	C508.551636,342.391632 508.551636,325.660461 509.093811,308.440155 
	C521.415161,305.637329 533.194336,303.323608 544.973511,301.009888 
	C544.984009,326.654724 545.783020,352.329468 544.809998,377.936890 
	C543.530823,411.601959 514.267090,442.754547 480.607544,447.984131 
	C435.965485,454.919952 396.054260,426.533203 389.653320,381.793335 
	C387.362061,365.778381 388.832458,349.225220 389.155426,332.463623 
	C391.185974,331.794983 392.659363,331.642365 394.106262,331.356079 
	C406.356018,328.932312 418.600952,326.484161 430.847321,324.043304 
	C430.847321,337.156128 430.847321,350.268951 430.847321,363.607971 
	C447.155334,363.607971 462.893921,363.607971 479.468719,363.607971 
	C478.270660,362.176270 477.484131,361.078979 476.543121,360.135864 
	C465.367920,348.935669 454.156952,337.771088 442.997040,326.555725 
	C441.867310,325.420410 441.008728,324.015259 440.479797,322.351593 
	C448.779175,320.208984 456.623047,318.450134 464.466949,316.691254 
z"/>
<path fill="#202020" opacity="1.000000" stroke="none" 
	d="
M293.386108,249.988678 
	C293.315125,234.961533 293.244171,219.934372 293.669769,204.444794 
	C303.023865,201.524658 311.936096,199.245361 320.720337,196.548935 
	C326.974731,194.629074 333.056763,192.147781 339.623413,189.915710 
	C347.852020,191.471008 355.678955,192.998322 363.492706,194.590134 
	C382.086517,198.378021 400.677368,202.180832 419.263153,206.007828 
	C431.552277,208.538300 443.830627,211.121140 456.043549,214.061111 
	C454.845551,215.269318 453.833954,216.471741 452.571014,216.863007 
	C445.063141,219.188995 437.438843,221.152451 429.986328,223.635834 
	C427.768677,224.374817 425.978363,226.396118 423.992279,227.829865 
	C395.770874,222.202637 367.549469,216.575409 338.798859,210.842651 
	C338.798859,219.861191 338.798859,228.466171 338.307739,237.531097 
	C330.957581,239.794296 324.088226,241.559464 317.242218,243.410767 
	C309.279541,245.564026 301.337250,247.792725 293.386108,249.988678 
z"/>
<path fill="#2E2E2E" opacity="1.000000" stroke="none" 
	d="
M641.852539,217.995941 
	C641.734741,225.704590 641.616943,233.413223 641.340332,241.567963 
	C635.273621,243.451111 629.302795,244.671921 623.471375,246.371201 
	C612.064575,249.695160 600.720764,253.238770 589.389771,256.814941 
	C587.569336,257.389496 585.950562,258.602966 584.080566,259.852386 
	C564.258850,256.298645 544.595093,252.413742 524.931335,248.528427 
	C523.467407,248.239182 522.003967,247.947128 520.306580,247.047333 
	C521.128906,245.761963 522.099854,244.803070 523.254822,244.455017 
	C530.984009,242.125916 538.813660,240.112045 546.471863,237.576553 
	C548.865906,236.783920 550.831726,234.698059 553.387085,233.168060 
	C567.418396,235.942764 581.056213,238.753632 595.390137,241.707962 
	C595.390137,231.856155 595.390137,222.923721 595.782471,213.988220 
	C605.093750,211.499680 613.995605,208.950836 622.937439,206.550781 
	C628.987427,204.926910 635.093689,203.512375 641.340332,202.439346 
	C641.621460,207.914993 641.737000,212.955460 641.852539,217.995941 
z"/>
<path fill="#292929" opacity="1.000000" stroke="none" 
	d="
M354.902527,302.530090 
	C334.598633,308.982086 314.364929,314.970459 293.757812,320.974670 
	C293.317047,307.297516 293.249664,293.604492 293.650391,279.437866 
	C303.584412,276.071686 313.029968,273.110168 322.521667,270.304932 
	C333.269806,267.128418 344.059387,264.092072 354.830933,260.994781 
	C354.878204,274.685333 354.925476,288.375885 354.902527,302.530090 
z"/>
<path fill="#333333" opacity="1.000000" stroke="none" 
	d="
M464.312164,316.385590 
	C456.623047,318.450134 448.779175,320.208984 440.545837,322.004547 
	C440.156372,305.065369 440.156372,288.089478 440.156372,270.327637 
	C459.941742,274.329529 479.527710,278.291138 499.465302,282.323822 
	C499.465302,291.757538 499.465302,301.155334 499.465302,311.065491 
	C486.639465,311.065491 473.626953,311.065491 459.593292,311.065491 
	C461.590515,313.259796 462.873962,314.669861 464.312164,316.385590 
z"/>
<path fill="#292929" opacity="1.000000" stroke="none" 
	d="
M552.993530,233.204193 
	C550.831726,234.698059 548.865906,236.783920 546.471863,237.576553 
	C538.813660,240.112045 530.984009,242.125916 523.254822,244.455017 
	C522.099854,244.803070 521.128906,245.761963 520.004700,246.811432 
	C504.475281,244.137375 489.005768,241.131287 473.554962,238.031677 
	C457.275391,234.765778 441.013763,231.410568 424.368286,227.962128 
	C425.978363,226.396118 427.768677,224.374817 429.986328,223.635834 
	C437.438843,221.152451 445.063141,219.188995 452.571014,216.863007 
	C453.833954,216.471741 454.845551,215.269318 456.468140,214.056061 
	C462.673370,214.787827 468.392181,215.864136 474.092773,217.029663 
	C500.395813,222.407578 526.693726,227.810333 552.993530,233.204193 
z"/>
<path fill="#2D2D2D" opacity="1.000000" stroke="none" 
	d="
M388.830688,308.957550 
	C388.830688,292.754547 388.830688,276.551544 388.830688,259.901703 
	C402.879944,262.744568 416.626953,265.526306 430.973785,268.429413 
	C430.973785,277.906586 430.973785,287.485321 430.497620,297.531128 
	C425.375885,299.154541 420.711182,300.239807 416.088745,301.482269 
	C406.990326,303.927856 397.915344,306.460785 388.830688,308.957550 
z"/>
<path fill="#232323" opacity="1.000000" stroke="none" 
	d="
M354.902649,260.548340 
	C344.059387,264.092072 333.269806,267.128418 322.521667,270.304932 
	C313.029968,273.110168 303.584412,276.071686 293.751923,278.979004 
	C293.319031,269.631989 293.252747,260.270203 293.286285,250.448547 
	C301.337250,247.792725 309.279541,245.564026 317.242218,243.410767 
	C324.088226,241.559464 330.957581,239.794296 338.211853,237.989929 
	C338.681427,239.472244 338.813629,240.955414 338.820404,242.439148 
	C338.856689,250.384369 338.833374,250.444717 346.038635,251.941498 
	C348.848663,252.525253 351.729187,252.769592 354.974335,253.224075 
	C354.974335,255.545776 354.974335,257.823822 354.902649,260.548340 
z"/>
<path fill="#363636" opacity="1.000000" stroke="none" 
	d="
M388.677490,309.336243 
	C397.915344,306.460785 406.990326,303.927856 416.088745,301.482269 
	C420.711182,300.239807 425.375885,299.154541 430.428406,297.994659 
	C430.887451,306.364166 430.939545,314.737183 430.919495,323.576782 
	C418.600952,326.484161 406.356018,328.932312 394.106262,331.356079 
	C392.659363,331.642365 391.185974,331.794983 389.295349,332.014038 
	C388.751984,324.583984 388.638123,317.149475 388.677490,309.336243 
z"/>
<path fill="#3E3E3E" opacity="1.000000" stroke="none" 
	d="
M545.072998,300.563904 
	C533.194336,303.323608 521.415161,305.637329 509.219330,307.987427 
	C508.802704,300.268219 508.802704,292.512604 508.802704,284.263580 
	C520.389832,286.570465 531.876831,288.805206 543.319214,291.248840 
	C544.111633,291.418030 544.949097,293.087463 545.104675,294.155518 
	C545.388550,296.104919 545.177246,298.126434 545.072998,300.563904 
z"/>
<path fill="#171717" opacity="1.000000" stroke="none" 
	d="
M339.215698,189.917038 
	C333.056763,192.147781 326.974731,194.629074 320.720337,196.548935 
	C311.936096,199.245361 303.023865,201.524658 293.773193,203.985931 
	C293.300568,197.633743 293.221161,191.277954 293.043701,184.462006 
	C292.993652,181.628250 293.041595,179.254639 293.014709,176.441315 
	C293.024384,173.949005 293.108856,171.896439 293.287750,169.413193 
	C306.080780,165.323563 318.770081,161.631729 331.487427,158.039108 
	C333.527496,157.462784 335.692810,157.329834 338.304871,157.452545 
	C338.944916,168.581116 339.080322,179.249069 339.215698,189.917038 
z"/>
<path fill="#FFFEFD" opacity="1.000000" stroke="none" 
	d="
M59.331497,345.275574 
	C51.784122,340.363953 44.583790,335.506165 37.134445,330.480347 
	C46.282219,321.779907 54.531044,313.934448 63.039661,305.841888 
	C66.294930,307.972137 70.681648,311.247925 75.436409,313.851624 
	C81.370125,317.101013 84.046227,316.502441 88.781357,311.768036 
	C91.015083,309.534668 93.144424,307.183014 95.174149,304.761780 
	C104.684822,293.416565 116.820648,288.030060 131.601166,288.406036 
	C143.502823,288.708740 154.918671,291.086548 166.207367,295.819153 
	C163.689102,302.109039 161.307816,308.056793 158.893738,314.363647 
	C156.844406,319.046875 154.827866,323.370972 153.112839,327.048553 
	C145.412689,325.850250 138.123444,324.251678 130.764450,323.806763 
	C127.953873,323.636871 124.645782,325.656921 122.178535,327.500732 
	C119.571144,329.449219 117.751511,332.428772 115.491058,334.868286 
	C100.066765,351.514282 80.498291,355.169403 59.331497,345.275574 
z"/>
<path fill="#3F7BFF" opacity="1.000000" stroke="none" 
	d="
M826.973694,102.111877 
	C822.981873,101.471611 818.990051,100.831360 814.693909,100.142296 
	C814.342773,101.718048 814.033508,103.105934 813.098267,104.775467 
	C807.452087,105.967407 802.431885,106.877708 797.411743,107.788017 
	C800.896729,104.047203 804.381714,100.306381 808.114990,96.299080 
	C804.530151,92.913490 801.051697,89.628410 797.207764,85.998131 
	C791.992981,91.566940 786.693542,97.226105 781.394104,102.885262 
	C780.939453,102.695190 780.484802,102.505112 780.030151,102.315033 
	C780.030151,91.517288 780.030151,80.719536 780.471924,69.406639 
	C800.836853,62.912033 820.781616,57.003025 840.674988,50.926079 
	C852.190796,47.408260 863.624084,43.620003 875.094482,39.953461 
	C877.841553,41.907551 880.588623,43.861641 883.645630,45.976269 
	C892.984680,54.637245 900.355286,64.184006 903.435730,76.849930 
	C903.697266,77.097725 903.744446,77.551331 903.321045,77.778374 
	C902.565430,78.015533 902.211853,77.954018 901.904114,78.045990 
	C877.809204,85.246117 853.712158,92.439522 829.645630,99.733551 
	C828.609863,100.047470 827.857910,101.297768 826.973694,102.111877 
z"/>
<path fill="#4780FF" opacity="1.000000" stroke="none" 
	d="
M827.262939,102.354599 
	C827.857910,101.297768 828.609863,100.047470 829.645630,99.733551 
	C853.712158,92.439522 877.809204,85.246117 901.904114,78.045990 
	C902.211853,77.954018 902.565430,78.015533 903.285522,78.003616 
	C904.452026,89.197853 905.246216,100.392868 905.993896,111.590988 
	C906.115173,113.407646 906.030334,115.238060 906.104553,117.526306 
	C906.102356,125.018547 906.036499,132.046585 905.902039,139.539093 
	C897.580139,142.158981 889.320557,144.290466 881.075378,146.476608 
	C872.982605,148.622345 864.904602,150.823669 856.397583,153.001282 
	C856.649475,144.509933 856.645813,144.528702 848.084900,142.867157 
	C843.205566,141.920151 838.340515,140.899948 832.240051,139.663635 
	C842.687012,132.607254 852.333374,126.091667 862.504944,119.221313 
	C859.822266,115.091202 857.254272,111.137573 854.330078,106.635620 
	C844.654297,113.076912 835.194275,119.374596 824.798462,126.295242 
	C826.186462,119.346191 827.510803,113.344948 828.504272,107.289413 
	C828.745789,105.817062 827.898743,104.166130 827.262939,102.354599 
z"/>
<path fill="#FFFDFC" opacity="1.000000" stroke="none" 
	d="
M159.382385,136.939636 
	C152.433121,127.528145 150.119415,116.880440 148.959839,105.409988 
	C148.850754,102.692070 148.850754,100.388130 148.850754,97.427170 
	C160.580093,97.427170 171.983170,97.427170 183.692596,97.713623 
	C184.727280,102.880508 185.218765,107.811707 186.250687,112.627083 
	C187.278275,117.422142 190.735199,119.255096 195.513550,118.982422 
	C200.630325,118.690414 205.776932,118.104721 210.870590,118.381599 
	C224.407471,119.117447 234.296494,126.411324 242.603928,136.906815 
	C247.489273,144.459549 252.059296,151.891479 257.022858,159.963425 
	C245.347900,164.644760 234.695496,168.916061 224.568863,172.976562 
	C220.383667,167.040375 216.760132,161.317978 212.469955,156.148895 
	C211.070145,154.462341 207.933167,154.217575 205.297150,153.501450 
	C198.262283,153.575134 191.445343,154.055817 184.796890,153.210770 
	C174.072479,151.847656 165.758835,146.056793 159.382385,136.939636 
z"/>
<path fill="#FEFEFE" opacity="1.000000" stroke="none" 
	d="
M339.623413,189.915710 
	C339.080322,179.249069 338.944916,168.581116 338.707642,157.454086 
	C338.739136,155.091019 338.872437,153.187012 339.038971,150.808212 
	C341.863922,151.280548 344.493958,151.720306 347.846069,152.371552 
	C361.619843,155.207306 374.671570,157.831573 387.942169,160.499847 
	C387.942169,152.871490 387.942169,145.935059 387.942169,138.998627 
	C387.942169,131.216934 387.942169,123.435226 387.942169,115.327576 
	C399.449890,115.327576 410.476105,115.327576 422.023529,115.327576 
	C422.023529,123.557724 422.023529,131.810928 422.013977,140.990662 
	C422.004456,150.484970 422.004456,159.052750 422.004456,167.487366 
	C452.466064,173.648163 482.156128,179.652924 512.502258,185.790375 
	C512.502258,175.013199 512.449646,164.914581 512.515320,154.816727 
	C512.601746,141.534714 512.781128,128.253326 512.920532,114.971664 
	C521.301880,114.972214 529.683228,114.972755 538.979248,114.983078 
	C541.840698,114.992859 543.787537,114.992859 546.390442,114.992859 
	C546.390442,133.918808 546.390442,152.447922 546.286255,171.436737 
	C546.182068,178.822906 546.182068,185.749359 546.182068,192.646393 
	C562.872803,196.054535 578.934387,199.334198 595.390137,202.694351 
	C595.390137,206.704819 595.390137,210.348053 595.390137,213.991302 
	C595.390137,222.923721 595.390137,231.856155 595.390137,241.707962 
	C581.056213,238.753632 567.418396,235.942764 553.387085,233.168045 
	C526.693726,227.810333 500.395813,222.407578 474.092773,217.029663 
	C468.392181,215.864136 462.673370,214.787827 456.538391,213.675476 
	C443.830627,211.121140 431.552277,208.538300 419.263153,206.007828 
	C400.677368,202.180832 382.086517,198.378021 363.492706,194.590134 
	C355.678955,192.998322 347.852020,191.471008 339.623413,189.915710 
z"/>
<path fill="#3977FF" opacity="1.000000" stroke="none" 
	d="
M874.929199,39.636772 
	C863.624084,43.620003 852.190796,47.408260 840.674988,50.926079 
	C820.781616,57.003025 800.836853,62.912033 780.541992,68.942276 
	C779.436890,68.328018 778.728455,67.123146 777.965942,67.087921 
	C773.851929,66.897873 769.724548,66.997925 765.225586,66.997925 
	C765.225586,78.893105 765.225586,90.451340 765.225586,102.281700 
	C759.519348,96.321533 754.111267,90.672791 748.650208,84.968697 
	C746.411438,86.929451 745.426086,87.792465 743.737793,88.813889 
	C741.253296,89.299004 739.420959,89.457359 737.697876,89.977631 
	C711.672363,97.835716 685.678162,105.797905 659.633728,113.592438 
	C653.788147,115.341896 647.778870,116.544044 641.745239,117.537895 
	C641.488220,105.698013 641.330933,94.318390 641.173645,82.938759 
	C641.317871,67.490257 641.464417,52.041775 641.603699,36.593231 
	C641.622925,34.463943 641.606323,32.334335 641.606323,29.539345 
	C693.424988,29.539345 744.737305,29.539345 796.515137,29.511311 
	C810.797607,29.535583 824.617249,29.778479 838.430725,29.585110 
	C851.521851,29.401852 863.700867,32.160744 874.929199,39.636772 
z"/>
<path fill="#1D1D1D" opacity="1.000000" stroke="none" 
	d="
M640.825806,82.962143 
	C641.330933,94.318390 641.488220,105.698013 641.650757,117.998932 
	C641.499084,126.927223 641.342163,134.934219 640.847656,142.982635 
	C619.925293,149.213699 599.350952,155.438156 578.751587,161.578735 
	C567.987244,164.787552 557.178894,167.848999 546.390442,170.977005 
	C546.390442,152.447922 546.390442,133.918808 546.390442,114.992859 
	C543.787537,114.992859 541.840698,114.992859 539.442505,114.912064 
	C541.204224,113.640938 543.292603,112.042137 545.649475,111.322586 
	C573.404053,102.849045 601.195618,94.496048 628.987122,86.143715 
	C632.790283,85.000710 636.646423,84.033913 640.825806,82.962143 
z"/>
<path fill="#1D1D1D" opacity="1.000000" stroke="none" 
	d="
M512.509155,114.967117 
	C512.781128,128.253326 512.601746,141.534714 512.515320,154.816727 
	C512.449646,164.914581 512.502258,175.013199 512.502258,185.790375 
	C482.156128,179.652924 452.466064,173.648163 422.004456,167.487366 
	C422.004456,159.052750 422.004456,150.484970 422.084717,141.454010 
	C435.337402,137.204926 448.539154,133.517563 461.674591,129.607559 
	C477.203735,124.985077 492.671082,120.155273 508.180969,115.467575 
	C509.423889,115.091911 510.789246,115.121376 512.509155,114.967117 
z"/>
<path fill="#171717" opacity="1.000000" stroke="none" 
	d="
M387.541168,139.000061 
	C387.942169,145.935059 387.942169,152.871490 387.942169,160.499847 
	C374.671570,157.831573 361.619843,155.207306 348.266235,152.348602 
	C348.790894,151.343475 349.492126,150.158936 350.463043,149.864853 
	C362.666107,146.168945 374.908112,142.601685 387.541168,139.000061 
z"/>
<path fill="#FFFDFC" opacity="1.000000" stroke="none" 
	d="
M173.316376,212.078186 
	C173.628113,212.660538 173.825485,213.297989 173.590530,213.614090 
	C166.272827,223.459244 158.912903,233.273026 151.318069,243.413940 
	C143.172943,237.409088 135.315796,231.616547 127.181381,225.682068 
	C124.747490,223.771866 122.590889,222.003601 120.142365,219.995987 
	C127.722717,209.848221 135.148682,199.907135 142.867294,189.574280 
	C153.071091,197.162552 163.035767,204.573013 173.316376,212.078186 
z"/>
<path fill="#2568FF" opacity="1.000000" stroke="none" 
	d="
M719.970032,493.967285 
	C720.099365,493.886108 720.208435,493.769379 720.338257,493.684509 
	C720.362244,493.668854 720.470398,493.782104 720.539734,493.835846 
	C720.435486,493.937927 720.331177,494.040009 720.078003,494.018127 
	C719.929138,493.894196 719.956848,493.942688 719.970032,493.967285 
z"/>
<path fill="#457FFF" opacity="1.000000" stroke="none" 
	d="
M641.185181,142.941223 
	C641.342163,134.934219 641.499084,126.927223 641.750488,118.459183 
	C647.778870,116.544044 653.788147,115.341896 659.633728,113.592438 
	C685.678162,105.797905 711.672363,97.835716 737.697876,89.977631 
	C739.420959,89.457359 741.253296,89.299004 743.441345,88.959099 
	C741.639587,91.382599 739.431274,93.819305 736.815674,96.705521 
	C744.516785,104.375908 752.007385,112.266701 759.999146,119.612312 
	C763.903015,123.200531 765.603638,126.953201 765.067444,132.150208 
	C764.695496,135.755585 764.975037,139.428177 764.494385,143.535233 
	C760.350220,145.333405 756.675049,146.667068 752.999939,148.000717 
	C748.945984,145.407013 744.761963,142.988541 740.906128,140.127823 
	C739.491516,139.078293 738.329529,137.096329 737.946411,135.344162 
	C735.395081,123.676407 733.085999,111.955704 730.651489,100.023186 
	C725.658752,101.067543 720.992126,102.043686 716.151855,103.056160 
	C717.608215,110.810547 718.977173,118.099411 720.564758,126.552452 
	C710.106201,119.596825 700.614136,113.283920 690.796997,106.754883 
	C688.027710,110.849709 685.444946,114.668716 682.444092,119.105919 
	C692.411133,125.856354 702.206787,132.490677 712.875427,139.716278 
	C704.154175,141.474335 696.560791,143.005035 688.326965,144.664825 
	C689.221985,149.582657 690.063843,154.208206 691.003052,159.369171 
	C701.282166,157.329498 710.998596,155.322617 720.750854,153.507828 
	C724.301819,152.847046 727.937927,152.643875 731.648315,152.859619 
	C730.041138,154.404587 728.415222,155.626770 726.586365,156.192856 
	C703.174866,163.439301 679.752197,170.650909 656.286255,177.718582 
	C651.569214,179.139297 646.660156,179.922440 641.750610,180.537582 
	C641.502869,167.697495 641.343994,155.319351 641.185181,142.941223 
z"/>
<path fill="#4680FF" opacity="1.000000" stroke="none" 
	d="
M641.839600,180.999542 
	C646.660156,179.922440 651.569214,179.139297 656.286255,177.718582 
	C679.752197,170.650909 703.174866,163.439301 726.586365,156.192856 
	C728.415222,155.626770 730.041138,154.404587 731.922852,153.158386 
	C740.823486,158.549789 749.562622,164.270142 758.956421,170.419052 
	C749.219421,176.963547 740.003418,183.266617 730.626099,189.319901 
	C729.483215,190.057663 727.422791,189.722656 725.874512,189.427963 
	C714.490479,187.261154 703.128601,184.978073 691.229553,182.626862 
	C690.022949,187.658112 688.899475,192.343018 687.678528,197.434219 
	C691.316833,198.130280 694.339050,198.708481 697.703613,199.468414 
	C696.916443,200.647034 695.944763,202.165146 694.633606,202.561966 
	C677.341736,207.795547 660.002014,212.871201 642.263428,217.991180 
	C641.737000,212.955460 641.621460,207.914993 641.494507,201.993042 
	C641.601868,194.407562 641.720764,187.703537 641.839600,180.999542 
z"/>
<path fill="#4780FF" opacity="1.000000" stroke="none" 
	d="
M797.134766,107.922363 
	C802.431885,106.877708 807.452087,105.967407 812.887573,105.086433 
	C811.356140,115.400345 809.436279,125.690163 807.422974,135.961685 
	C807.214478,137.025467 806.716797,138.367828 805.903625,138.926071 
	C797.585876,144.636627 789.175049,150.211639 780.014404,156.343918 
	C780.014404,145.661728 779.932800,135.908905 780.115967,126.161041 
	C780.139282,124.920540 781.356018,123.519920 782.344055,122.511047 
	C787.121277,117.633446 792.009216,112.864319 797.134766,107.922363 
z"/>
<path fill="#467FFF" opacity="1.000000" stroke="none" 
	d="
M753.186890,148.280014 
	C756.675049,146.667068 760.350220,145.333405 764.427612,143.999268 
	C764.829956,147.779968 764.829956,151.561142 764.829956,156.163879 
	C760.695496,153.419418 757.034729,150.989365 753.186890,148.280014 
z"/>
<path fill="#272727" opacity="1.000000" stroke="none" 
	d="
M641.750610,180.537567 
	C641.720764,187.703537 641.601868,194.407562 641.328857,201.557877 
	C635.093689,203.512375 628.987427,204.926910 622.937439,206.550781 
	C613.995605,208.950836 605.093750,211.499680 595.782471,213.988220 
	C595.390137,210.348053 595.390137,206.704819 595.390137,202.694351 
	C578.934387,199.334198 562.872803,196.054535 546.182068,192.646393 
	C546.182068,185.749359 546.182068,178.822906 546.286255,171.436737 
	C557.178894,167.848999 567.987244,164.787552 578.751587,161.578735 
	C599.350952,155.438156 619.925293,149.213699 640.847595,142.982635 
	C641.343994,155.319351 641.502869,167.697495 641.750610,180.537567 
z"/>
</svg>