<svg version="1.1" id="Layer_1" xmlns="http://www.w3.org/2000/svg" xmlns:xlink="http://www.w3.org/1999/xlink" x="0px" y="0px"
	 width="100%" viewBox="0 0 624 624" enable-background="new 0 0 624 624" xml:space="preserve">
<path fill="#000000" opacity="1.000000" stroke="none" 
	d="
M311.000000,1.000000 
	C319.354218,1.000000 327.708466,1.000000 336.914124,1.141451 
	C351.711121,1.631792 365.516541,3.240289 379.273376,5.535395 
	C416.347565,11.720618 451.196899,24.173035 483.734711,42.888470 
	C517.173096,62.121895 546.153564,86.710663 570.797424,116.455231 
	C594.335754,144.865494 612.547974,176.265610 625.000000,211.000000 
	C625.000000,284.020905 625.000000,357.041779 624.877319,430.853851 
	C617.379456,449.987701 609.276367,468.016266 598.953857,484.889648 
	C580.206116,515.535156 557.208923,542.532715 529.620178,565.735352 
	C503.956848,587.318665 475.490967,603.932861 444.703491,616.894714 
	C438.156006,619.651306 431.077301,621.116577 425.000000,625.000000 
	C358.645782,625.000000 292.291534,625.000000 225.221970,624.763062 
	C223.923019,624.207886 223.371658,623.793823 222.751221,623.585205 
	C179.219498,608.944641 140.668274,585.894470 107.040794,554.676819 
	C72.592682,522.697327 46.661964,484.758392 28.689516,441.360321 
	C12.783933,402.953125 5.359105,362.763580 4.928791,321.377380 
	C4.791651,308.187744 5.845119,294.888336 7.423988,281.658997 
	C10.776529,253.568039 17.491282,226.368378 28.386772,200.352692 
	C63.983749,115.355965 124.784760,55.783466 210.465179,21.860163 
	C234.183975,12.469215 258.864990,6.527091 284.259644,3.475373 
	C293.164520,2.405262 302.112610,2.085812 311.000000,1.000000 
M322.071320,208.465302 
	C310.514343,206.082703 298.961090,203.681671 287.399628,201.321060 
	C256.623535,195.037277 225.854904,188.715622 195.049576,182.578308 
	C191.763000,181.923538 190.558945,180.625427 190.595215,177.349960 
	C190.718765,166.186386 190.633453,155.020599 190.669571,143.855804 
	C190.673691,142.582092 190.454956,141.156708 192.023743,140.052094 
	C192.775177,140.161209 193.750092,140.258835 194.706802,140.448334 
	C208.727020,143.225311 222.781708,145.845596 236.742386,148.895981 
	C241.392029,149.911926 242.748138,148.601593 242.691330,144.086075 
	C242.536209,131.756683 242.749313,119.422638 242.594727,107.093231 
	C242.548462,103.402840 243.982697,101.979057 247.541367,102.002335 
	C256.039307,102.057938 264.544464,102.174744 273.034027,101.889328 
	C277.807678,101.728844 279.457123,103.418427 279.376434,108.242065 
	C279.131256,122.902298 279.366333,137.569946 279.239685,152.233215 
	C279.208862,155.802048 280.357178,157.875549 283.990601,158.584427 
	C295.901581,160.908249 307.821655,163.202011 319.674225,165.799591 
	C324.014709,166.750809 325.074554,164.999634 324.972046,161.212585 
	C324.877441,157.716125 324.985474,154.214478 324.986725,150.715103 
	C324.999634,114.387634 325.033997,78.060143 324.997589,41.732723 
	C324.990631,34.776779 324.445679,34.243397 317.596466,34.382282 
	C305.611694,34.625305 293.655121,35.617474 281.843079,37.554432 
	C220.290421,47.647923 166.665741,74.021629 123.136505,118.734673 
	C58.172844,185.465088 31.202444,265.631042 42.235661,358.320435 
	C45.992325,389.879913 55.233505,419.864319 69.660912,448.076416 
	C102.524010,512.338623 152.399002,558.433838 219.200928,585.970276 
	C251.088043,599.114502 284.445221,605.412659 318.842468,606.658752 
	C323.363953,606.822510 325.166199,605.227539 325.048279,600.627869 
	C324.834930,592.301880 325.025574,583.965576 325.035400,575.633606 
	C325.065857,549.804382 325.025665,523.974670 325.183533,498.146271 
	C325.208954,493.986420 324.118164,492.040253 319.588135,492.171783 
	C315.796204,492.281891 311.948761,491.697021 308.176880,491.098633 
	C249.626968,481.809296 207.637924,432.601807 207.640701,373.350250 
	C207.642395,337.355774 207.640121,301.361267 207.639923,265.366791 
	C207.639847,251.650101 207.667084,251.535583 194.484299,248.439560 
	C191.274933,247.685837 190.587387,246.009277 190.615723,243.170975 
	C190.692215,235.506302 190.550262,227.839127 190.658325,220.175247 
	C190.723328,215.564240 190.082321,210.896454 191.165787,206.527084 
	C192.956894,205.500137 194.386047,206.282135 195.814606,206.570770 
	C221.553726,211.771667 247.290451,216.984558 273.024872,222.208664 
	C288.334442,225.316513 303.630768,228.490326 318.950531,231.547012 
	C324.491943,232.652679 324.915985,232.223862 324.975281,226.472733 
	C325.018250,222.307388 325.007385,218.140442 324.942078,213.975464 
	C324.910980,211.991684 324.998444,209.888306 322.071320,208.465302 
M376.235382,479.682770 
	C419.188324,457.232269 441.639221,421.875763 442.571136,373.333191 
	C443.009186,350.514343 442.632111,327.680084 442.671356,304.852905 
	C442.674988,302.741730 442.170532,300.507080 443.592651,298.459961 
	C447.283081,297.960052 450.856476,299.091217 454.319153,299.969788 
	C458.569305,301.048065 459.799011,299.561249 459.772156,295.635681 
	C459.706085,285.972137 459.630371,276.305267 459.822662,266.644958 
	C459.905304,262.492737 458.218933,260.845032 454.192719,260.059540 
	C433.315491,255.986618 412.490753,251.644501 391.648834,247.390762 
	C372.271423,243.435928 352.897491,239.463821 333.517548,235.521286 
	C326.763245,234.147232 326.361664,234.487381 326.355713,241.307602 
	C326.347717,250.471802 326.445282,259.637207 326.320923,268.799683 
	C326.272400,272.374512 327.455902,274.240967 331.217407,274.926575 
	C340.535614,276.625122 349.758759,278.843353 359.073914,280.560974 
	C362.419037,281.177765 363.503296,282.758087 363.407898,285.959381 
	C363.254120,291.120026 363.151001,296.300934 363.439209,301.450195 
	C363.677979,305.715424 362.307465,307.503204 357.824402,307.301392 
	C351.506195,307.016907 345.162659,307.162964 338.833771,307.300476 
	C335.448944,307.373993 331.954865,306.669281 329.858551,307.482697 
	C343.178223,320.896118 356.657990,334.470734 370.545105,348.455597 
	C370.545105,327.114777 370.545105,305.628571 370.545105,284.635773 
	C372.914612,283.403320 374.398926,283.664642 375.863800,283.960022 
	C384.336060,285.668579 392.815216,287.345734 401.270691,289.134521 
	C408.378571,290.638214 408.373352,290.699188 408.374298,298.262115 
	C408.377411,323.588715 408.714172,348.920990 408.291779,374.240540 
	C407.703979,409.474243 390.657806,434.431671 359.268311,449.792694 
	C351.295593,453.694275 342.737671,455.791382 333.831207,456.510742 
	C326.748779,457.082794 326.361694,457.682526 326.357635,464.727051 
	C326.353821,471.391937 326.600983,478.068298 326.283844,484.717957 
	C326.045990,489.706146 328.072906,491.049194 332.788910,490.826447 
	C347.809723,490.117004 361.996552,486.363892 376.235382,479.682770 
M278.625763,333.500122 
	C278.625397,313.007751 278.472382,292.513428 278.733185,272.024384 
	C278.797485,266.970734 277.043121,264.846100 272.170776,264.096252 
	C265.279755,263.035645 258.474396,261.414429 251.637207,260.009491 
	C244.587097,258.560791 244.287445,258.756348 244.283295,266.003571 
	C244.262680,301.990112 244.405930,337.977356 244.212540,373.962891 
	C244.101730,394.581940 250.966904,412.475952 264.341980,427.892426 
	C278.134796,443.790375 295.795898,452.719849 316.565308,455.524170 
	C323.511536,456.462067 324.925568,455.477661 324.946411,449.977539 
	C325.057007,420.822296 325.019928,391.666412 325.169617,362.511475 
	C325.194305,357.706451 323.248840,356.160248 318.543457,356.261993 
	C306.886719,356.514008 295.219604,356.245300 283.559021,356.384644 
	C279.946320,356.427826 278.447968,355.221344 278.585602,351.491608 
	C278.794312,345.834961 278.630890,340.164612 278.625763,333.500122 
M326.361359,173.161987 
	C326.359619,182.657471 326.668182,192.167191 326.233032,201.642761 
	C325.994049,206.846375 328.198608,208.620102 332.835022,209.545197 
	C373.251495,217.609360 413.651154,225.759521 454.018433,234.065842 
	C458.426514,234.972900 459.825775,233.726135 459.772980,229.486771 
	C459.654816,219.992661 459.599426,210.493973 459.773621,201.001831 
	C459.848785,196.906845 458.213959,195.007721 454.218719,194.235321 
	C441.333405,191.744171 428.505585,188.957474 415.637207,186.376328 
	C408.134644,184.871460 408.134613,184.950150 408.132996,177.059174 
	C408.128418,154.903015 408.132446,132.746826 408.082001,110.590744 
	C408.067505,104.231468 407.209534,103.425201 400.841919,103.384392 
	C394.178650,103.341690 387.514832,103.347008 380.851440,103.372597 
	C374.796997,103.395851 374.363831,103.819221 374.357880,109.984962 
	C374.338348,130.308670 374.364594,150.632446 374.331268,170.956131 
	C374.328094,172.907532 374.751282,174.947754 373.692291,176.799118 
	C371.865112,177.744934 370.120331,177.177734 368.329468,176.806015 
	C356.453461,174.340805 344.587555,171.816635 332.667694,169.581833 
	C330.347900,169.146912 326.628021,167.292313 326.361359,173.161987 
M287.926056,277.585480 
	C287.912750,289.250793 287.958588,300.916656 287.850433,312.581085 
	C287.817657,316.119598 288.792603,318.921051 291.406982,321.482361 
	C301.405609,331.278015 311.217194,341.264343 321.132935,351.145081 
	C322.002441,352.011505 322.680115,353.433228 324.417450,352.970337 
	C324.559265,352.485596 324.816071,352.015839 324.817108,351.545532 
	C324.870575,327.385132 324.869385,303.224579 324.970734,279.064453 
	C324.986511,275.304077 322.660461,274.280365 319.682373,273.690033 
	C312.182190,272.203278 304.690704,270.670685 297.178833,269.245544 
	C288.312927,267.563538 287.995850,267.851105 287.926056,277.585480 
z"/>
<path fill="#000000" opacity="1.000000" stroke="none" 
	d="
M163.814545,469.912750 
	C159.476913,472.437744 155.410797,474.705444 151.442612,477.133240 
	C148.902252,478.687469 147.233795,478.190186 145.774109,475.618286 
	C139.539810,464.633698 133.250092,453.680115 126.903946,442.759796 
	C125.392822,440.159515 125.991104,438.595154 128.543518,437.140411 
	C139.517242,430.885803 150.446701,424.552185 161.334595,418.149231 
	C164.222321,416.451019 165.976135,416.816559 167.712692,419.873444 
	C173.705093,430.421936 179.843170,440.891266 186.132797,451.265259 
	C188.236832,454.735626 187.315155,456.497772 184.005234,458.291199 
	C177.286957,461.931366 170.743225,465.893738 163.814545,469.912750 
z"/>
<path fill="#000000" opacity="1.000000" stroke="none" 
	d="
M228.635681,516.703735 
	C230.380386,513.640015 232.187973,511.003387 233.469406,508.131958 
	C235.350510,503.916779 237.709778,504.015076 241.282349,506.189606 
	C251.369324,512.329346 261.562286,518.301880 271.837921,524.120544 
	C275.014832,525.919495 275.581055,527.480835 273.634003,530.743286 
	C267.327393,541.310547 261.288574,552.039368 255.260101,562.769714 
	C253.596603,565.730591 251.990891,566.892883 248.603226,564.863953 
	C238.188141,558.626404 227.662079,552.568481 217.069107,546.637207 
	C213.872070,544.847168 213.299179,543.043396 215.188187,539.898743 
	C219.727158,532.342834 224.052048,524.658386 228.635681,516.703735 
z"/>
<path fill="#000000" opacity="1.000000" stroke="none" 
	d="
M138.999695,305.655853 
	C144.321960,305.660767 149.148575,305.790070 153.965347,305.627533 
	C157.267807,305.516113 158.964920,306.673920 158.947723,310.134644 
	C158.889038,321.940338 158.882156,333.746399 158.887436,345.552307 
	C158.888718,348.419830 157.605560,349.823883 154.676483,349.816345 
	C142.039398,349.783844 129.402191,349.799438 116.765030,349.793823 
	C113.930244,349.792572 112.610573,348.540985 112.635208,345.531464 
	C112.731804,333.725769 112.749321,321.917999 112.627480,310.112762 
	C112.590019,306.483582 114.343384,305.594177 117.547813,305.642914 
	C124.530281,305.749115 131.515656,305.663239 138.999695,305.655853 
z"/>
</svg>