<svg version="1.1" id="Layer_1" xmlns="http://www.w3.org/2000/svg" xmlns:xlink="http://www.w3.org/1999/xlink" x="0px" y="0px"
	 width="100%" viewBox="0 0 629 629" enable-background="new 0 0 629 629" xml:space="preserve">
<path fill="#FEFFFE" opacity="1.000000" stroke="none" 
	d="
M337.000000,1.000000 
	C434.593597,1.000000 532.187195,1.000000 630.000000,1.000000 
	C630.000000,98.020782 630.000000,195.041733 629.602905,292.354492 
	C628.137939,283.308350 627.318542,273.933929 625.956848,264.638977 
	C621.357239,233.240906 611.990051,203.196152 597.107056,175.260406 
	C587.305237,156.862350 575.268066,139.655212 564.076050,121.611710 
	C561.242004,118.194092 558.563660,115.079544 555.899292,111.693939 
	C555.624573,111.212875 555.335693,111.002884 554.941406,110.487389 
	C552.957397,108.437256 551.078918,106.692635 549.105835,104.606812 
	C535.638000,91.643494 522.947937,78.181114 508.718781,66.611618 
	C490.860687,52.091446 471.040833,40.277565 450.085297,30.535042 
	C443.211914,27.339497 436.320282,25.200422 428.591309,28.953182 
	C419.563995,33.117687 415.108887,40.468765 415.383911,49.554882 
	C415.651031,58.379887 419.999481,65.632210 429.234436,69.229187 
	C440.934692,75.762383 452.420685,82.014481 464.088104,88.543701 
	C475.111298,97.074379 485.953033,105.327927 496.934448,113.865395 
	C505.634857,122.797264 514.195679,131.445221 522.858154,140.424759 
	C526.737854,145.600174 530.635132,150.356247 534.274231,155.302307 
	C555.348022,183.945297 570.055115,215.597626 578.911987,250.443619 
	C578.999146,251.522430 578.865723,252.229004 579.040100,252.849030 
	C584.549133,272.438507 585.954285,292.608978 586.815369,312.758728 
	C587.226501,322.379700 585.849182,332.101532 584.949829,341.746704 
	C584.149292,350.332550 583.647400,359.055542 581.664856,367.397430 
	C578.331421,381.423859 575.028687,395.636505 569.694336,408.962769 
	C563.154114,425.301331 555.470093,441.353241 546.597534,456.546173 
	C533.821777,478.422668 517.974487,498.139526 498.664032,514.798523 
	C490.378296,521.946655 482.311646,529.457275 473.405182,535.756531 
	C449.130310,552.925476 422.817139,566.221008 394.312378,574.950500 
	C375.698395,580.650879 356.609467,584.201599 337.264374,585.837341 
	C326.506470,586.746887 315.607239,585.892395 304.774078,586.025879 
	C288.181122,586.230347 271.968384,583.374146 255.854126,579.956665 
	C227.142105,573.867615 200.296982,562.664429 175.368256,547.497803 
	C153.782837,534.365173 133.538361,519.106140 117.140617,499.537720 
	C107.436859,487.957581 97.914520,476.170197 89.146721,463.879578 
	C82.831566,455.027100 77.896202,445.190277 72.250412,435.444916 
	C67.108444,423.063599 62.061451,411.029877 56.994808,398.602020 
	C54.247238,387.469391 51.519321,376.730896 48.853203,365.585327 
	C47.465420,352.445679 46.015839,339.713135 44.665298,326.564514 
	C45.404976,310.760620 46.045605,295.372833 46.796188,279.567017 
	C46.944744,277.986816 46.775608,276.772339 47.052990,275.670258 
	C51.461784,258.153595 55.927765,240.651321 60.617058,222.875549 
	C67.247513,204.426147 75.809097,187.286713 86.233078,171.122635 
	C92.192307,161.881866 98.790726,153.053314 105.411087,143.912918 
	C113.781700,135.290604 121.571838,126.516563 129.954880,118.351265 
	C153.933990,94.995018 181.868332,77.616760 212.665253,64.724182 
	C230.491455,57.261570 248.942169,51.915527 268.368713,48.525589 
	C277.035248,47.284096 285.319946,46.142437 294.167114,44.923264 
	C294.167114,52.857086 294.167114,60.425575 294.087585,68.457138 
	C294.063019,81.944649 294.117981,94.969101 294.097565,108.380585 
	C295.808929,112.572563 296.991455,116.847878 299.510040,120.083054 
	C304.521454,126.520294 314.843079,128.725601 322.901550,125.914871 
	C330.485474,123.269653 336.804413,115.604416 336.941620,108.394798 
	C337.083679,100.931213 336.883789,93.461113 336.906555,85.530670 
	C336.930542,72.043037 336.881439,59.018600 336.906036,45.531029 
	C336.932037,33.708630 336.884338,22.349367 336.912018,10.542160 
	C336.991608,7.062811 336.995789,4.031405 337.000000,1.000000 
M554.728638,405.731476 
	C557.392334,395.327911 560.056030,384.924316 562.810303,374.167023 
	C558.572327,374.167023 555.788513,374.167023 552.126404,374.016418 
	C549.752686,374.066559 547.378967,374.116699 544.170227,374.015961 
	C541.115601,373.733246 538.060913,373.450531 534.199951,373.016235 
	C531.135559,372.400085 528.071228,371.783936 524.186890,371.017273 
	C520.469482,370.305084 516.752014,369.592896 512.670837,368.231964 
	C509.449219,367.210663 506.227570,366.189362 502.276978,365.008057 
	C499.186035,363.727966 496.095123,362.447845 492.366974,360.857758 
	C489.579498,359.294495 486.792023,357.731232 483.380585,355.861969 
	C480.954498,354.224426 478.528381,352.586884 475.809845,350.319000 
	C471.907959,347.529297 468.006073,344.739594 463.818024,341.329742 
	C459.912384,338.202026 456.006775,335.074280 451.814758,331.326782 
	C447.543091,327.940186 443.271423,324.553589 438.371002,320.855560 
	C434.483856,318.230591 430.596680,315.605621 426.138580,312.595123 
	C425.395660,336.304504 427.776764,358.797119 422.379700,381.495697 
	C417.564178,392.617065 412.748657,403.738403 407.366028,415.234619 
	C402.600372,421.205200 397.834717,427.175812 392.476868,433.387634 
	C390.968231,434.892090 389.459595,436.396545 387.337097,438.129150 
	C385.893097,439.426208 384.449097,440.723267 382.370880,442.206024 
	C380.580780,443.510284 378.790649,444.814545 376.347412,446.214844 
	C374.566071,447.541138 372.784698,448.867432 370.375244,450.321472 
	C368.918121,451.234985 367.460999,452.148499 365.357727,453.127777 
	C364.238190,453.773651 363.118622,454.419525 361.322693,455.147430 
	C359.523682,456.029083 357.724640,456.910736 355.240997,457.866882 
	C353.792633,458.478821 352.344269,459.090729 350.177582,459.798340 
	C348.395630,460.385956 346.613678,460.973572 344.110809,461.658966 
	C342.741058,462.095276 341.371307,462.531555 339.259338,462.931519 
	C337.839050,463.300934 336.418793,463.670319 334.230194,463.968140 
	C332.486420,464.324554 330.742676,464.680969 328.214600,464.936279 
	C326.445129,465.194397 324.675659,465.452515 322.063324,465.615753 
	C320.375641,465.762634 318.687927,465.909485 316.123932,465.889557 
	C313.749237,465.945709 311.374542,466.001862 308.191071,465.865845 
	C305.460266,465.632874 302.729462,465.399902 299.196045,464.983093 
	C296.464203,464.636261 293.732391,464.289398 290.372528,463.534698 
	C287.246277,462.765259 284.119995,461.995819 280.286255,460.949158 
	C276.909393,459.762115 273.532562,458.575073 269.623138,457.013794 
	C266.746521,455.722198 263.869873,454.430603 260.456116,452.700836 
	C257.645111,451.118073 254.834091,449.535278 251.675659,447.382019 
	C249.066833,445.606232 246.457993,443.830444 243.519623,441.489014 
	C238.996445,437.372040 234.473251,433.255035 229.705292,428.504944 
	C226.505768,424.578461 223.306244,420.651947 219.976837,416.059113 
	C217.028656,411.025757 214.080475,405.992401 211.033234,400.223755 
	C208.478012,392.744141 205.922775,385.264526 203.300323,376.942841 
	C202.834579,374.006378 202.083969,371.082611 201.952759,368.131287 
	C201.402435,355.752563 201.037552,343.365601 200.782547,330.063629 
	C201.863983,312.020020 200.220383,294.287231 194.732437,276.237793 
	C194.155869,274.761322 193.418976,273.325562 193.031784,271.800995 
	C191.690842,266.520996 190.471542,261.210144 189.109695,255.120453 
	C188.073318,252.807068 186.743973,250.576675 186.060303,248.163391 
	C184.543076,242.807678 183.349655,237.360229 181.983002,231.172470 
	C178.368729,222.995056 174.754456,214.817627 171.015106,205.981888 
	C163.027496,194.425903 154.134491,193.650513 146.336304,204.177368 
	C142.878433,210.111740 139.420563,216.046097 135.366913,222.363235 
	C132.241043,230.572845 129.115189,238.782455 125.404778,247.434082 
	C125.035034,248.514954 124.655159,249.592484 124.297142,250.677216 
	C121.187500,260.098938 118.081772,269.522003 114.373962,279.352936 
	C109.897499,290.893799 105.421043,302.434631 100.355293,314.353455 
	C94.890884,325.562378 89.426476,336.771332 83.375648,348.323914 
	C80.104630,353.307343 77.643173,359.165405 73.397247,363.095612 
	C64.011787,371.783051 63.653584,381.284241 68.012276,392.242371 
	C73.521851,406.093933 78.707443,420.074310 84.025307,434.761902 
	C87.332390,441.057800 90.280479,447.577972 94.038101,453.592407 
	C98.657570,460.986298 103.952621,467.958099 109.011452,475.812714 
	C113.659538,481.245697 118.307632,486.678680 123.224747,492.728210 
	C127.113884,496.834259 131.003021,500.940277 135.201263,505.666199 
	C136.732605,506.874908 138.274048,508.071106 139.792999,509.295166 
	C142.188232,511.225464 144.568314,513.174561 147.221649,515.735596 
	C151.779205,519.174683 156.336746,522.613708 161.171310,526.689087 
	C165.413269,529.476746 169.655228,532.264404 174.183273,535.698975 
	C178.087906,537.816833 181.992538,539.934631 186.187622,542.701843 
	C190.124008,544.745483 194.060394,546.789062 198.651886,549.146240 
	C201.732803,550.447876 204.813736,551.749512 208.231415,553.697388 
	C211.820190,555.076050 215.408981,556.454712 219.663254,558.157043 
	C222.407257,559.122803 225.151276,560.088562 228.270630,561.720337 
	C232.845566,563.091003 237.420517,564.461609 242.769638,565.995178 
	C245.512390,566.607727 248.255142,567.220337 251.697281,568.187683 
	C254.463989,568.736023 257.230682,569.284363 260.713593,570.202026 
	C263.808167,570.745789 266.902771,571.289551 270.823303,571.978638 
	C273.868011,572.357117 276.912689,572.735596 280.420197,573.802429 
	C283.945618,574.145874 287.471008,574.489319 291.888245,574.972717 
	C294.591492,574.926147 297.294769,574.879517 300.849854,574.971313 
	C303.566071,575.258484 306.282257,575.545654 309.866302,575.970825 
	C312.591797,575.685608 315.317291,575.400330 318.865570,575.019714 
	C320.242554,574.958130 321.619537,574.896484 323.845123,574.974854 
	C325.562225,574.927917 327.279358,574.881042 329.845215,574.972534 
	C331.561768,574.925964 333.278320,574.879395 335.737701,574.951233 
	C337.158081,574.578674 338.578461,574.206116 340.847778,573.969910 
	C342.564117,573.924255 344.280457,573.878601 346.728394,573.713623 
	C348.151978,573.420227 349.575531,573.126831 351.742188,572.965271 
	C353.161804,572.587952 354.581390,572.210571 356.776947,571.966431 
	C358.517487,571.588501 360.258026,571.210510 362.741821,570.963745 
	C364.160767,570.586914 365.579681,570.210083 367.710999,569.964905 
	C368.808136,569.587341 369.905273,569.209839 371.772369,568.962341 
	C373.880707,568.327393 375.989044,567.692444 378.869659,567.007812 
	C380.580078,566.616394 382.290466,566.224976 384.706573,565.949158 
	C386.149353,565.339966 387.592102,564.730835 389.778290,564.016846 
	C391.187347,563.622192 392.596375,563.227478 394.738190,562.709351 
	C399.824799,560.750793 404.911438,558.792236 410.743103,556.953613 
	C415.507599,554.676208 420.272125,552.398804 425.766357,550.002441 
	C430.191559,547.706360 434.616730,545.410278 439.762360,543.001099 
	C443.876038,540.351196 447.989716,537.701294 452.817413,534.987854 
	C456.579224,532.342346 460.341034,529.696899 464.805328,526.988708 
	C468.571716,524.008606 472.338104,521.028503 476.721283,517.773499 
	C479.160980,515.553101 481.600647,513.332703 484.665588,510.823425 
	C487.455627,508.255127 490.245667,505.686829 493.648834,502.835022 
	C497.134949,499.239197 500.621033,495.643341 504.709869,491.733704 
	C507.818542,487.862305 510.927216,483.990936 514.654053,479.796936 
	C518.379944,474.519287 522.105835,469.241638 526.142700,463.334625 
	C529.799011,457.238617 533.455261,451.142609 537.741272,444.717682 
	C540.530457,438.827484 543.319580,432.937256 546.762085,426.690033 
	C547.168396,425.488464 547.558411,424.281067 547.983826,423.086304 
	C549.999084,417.425568 552.024048,411.768311 554.728638,405.731476 
M416.471802,197.354218 
	C407.380676,195.542755 398.304596,193.649750 389.189423,191.968582 
	C386.384277,191.451218 385.318268,190.267792 385.450439,187.350296 
	C385.621918,183.564728 385.284668,179.756119 385.443481,175.068329 
	C385.352417,165.051468 385.261353,155.034622 385.455627,144.120163 
	C385.455627,136.204224 385.455627,128.288284 385.455627,120.391312 
	C374.948914,120.391312 365.177765,120.391312 355.166290,120.391312 
	C355.166290,134.088654 355.166290,147.543762 355.014282,161.925339 
	C355.014282,169.491547 355.014282,177.057770 355.014282,184.595764 
	C345.177155,182.939407 335.778473,181.589005 326.479095,179.739227 
	C310.626251,176.585907 294.835846,173.118942 278.372223,169.329422 
	C273.338928,169.443390 272.198334,166.887939 272.379059,162.132751 
	C272.777405,151.653152 272.514435,141.148376 272.520264,130.653885 
	C272.522156,127.233635 272.520569,123.813385 272.520569,120.485596 
	C261.859131,120.485596 251.949142,120.485596 241.673325,120.485596 
	C241.673325,134.408920 241.673325,147.995102 241.673325,161.888519 
	C226.615463,158.843338 211.977737,155.883133 197.173752,152.889297 
	C197.173752,164.876709 197.173752,176.594604 197.173752,188.456146 
	C211.320786,191.258545 225.154694,193.998901 239.739105,197.018311 
	C252.539688,199.636536 265.329681,202.308029 278.143707,204.858566 
	C292.083466,207.633194 306.045532,210.295517 320.637970,213.414459 
	C339.422028,217.187424 358.206085,220.960388 377.757690,225.009430 
	C395.080414,228.529495 412.403168,232.049561 429.939819,235.613098 
	C429.939819,223.436722 429.939819,211.855911 429.939819,200.020370 
	C425.532715,199.263077 421.303101,198.536301 416.471802,197.354218 
M211.528488,264.889221 
	C211.625687,280.574615 211.722900,296.259979 211.512680,312.841888 
	C211.497086,326.974487 211.347748,341.108917 211.542633,355.238617 
	C211.605927,359.827484 212.569565,364.403931 213.009552,369.816437 
	C213.040192,370.481262 212.993210,371.160339 213.112503,371.808838 
	C222.916214,425.101135 273.131195,461.450928 326.924896,454.207794 
	C377.702728,447.370758 415.169403,404.502563 415.170685,353.239288 
	C415.171173,333.090271 415.170776,312.941284 415.170776,292.792267 
	C415.170776,291.193024 415.170776,289.593781 415.170776,287.579590 
	C420.419373,288.514954 425.076202,289.344879 429.892181,290.203156 
	C429.892181,278.175629 429.892181,266.614380 429.892181,254.626038 
	C417.798950,252.419220 405.895569,250.247055 393.440399,247.538818 
	C374.623718,243.758118 355.807007,239.977402 336.230713,235.959152 
	C317.519287,232.210953 298.807892,228.462769 279.476440,224.279144 
	C252.079254,218.764465 224.682068,213.249786 197.121246,207.702179 
	C197.121246,219.875732 197.121246,231.418213 197.121246,243.029419 
	C202.040771,244.123001 206.686615,245.155762 211.831253,246.299377 
	C211.831253,252.429352 211.831253,258.215607 211.528488,264.889221 
z"/>
<path fill="#000000" opacity="1.000000" stroke="none" 
	d="
M72.345398,435.792542 
	C77.896202,445.190277 82.831566,455.027100 89.146721,463.879578 
	C97.914520,476.170197 107.436859,487.957581 117.140617,499.537720 
	C133.538361,519.106140 153.782837,534.365173 175.368256,547.497803 
	C200.296982,562.664429 227.142105,573.867615 255.854126,579.956665 
	C271.968384,583.374146 288.181122,586.230347 304.774078,586.025879 
	C315.607239,585.892395 326.506470,586.746887 337.264374,585.837341 
	C356.609467,584.201599 375.698395,580.650879 394.312378,574.950500 
	C422.817139,566.221008 449.130310,552.925476 473.405182,535.756531 
	C482.311646,529.457275 490.378296,521.946655 498.664032,514.798523 
	C517.974487,498.139526 533.821777,478.422668 546.597534,456.546173 
	C555.470093,441.353241 563.154114,425.301331 569.694336,408.962769 
	C575.028687,395.636505 578.331421,381.423859 581.664856,367.397430 
	C583.647400,359.055542 584.149292,350.332550 584.949829,341.746704 
	C585.849182,332.101532 587.226501,322.379700 586.815369,312.758728 
	C585.954285,292.608978 584.549133,272.438507 579.040100,252.849030 
	C578.865723,252.229004 578.999146,251.522430 579.268311,250.440125 
	C580.498718,250.661209 581.547974,251.190323 582.386230,251.951645 
	C596.196106,264.493469 607.504272,279.028015 615.773193,295.721466 
	C620.987000,306.247375 625.289001,317.225006 630.000000,328.000000 
	C630.000000,331.361298 630.000000,334.722565 629.595215,338.703827 
	C627.462280,352.386841 626.197510,365.531769 623.906189,378.495300 
	C619.609741,402.803375 612.098389,426.236969 601.050720,448.279755 
	C593.144104,464.055542 584.619690,479.687866 574.686768,494.234253 
	C565.158142,508.188721 553.704163,520.873108 542.607971,533.693054 
	C537.331238,539.789612 531.213745,545.263123 524.958130,550.384949 
	C513.402771,559.845947 501.778351,569.281067 489.610687,577.921387 
	C472.907501,589.782288 454.651917,598.966248 435.693451,606.738220 
	C408.849762,617.742737 381.118286,625.207275 352.186798,628.034363 
	C347.769348,628.466064 343.394531,629.333923 339.000000,630.000000 
	C323.312439,630.000000 307.624878,630.000000 291.308594,629.596558 
	C277.953339,627.464294 265.152313,626.155945 252.516205,623.916687 
	C228.210815,619.609497 204.786560,612.093994 182.742630,601.065674 
	C166.964752,593.172119 151.342438,584.634766 136.797882,574.704468 
	C122.845840,565.178711 109.976730,553.927002 97.385994,542.595764 
	C88.843140,534.907471 81.500870,525.863220 73.802078,517.263916 
	C59.818016,501.644257 48.456108,484.136292 38.488754,465.806213 
	C26.808254,444.325653 17.552135,421.759979 11.540075,397.988556 
	C9.453235,389.737305 7.909875,381.348633 6.486819,373.080536 
	C8.200706,377.436279 9.546063,381.734161 10.932747,386.419189 
	C13.961007,397.564728 17.927605,407.824402 25.949348,416.394165 
	C26.597980,417.527863 27.070099,418.421112 27.746649,419.115082 
	C39.989742,431.672150 55.345589,435.937439 72.345398,435.792542 
z"/>
<path fill="#FFFFFF" opacity="1.000000" stroke="none" 
	d="
M1.000001,292.000000 
	C1.000000,195.072937 1.000000,98.145882 1.000000,1.000000 
	C97.687454,1.000000 194.375061,1.000000 291.369446,1.404780 
	C284.851074,2.538795 278.032501,3.337249 271.199493,3.983610 
	C254.240036,5.587871 237.849014,9.851247 221.645340,14.811394 
	C200.873581,21.169899 181.075424,29.806303 162.042694,40.362099 
	C140.084305,52.540482 119.780823,67.021751 101.610146,84.204956 
	C90.024933,95.160576 79.599915,107.394569 69.139587,119.475227 
	C55.979294,134.674133 45.540783,151.801178 36.207470,169.531403 
	C26.700842,187.590851 19.032047,206.462250 13.423869,226.126343 
	C8.496726,243.402527 4.488711,260.854614 2.955294,278.814331 
	C2.578024,283.233002 1.666122,287.605988 1.000001,292.000000 
z"/>
<path fill="#FFFFFF" opacity="1.000000" stroke="none" 
	d="
M6.118286,373.022705 
	C7.909875,381.348633 9.453235,389.737305 11.540075,397.988556 
	C17.552135,421.759979 26.808254,444.325653 38.488754,465.806213 
	C48.456108,484.136292 59.818016,501.644257 73.802078,517.263916 
	C81.500870,525.863220 88.843140,534.907471 97.385994,542.595764 
	C109.976730,553.927002 122.845840,565.178711 136.797882,574.704468 
	C151.342438,584.634766 166.964752,593.172119 182.742630,601.065674 
	C204.786560,612.093994 228.210815,619.609497 252.516205,623.916687 
	C265.152313,626.155945 277.953339,627.464294 290.839935,629.596558 
	C194.406143,630.000000 97.812286,630.000000 1.000000,630.000000 
	C1.000000,533.312561 1.000000,436.624939 1.404800,339.630554 
	C2.821637,347.910370 3.833673,356.496887 4.883341,365.452087 
	C4.986902,366.554779 5.052831,367.288849 5.063880,368.366394 
	C5.289677,369.502411 5.570355,370.294891 5.886895,371.412659 
	C5.987933,372.166199 6.053108,372.594452 6.118286,373.022705 
z"/>
<path fill="#FFFFFF" opacity="1.000000" stroke="none" 
	d="
M339.468658,630.000000 
	C343.394531,629.333923 347.769348,628.466064 352.186798,628.034363 
	C381.118286,625.207275 408.849762,617.742737 435.693451,606.738220 
	C454.651917,598.966248 472.907501,589.782288 489.610687,577.921387 
	C501.778351,569.281067 513.402771,559.845947 524.958130,550.384949 
	C531.213745,545.263123 537.331238,539.789612 542.607971,533.693054 
	C553.704163,520.873108 565.158142,508.188721 574.686768,494.234253 
	C584.619690,479.687866 593.144104,464.055542 601.050720,448.279755 
	C612.098389,426.236969 619.609741,402.803375 623.906189,378.495300 
	C626.197510,365.531769 627.462280,352.386841 629.595215,339.161896 
	C630.000000,435.927063 630.000000,532.854126 630.000000,630.000000 
	C533.312561,630.000000 436.624939,630.000000 339.468658,630.000000 
z"/>
<path fill="#343434" opacity="1.000000" stroke="none" 
	d="
M630.000000,327.531342 
	C625.289001,317.225006 620.987000,306.247375 615.773193,295.721466 
	C607.504272,279.028015 596.196106,264.493469 582.386230,251.951645 
	C581.547974,251.190323 580.498718,250.661209 579.191284,250.027527 
	C570.055115,215.597626 555.348022,183.945297 534.274231,155.302307 
	C530.635132,150.356247 526.737854,145.600174 523.289551,140.399200 
	C525.402466,139.814270 527.426025,140.050522 528.924744,139.273865 
	C533.914856,136.687881 538.596191,133.497116 543.620239,130.987457 
	C550.333252,127.634163 556.003601,121.832603 564.231812,121.914795 
	C575.268066,139.655212 587.305237,156.862350 597.107056,175.260406 
	C611.990051,203.196152 621.357239,233.240906 625.956848,264.638977 
	C627.318542,273.933929 628.137939,283.308350 629.602905,292.823181 
	C630.000000,304.354218 630.000000,315.708466 630.000000,327.531342 
z"/>
<path fill="#000000" opacity="1.000000" stroke="none" 
	d="
M4.845711,365.083435 
	C3.833673,356.496887 2.821637,347.910370 1.404800,339.161926 
	C1.000000,323.645782 1.000000,308.291534 1.000001,292.468658 
	C1.666122,287.605988 2.578024,283.233002 2.955294,278.814331 
	C4.488711,260.854614 8.496726,243.402527 13.423869,226.126343 
	C19.032047,206.462250 26.700842,187.590851 36.207470,169.531403 
	C45.540783,151.801178 55.979294,134.674133 69.139587,119.475227 
	C79.599915,107.394569 90.024933,95.160576 101.610146,84.204956 
	C119.780823,67.021751 140.084305,52.540482 162.042694,40.362099 
	C181.075424,29.806303 200.873581,21.169899 221.645340,14.811394 
	C237.849014,9.851247 254.240036,5.587871 271.199493,3.983610 
	C278.032501,3.337249 284.851074,2.538795 291.838135,1.404780 
	C306.687561,1.000000 321.375122,1.000000 336.531311,1.000000 
	C336.995789,4.031405 336.991608,7.062811 336.468414,10.546213 
	C332.967499,11.000510 329.985596,11.002811 326.534790,11.003020 
	C309.385406,12.012417 292.578827,12.097674 276.066437,14.344753 
	C264.058136,15.978906 251.672928,18.862570 240.812119,24.036385 
	C220.943787,33.501144 202.025223,44.976963 182.810272,55.791218 
	C162.139725,67.424690 141.685791,79.445717 120.944595,90.950142 
	C105.077156,99.751282 90.379669,109.784065 78.530357,123.831375 
	C63.605042,141.525269 50.413368,160.306152 39.862297,181.320358 
	C28.295660,202.305084 20.387053,224.355209 14.008220,247.411743 
	C9.617157,265.311371 5.908403,282.923981 5.022731,301.462402 
	C4.674200,315.223969 4.300218,328.536499 4.050154,341.851410 
	C4.017935,343.566986 4.628079,345.294586 4.948408,347.479126 
	C5.153845,352.013916 5.439276,356.084717 5.506175,360.159119 
	C5.533059,361.796509 5.080214,363.441772 4.845711,365.083435 
z"/>
<path fill="#020202" opacity="1.000000" stroke="none" 
	d="
M393.992218,248.074890 
	C405.895569,250.247055 417.798950,252.419220 429.892181,254.626038 
	C429.892181,266.614380 429.892181,278.175629 429.892181,290.203156 
	C425.076202,289.344879 420.419373,288.514954 415.170776,287.579590 
	C415.170776,289.593781 415.170776,291.193024 415.170776,292.792267 
	C415.170776,312.941284 415.171173,333.090271 415.170685,353.239288 
	C415.169403,404.502563 377.702728,447.370758 326.924896,454.207794 
	C273.131195,461.450928 222.916214,425.101135 213.112503,371.808838 
	C212.993210,371.160339 213.040192,370.481262 213.425018,369.435577 
	C218.247803,366.178162 222.638168,363.275146 227.067001,360.432068 
	C231.994080,357.269196 236.956177,354.160858 241.946960,351.483459 
	C242.302734,390.814941 269.709198,420.759857 308.273865,424.360382 
	C344.949310,427.784546 381.254303,398.765411 383.810516,362.164886 
	C385.569641,336.977203 384.591095,311.598236 384.832794,286.304749 
	C384.848450,284.666504 384.834839,283.027954 384.834839,281.212189 
	C373.494904,278.943268 362.538300,276.751068 351.037689,274.450012 
	C351.037689,291.358368 351.037689,307.409485 351.037689,323.463959 
	C340.537537,313.199585 330.245270,303.138428 320.087585,292.758789 
	C322.463379,290.763153 324.731140,289.120178 326.939301,287.400635 
	C329.997406,285.019196 333.010681,282.580139 336.467804,280.079437 
	C338.837982,279.877625 340.783508,279.762146 342.759186,279.644867 
	C342.939270,278.305664 343.090820,277.178497 343.599609,276.057281 
	C344.441254,275.950684 344.980591,275.939423 345.402283,275.710999 
	C361.038147,267.241638 376.670471,258.765656 392.266907,250.224091 
	C393.011139,249.816498 393.424683,248.805084 393.992218,248.074890 
z"/>
<path fill="#070707" opacity="1.000000" stroke="none" 
	d="
M40.002640,181.002899 
	C50.413368,160.306152 63.605042,141.525269 78.530357,123.831375 
	C90.379669,109.784065 105.077156,99.751282 120.944595,90.950142 
	C141.685791,79.445717 162.139725,67.424690 182.810272,55.791218 
	C202.025223,44.976963 220.943787,33.501144 240.812119,24.036385 
	C251.672928,18.862570 264.058136,15.978906 276.066437,14.344753 
	C292.578827,12.097674 309.385406,12.012417 326.495728,11.352087 
	C325.500000,13.012253 324.260925,14.650594 322.620178,15.579443 
	C305.720551,25.146553 288.727905,34.549637 271.854736,44.162674 
	C270.241547,45.081738 269.261078,47.111355 267.986877,48.625420 
	C248.942169,51.915527 230.491455,57.261570 212.665253,64.724182 
	C181.868332,77.616760 153.933990,94.995018 129.954880,118.351265 
	C121.571838,126.516563 113.781700,135.290604 105.038162,143.908157 
	C98.150856,147.725067 91.980118,151.478897 85.734512,155.103729 
	C72.666481,162.688202 59.567879,170.220184 46.458591,177.733185 
	C44.368488,178.931046 42.157661,179.918289 40.002640,181.002899 
z"/>
<path fill="#252525" opacity="1.000000" stroke="none" 
	d="
M319.997894,213.006775 
	C306.045532,210.295517 292.083466,207.633194 278.143707,204.858566 
	C265.329681,202.308029 252.539688,199.636536 239.410980,196.545364 
	C240.393066,194.879990 241.543655,193.415192 243.039062,192.538681 
	C253.892593,186.177002 264.846466,179.986145 275.678406,173.588501 
	C277.059357,172.772873 277.918396,171.073624 279.019226,169.783752 
	C294.835846,173.118942 310.626251,176.585907 326.479095,179.739227 
	C335.778473,181.589005 345.177155,182.939407 355.014282,184.595764 
	C355.014282,177.057770 355.014282,169.491547 355.435791,161.419281 
	C359.435089,158.918182 362.991425,156.883362 366.595490,154.936890 
	C372.771332,151.601425 378.977081,148.321182 385.170288,145.017761 
	C385.261353,155.034622 385.352417,165.051468 384.956543,175.526260 
	C383.211731,176.273605 381.797424,176.285828 380.719452,176.894058 
	C364.749634,185.904343 348.773834,194.906570 332.920776,204.119553 
	C328.413757,206.738800 324.294800,210.025925 319.997894,213.006775 
z"/>
<path fill="#2B2B2B" opacity="1.000000" stroke="none" 
	d="
M211.820099,311.945374 
	C211.722900,296.259979 211.625687,280.574615 212.017822,264.441132 
	C214.495712,263.242065 216.625259,262.739227 218.450958,261.701721 
	C236.696472,251.333130 254.921432,240.927246 273.068146,230.387207 
	C275.641144,228.892746 277.764832,226.624619 280.096466,224.714569 
	C298.807892,228.462769 317.519287,232.210953 336.604492,236.438721 
	C335.847382,238.184784 334.946442,239.851364 333.549194,240.654373 
	C322.611145,246.940491 311.548798,253.010361 300.609100,259.293701 
	C299.163208,260.124146 298.192841,261.782471 296.580139,263.089172 
	C293.890656,262.739166 291.623230,262.357391 288.609283,261.849915 
	C288.609283,265.752380 288.609283,269.365234 288.246399,272.978424 
	C285.609283,273.651337 283.335022,274.323883 280.970978,274.537476 
	C280.881195,269.466553 280.881195,264.854614 280.881195,260.220551 
	C267.754791,257.528992 255.125244,254.939331 241.834824,252.214157 
	C241.834824,267.495117 241.834824,282.242157 241.468689,297.000427 
	C238.879120,298.027191 236.608154,298.951019 234.440826,300.074768 
	C226.881226,303.994293 219.357468,307.982971 211.820099,311.945374 
z"/>
<path fill="#1A1A1A" opacity="1.000000" stroke="none" 
	d="
M278.695740,169.556580 
	C277.918396,171.073624 277.059357,172.772873 275.678406,173.588501 
	C264.846466,179.986145 253.892593,186.177002 243.039062,192.538681 
	C241.543655,193.415192 240.393066,194.879990 239.035736,196.405838 
	C225.154694,193.998901 211.320786,191.258545 197.173752,188.456146 
	C197.173752,176.594604 197.173752,164.876709 197.173752,152.889297 
	C211.977737,155.883133 226.615463,158.843338 241.673325,161.888519 
	C241.673325,147.995102 241.673325,134.408920 241.673325,120.485596 
	C251.949142,120.485596 261.859131,120.485596 272.520569,120.485596 
	C272.520569,123.813385 272.522156,127.233635 272.520264,130.653885 
	C272.514435,141.148376 272.777405,151.653152 272.379059,162.132751 
	C272.198334,166.887939 273.338928,169.443390 278.695740,169.556580 
z"/>
<path fill="#F9BB0E" opacity="1.000000" stroke="none" 
	d="
M439.041931,543.114197 
	C434.616730,545.410278 430.191559,547.706360 425.390320,549.584961 
	C425.009491,496.058167 425.039154,442.948761 424.908539,389.839752 
	C424.901215,386.870392 423.570618,383.904297 422.855896,380.936676 
	C427.776764,358.797119 425.395660,336.304504 426.138580,312.595123 
	C430.596680,315.605621 434.483856,318.230591 438.685486,321.468628 
	C439.013977,395.759216 439.027954,469.436707 439.041931,543.114197 
z"/>
<path fill="#0E0E0E" opacity="1.000000" stroke="none" 
	d="
M39.862297,181.320358 
	C42.157661,179.918289 44.368488,178.931046 46.458591,177.733185 
	C59.567879,170.220184 72.666481,162.688202 85.734512,155.103729 
	C91.980118,151.478897 98.150856,147.725067 104.728432,144.034424 
	C98.790726,153.053314 92.192307,161.881866 86.233078,171.122635 
	C75.809097,187.286713 67.247513,204.426147 60.222313,222.838776 
	C58.937168,223.151627 58.173409,223.038345 57.645397,223.339050 
	C47.833298,228.926849 38.107742,234.669418 28.233467,240.144028 
	C23.639269,242.691193 18.767864,244.738373 14.022119,247.012207 
	C20.387053,224.355209 28.295660,202.305084 39.862297,181.320358 
z"/>
<path fill="#F7AF12" opacity="1.000000" stroke="none" 
	d="
M439.402161,543.057617 
	C439.027954,469.436707 439.013977,395.759216 438.999878,321.624359 
	C443.271423,324.553589 447.543091,327.940186 451.643982,331.922577 
	C451.315491,333.823029 451.020233,335.127655 451.019775,336.432373 
	C450.997253,401.093781 450.992401,465.755157 451.046173,530.416504 
	C451.047455,531.961731 451.735596,533.506470 452.103394,535.051392 
	C447.989716,537.701294 443.876038,540.351196 439.402161,543.057617 
z"/>
<path fill="#FCC90B" opacity="1.000000" stroke="none" 
	d="
M422.617798,381.216187 
	C423.570618,383.904297 424.901215,386.870392 424.908539,389.839752 
	C425.039154,442.948761 425.009491,496.058167 425.025452,549.644409 
	C420.272125,552.398804 415.507599,554.676208 410.370941,556.470215 
	C409.665833,546.867432 409.074249,537.748840 409.045654,528.628540 
	C408.933838,492.972198 409.019409,457.315308 408.954254,421.658752 
	C408.950104,419.391815 408.288757,417.126038 407.933167,414.859741 
	C412.748657,403.738403 417.564178,392.617065 422.617798,381.216187 
z"/>
<path fill="#232323" opacity="1.000000" stroke="none" 
	d="
M279.786438,224.496857 
	C277.764832,226.624619 275.641144,228.892746 273.068146,230.387207 
	C254.921432,240.927246 236.696472,251.333130 218.450958,261.701721 
	C216.625259,262.739227 214.495712,263.242065 212.169220,263.997437 
	C211.831253,258.215607 211.831253,252.429352 211.831253,246.299377 
	C206.686615,245.155762 202.040771,244.123001 197.121246,243.029419 
	C197.121246,231.418213 197.121246,219.875732 197.121246,207.702179 
	C224.682068,213.249786 252.079254,218.764465 279.786438,224.496857 
z"/>
<path fill="#F6A415" opacity="1.000000" stroke="none" 
	d="
M452.460388,535.019653 
	C451.735596,533.506470 451.047455,531.961731 451.046173,530.416504 
	C450.992401,465.755157 450.997253,401.093781 451.019775,336.432373 
	C451.020233,335.127655 451.315491,333.823029 451.787170,332.232452 
	C456.006775,335.074280 459.912384,338.202026 463.646179,341.924561 
	C463.316223,343.823914 463.020355,345.128326 463.019836,346.432892 
	C462.996979,405.094055 462.991608,463.755219 463.046234,522.416321 
	C463.047668,523.961670 463.735229,525.506409 464.102844,527.051392 
	C460.341034,529.696899 456.579224,532.342346 452.460388,535.019653 
z"/>
<path fill="#2C2C2C" opacity="1.000000" stroke="none" 
	d="
M320.317932,213.210617 
	C324.294800,210.025925 328.413757,206.738800 332.920776,204.119553 
	C348.773834,194.906570 364.749634,185.904343 380.719452,176.894058 
	C381.797424,176.285828 383.211731,176.273605 384.817993,175.970810 
	C385.284668,179.756119 385.621918,183.564728 385.450439,187.350296 
	C385.318268,190.267792 386.384277,191.451218 389.189423,191.968582 
	C398.304596,193.649750 407.380676,195.542755 416.713379,197.936020 
	C415.758759,199.613373 414.714752,200.973984 413.342072,201.762283 
	C402.989319,207.707458 392.515167,213.443390 382.222717,219.489532 
	C380.162659,220.699707 378.718353,222.958206 376.990112,224.733337 
	C358.206085,220.960388 339.422028,217.187424 320.317932,213.210617 
z"/>
<path fill="#161616" opacity="1.000000" stroke="none" 
	d="
M14.008223,247.411743 
	C18.767864,244.738373 23.639269,242.691193 28.233467,240.144028 
	C38.107742,234.669418 47.833298,228.926849 57.645397,223.339050 
	C58.173409,223.038345 58.937168,223.151627 59.985935,223.108978 
	C55.927765,240.651321 51.461784,258.153595 47.052990,275.670258 
	C46.775608,276.772339 46.944744,277.986816 46.432594,279.574310 
	C37.189178,284.626801 28.445467,289.304535 19.639034,293.861053 
	C14.826031,296.351318 9.906893,298.636505 5.035619,301.014160 
	C5.908403,282.923981 9.617157,265.311371 14.008223,247.411743 
z"/>
<path fill="#F39918" opacity="1.000000" stroke="none" 
	d="
M464.454102,527.020020 
	C463.735229,525.506409 463.047668,523.961670 463.046234,522.416321 
	C462.991608,463.755219 462.996979,405.094055 463.019836,346.432892 
	C463.020355,345.128326 463.316223,343.823914 463.789276,342.234619 
	C468.006073,344.739594 471.907959,347.529297 475.641571,350.919373 
	C475.315552,352.824310 475.020386,354.128845 475.019806,355.433472 
	C474.996613,408.094055 474.990631,460.754639 475.046356,513.415161 
	C475.048004,514.959961 475.736359,516.504028 476.104492,518.048401 
	C472.338104,521.028503 468.571716,524.008606 464.454102,527.020020 
z"/>
<path fill="#FDD707" opacity="1.000000" stroke="none" 
	d="
M407.649597,415.047180 
	C408.288757,417.126038 408.950104,419.391815 408.954254,421.658752 
	C409.019409,457.315308 408.933838,492.972198 409.045654,528.628540 
	C409.074249,537.748840 409.665833,546.867432 409.998413,556.410278 
	C404.911438,558.792236 399.824799,560.750793 394.370178,562.313660 
	C394.001434,521.102234 394.014557,480.286499 393.960358,439.470886 
	C393.957550,437.362335 393.379395,435.254547 393.069092,433.146423 
	C397.834717,427.175812 402.600372,421.205200 407.649597,415.047180 
z"/>
<path fill="#333333" opacity="1.000000" stroke="none" 
	d="
M297.002228,263.057404 
	C298.192841,261.782471 299.163208,260.124146 300.609100,259.293701 
	C311.548798,253.010361 322.611145,246.940491 333.549194,240.654373 
	C334.946442,239.851364 335.847382,238.184784 336.984283,236.557480 
	C355.807007,239.977402 374.623718,243.758118 393.716309,247.806854 
	C393.424683,248.805084 393.011139,249.816498 392.266907,250.224091 
	C376.670471,258.765656 361.038147,267.241638 345.402283,275.710999 
	C344.980591,275.939423 344.441254,275.950684 343.494049,275.660889 
	C341.762848,274.160034 340.644714,272.389923 339.202606,272.067139 
	C325.166809,268.925446 311.076782,266.025940 297.002228,263.057404 
z"/>
<path fill="#1E1E1E" opacity="1.000000" stroke="none" 
	d="
M5.022731,301.462402 
	C9.906893,298.636505 14.826031,296.351318 19.639034,293.861053 
	C28.445467,289.304535 37.189178,284.626801 46.322639,279.992310 
	C46.045605,295.372833 45.404976,310.760620 44.300873,326.565552 
	C39.137104,329.259125 34.380974,331.428162 29.748737,333.835602 
	C21.440107,338.153717 13.205942,342.615112 4.940660,347.016632 
	C4.628079,345.294586 4.017935,343.566986 4.050154,341.851410 
	C4.300218,328.536499 4.674200,315.223969 5.022731,301.462402 
z"/>
<path fill="#056AB3" opacity="1.000000" stroke="none" 
	d="
M203.367554,377.784912 
	C205.922775,385.264526 208.478012,392.744141 210.676514,400.681946 
	C209.879852,403.116852 209.058914,405.093018 209.055847,407.070435 
	C208.983841,453.688171 209.013992,500.306061 208.953201,546.923828 
	C208.950546,548.966736 208.263123,551.008728 207.894653,553.051147 
	C204.813736,551.749512 201.732803,550.447876 198.325348,548.531738 
	C197.999207,494.640594 198.011719,441.363922 197.953995,388.087341 
	C197.951782,386.041412 197.273315,383.996246 197.087814,381.654358 
	C199.299622,380.166962 201.333588,378.975952 203.367554,377.784912 
z"/>
<path fill="#0C0C0C" opacity="1.000000" stroke="none" 
	d="
M268.368713,48.525589 
	C269.261078,47.111355 270.241547,45.081738 271.854736,44.162674 
	C288.727905,34.549637 305.720551,25.146553 322.620178,15.579443 
	C324.260925,14.650594 325.500000,13.012253 326.964600,11.354179 
	C329.985596,11.002811 332.967499,11.000510 336.393036,10.994158 
	C336.884338,22.349367 336.932037,33.708630 336.557312,45.577156 
	C328.165192,50.463562 320.253601,54.951298 312.206421,59.181141 
	C306.285187,62.293549 300.186646,65.068649 294.167114,67.994064 
	C294.167114,60.425575 294.167114,52.857086 294.167114,44.923264 
	C285.319946,46.142437 277.035248,47.284096 268.368713,48.525589 
z"/>
<path fill="#0661AB" opacity="1.000000" stroke="none" 
	d="
M196.909973,381.950714 
	C197.273315,383.996246 197.951782,386.041412 197.953995,388.087341 
	C198.011719,441.363922 197.999207,494.640594 197.997787,548.374939 
	C194.060394,546.789062 190.124008,544.745483 186.356628,542.091797 
	C186.683731,540.178650 186.979431,538.875549 186.980072,537.572388 
	C187.003723,489.794281 187.010925,442.016174 186.956741,394.238129 
	C186.954727,392.469604 186.316803,390.701843 185.980225,388.703522 
	C185.985245,388.473328 186.006729,388.011963 186.314545,387.869263 
	C188.427124,386.491272 190.231888,385.255951 192.371841,383.974792 
	C194.108017,383.269531 195.508987,382.610138 196.909973,381.950714 
z"/>
<path fill="#0858A4" opacity="1.000000" stroke="none" 
	d="
M185.975220,388.933716 
	C186.316803,390.701843 186.954727,392.469604 186.956741,394.238129 
	C187.010925,442.016174 187.003723,489.794281 186.980072,537.572388 
	C186.979431,538.875549 186.683731,540.178650 186.211395,541.767090 
	C181.992538,539.934631 178.087906,537.816833 174.354523,535.090271 
	C174.683548,533.512146 174.978821,532.542786 174.979340,531.573303 
	C175.002396,487.989929 175.010178,444.406525 174.957886,400.823212 
	C174.955963,399.221344 174.336151,397.620239 174.204269,395.745422 
	C178.261246,393.292664 182.118240,391.113190 185.975220,388.933716 
z"/>
<path fill="#373737" opacity="1.000000" stroke="none" 
	d="
M211.666382,312.393616 
	C219.357468,307.982971 226.881226,303.994293 234.440826,300.074768 
	C236.608154,298.951019 238.879120,298.027191 241.548157,297.463867 
	C241.963501,315.620270 241.933243,333.324524 241.903015,351.028748 
	C236.956177,354.160858 231.994080,357.269196 227.067001,360.432068 
	C222.638168,363.275146 218.247803,366.178162 213.480927,369.020386 
	C212.569565,364.403931 211.605927,359.827484 211.542633,355.238617 
	C211.347748,341.108917 211.497086,326.974487 211.666382,312.393616 
z"/>
<path fill="#094F9C" opacity="1.000000" stroke="none" 
	d="
M174.004272,396.018768 
	C174.336151,397.620239 174.955963,399.221344 174.957886,400.823212 
	C175.010178,444.406525 175.002396,487.989929 174.979340,531.573303 
	C174.978821,532.542786 174.683548,533.512146 174.211487,534.766846 
	C169.655228,532.264404 165.413269,529.476746 161.347595,526.086060 
	C161.682266,524.512451 161.978592,523.541992 161.979187,522.571350 
	C162.002884,484.426392 162.010696,446.281433 161.955780,408.136566 
	C161.953781,406.749603 161.300995,405.363525 161.158478,403.707245 
	C164.588684,401.302948 167.811920,399.168457 171.325317,396.900208 
	C172.411743,396.517212 173.208008,396.268005 174.004272,396.018768 
z"/>
<path fill="#0C4795" opacity="1.000000" stroke="none" 
	d="
M160.951508,403.977051 
	C161.300995,405.363525 161.953781,406.749603 161.955780,408.136566 
	C162.010696,446.281433 162.002884,484.426392 161.979187,522.571350 
	C161.978592,523.541992 161.682266,524.512451 161.209091,525.767944 
	C156.336746,522.613708 151.779205,519.174683 147.101624,514.949646 
	C146.992081,479.807434 147.002579,445.451202 147.301849,410.946259 
	C148.724380,410.169312 149.858124,409.541077 151.313065,408.796722 
	C154.739990,407.112762 157.845749,405.544891 160.951508,403.977051 
z"/>
<path fill="#131313" opacity="1.000000" stroke="none" 
	d="
M294.087585,68.457130 
	C300.186646,65.068649 306.285187,62.293549 312.206421,59.181141 
	C320.253601,54.951298 328.165192,50.463562 336.483643,46.040291 
	C336.881439,59.018600 336.930542,72.043037 336.542236,85.538986 
	C329.881592,89.357651 323.688049,92.761559 317.427521,96.037537 
	C309.705109,100.078499 301.927002,104.013031 294.172913,107.993546 
	C294.117981,94.969101 294.063019,81.944649 294.087585,68.457130 
z"/>
<path fill="#2C2C2C" opacity="1.000000" stroke="none" 
	d="
M564.076050,121.611717 
	C556.003601,121.832603 550.333252,127.634163 543.620239,130.987457 
	C538.596191,133.497116 533.914856,136.687881 528.924744,139.273865 
	C527.426025,140.050522 525.402466,139.814270 523.187866,140.067596 
	C514.195679,131.445221 505.634857,122.797264 497.092712,113.518906 
	C498.818390,111.891350 500.526062,110.895256 502.232422,109.896912 
	C512.495300,103.892395 522.757812,97.887375 533.358887,91.956421 
	C536.242004,94.291237 538.733276,96.616180 541.346558,98.794899 
	C543.899780,100.923592 546.577393,102.903030 549.200439,104.948006 
	C551.078918,106.692635 552.957397,108.437256 555.013855,110.733284 
	C555.422974,111.511467 555.654114,111.738243 555.885254,111.965012 
	C558.563660,115.079544 561.242004,118.194092 564.076050,121.611717 
z"/>
<path fill="#0285C7" opacity="1.000000" stroke="none" 
	d="
M241.995468,565.832214 
	C237.420517,564.461609 232.845566,563.091003 228.397491,561.101929 
	C228.682907,558.518250 228.978455,556.553040 228.979782,554.587585 
	C229.006790,514.871460 228.985550,475.155273 229.040451,435.439209 
	C229.043365,433.338409 229.633362,431.238434 229.950073,429.138062 
	C234.473251,433.255035 238.996445,437.372040 243.354553,441.975159 
	C242.792999,444.504578 242.054306,446.547211 242.050644,448.591156 
	C241.980591,487.671417 241.996979,526.751831 241.995468,565.832214 
z"/>
<path fill="#252525" opacity="1.000000" stroke="none" 
	d="
M533.020447,91.882515 
	C522.757812,97.887375 512.495300,103.892395 502.232422,109.896912 
	C500.526062,110.895256 498.818390,111.891350 496.953064,113.234985 
	C485.953033,105.327927 475.111298,97.074379 464.152832,88.177567 
	C469.982422,84.041489 475.953979,80.590851 481.867950,77.044205 
	C487.942352,73.401390 493.960480,69.664780 500.318359,66.108009 
	C511.429138,74.792030 522.224792,83.337273 533.020447,91.882515 
z"/>
<path fill="#252525" opacity="1.000000" stroke="none" 
	d="
M4.948409,347.479126 
	C13.205942,342.615112 21.440107,338.153717 29.748737,333.835602 
	C34.380974,331.428162 39.137104,329.259125 44.201832,326.981598 
	C46.015839,339.713135 47.465420,352.445679 48.507633,365.632172 
	C40.903934,370.054352 33.736969,374.077179 26.501343,377.972473 
	C21.345877,380.747864 16.098034,383.351685 10.891418,386.032074 
	C9.546063,381.734161 8.200706,377.436279 6.486816,373.080536 
	C6.053108,372.594452 5.987933,372.166199 6.174032,371.244415 
	C5.989788,369.841553 5.554269,368.932220 5.118755,368.022888 
	C5.052831,367.288849 4.986902,366.554779 4.883342,365.452087 
	C5.080214,363.441772 5.533059,361.796509 5.506175,360.159119 
	C5.439276,356.084717 5.153845,352.013916 4.948409,347.479126 
z"/>
<path fill="#1E1E1E" opacity="1.000000" stroke="none" 
	d="
M500.003204,65.969223 
	C493.960480,69.664780 487.942352,73.401390 481.867950,77.044205 
	C475.953979,80.590851 469.982422,84.041489 463.971405,87.900436 
	C452.420685,82.014481 440.934692,75.762383 429.386353,68.926605 
	C430.179504,67.579231 430.930328,66.628349 431.907349,66.081978 
	C438.670624,62.299805 445.557343,58.732841 452.250305,54.832260 
	C456.961487,52.086628 461.429779,48.924229 466.365692,45.999001 
	C477.817627,52.689793 488.910431,59.329506 500.003204,65.969223 
z"/>
<path fill="#0473BB" opacity="1.000000" stroke="none" 
	d="
M208.063049,553.374268 
	C208.263123,551.008728 208.950546,548.966736 208.953201,546.923828 
	C209.013992,500.306061 208.983841,453.688171 209.055847,407.070435 
	C209.058914,405.093018 209.879852,403.116852 210.726044,401.049561 
	C214.080475,405.992401 217.028656,411.025757 219.970215,416.825562 
	C219.642395,420.041565 219.044281,422.490814 219.041122,424.940826 
	C218.983963,469.238281 218.998505,513.535828 218.997757,557.833374 
	C215.408981,556.454712 211.820190,555.076050 208.063049,553.374268 
z"/>
<path fill="#F18B19" opacity="1.000000" stroke="none" 
	d="
M476.412903,517.910950 
	C475.736359,516.504028 475.048004,514.959961 475.046356,513.415161 
	C474.990631,460.754639 474.996613,408.094055 475.019806,355.433472 
	C475.020386,354.128845 475.315552,352.824310 475.787781,351.234558 
	C478.528381,352.586884 480.954498,354.224426 483.691071,356.472351 
	C484.014496,408.425903 484.027405,459.769073 484.040314,511.112274 
	C481.600647,513.332703 479.160980,515.553101 476.412903,517.910950 
z"/>
<path fill="#027BC2" opacity="1.000000" stroke="none" 
	d="
M219.330505,557.995239 
	C218.998505,513.535828 218.983963,469.238281 219.041122,424.940826 
	C219.044281,422.490814 219.642395,420.041565 220.035156,417.158722 
	C223.306244,420.651947 226.505768,424.578461 229.827667,428.821503 
	C229.633362,431.238434 229.043365,433.338409 229.040451,435.439209 
	C228.985550,475.155273 229.006790,514.871460 228.979782,554.587585 
	C228.978455,556.553040 228.682907,558.518250 228.209839,560.768921 
	C225.151276,560.088562 222.407257,559.122803 219.330505,557.995239 
z"/>
<path fill="#ED7018" opacity="1.000000" stroke="none" 
	d="
M504.107117,492.047516 
	C500.621033,495.643341 497.134949,499.239197 493.331482,502.500244 
	C493.010834,455.166229 493.007538,408.166962 493.004211,361.167725 
	C496.095123,362.447845 499.186035,363.727966 502.639526,365.545563 
	C503.001373,406.196533 502.985809,446.310059 503.046997,486.423431 
	C503.049866,488.298645 503.738068,490.172852 504.107117,492.047516 
z"/>
<path fill="#EF7E18" opacity="1.000000" stroke="none" 
	d="
M492.685608,361.012756 
	C493.007538,408.166962 493.010834,455.166229 493.024902,502.641998 
	C490.245667,505.686829 487.455627,508.255127 484.352966,510.967834 
	C484.027405,459.769073 484.014496,408.425903 484.003052,356.625305 
	C486.792023,357.731232 489.579498,359.294495 492.685608,361.012756 
z"/>
<path fill="#2B2B2B" opacity="1.000000" stroke="none" 
	d="
M10.932745,386.419189 
	C16.098034,383.351685 21.345877,380.747864 26.501343,377.972473 
	C33.736969,374.077179 40.903934,370.054352 48.445839,366.039246 
	C51.519321,376.730896 54.247238,387.469391 56.624313,398.607452 
	C55.497921,399.230774 54.637547,399.307953 53.959606,399.700348 
	C44.581078,405.128571 35.227600,410.600037 25.867992,416.060944 
	C17.927605,407.824402 13.961007,397.564728 10.932745,386.419189 
z"/>
<path fill="#7E5A9E" opacity="1.000000" stroke="none" 
	d="
M84.032776,433.999146 
	C78.707443,420.074310 73.521851,406.093933 68.012276,392.242371 
	C63.653584,381.284241 64.011787,371.783051 73.397247,363.095612 
	C77.643173,359.165405 80.104630,353.307343 83.993576,348.320343 
	C85.741508,353.212128 86.871513,358.107483 88.000854,363.471130 
	C88.334785,386.965118 88.669380,409.990753 88.668106,433.163940 
	C86.899078,433.540680 85.465927,433.769928 84.032776,433.999146 
z"/>
<path fill="#1F969C" opacity="1.000000" stroke="none" 
	d="
M279.957397,573.114014 
	C276.912689,572.735596 273.868011,572.357117 270.411255,571.448364 
	C270.051361,533.074768 270.103546,495.231415 270.155762,457.388031 
	C273.532562,458.575073 276.909393,459.762115 280.641479,461.541138 
	C280.997803,496.864227 281.018372,531.595398 280.955261,566.326355 
	C280.951172,568.589478 280.304932,570.851501 279.957397,573.114014 
z"/>
<path fill="#E74F17" opacity="1.000000" stroke="none" 
	d="
M525.831787,463.963989 
	C522.105835,469.241638 518.379944,474.519287 514.287354,479.534912 
	C513.613770,477.327789 513.041870,475.383026 513.039490,473.437500 
	C512.996765,438.585327 513.023071,403.733002 513.034546,368.880737 
	C516.752014,369.592896 520.469482,370.305084 524.594604,371.550171 
	C525.001526,400.794891 524.984863,429.506744 525.035706,458.218506 
	C525.039062,460.134155 525.554565,462.048859 525.831787,463.963989 
z"/>
<path fill="#EA6017" opacity="1.000000" stroke="none" 
	d="
M512.852661,368.556335 
	C513.023071,403.733002 512.996765,438.585327 513.039490,473.437500 
	C513.041870,475.383026 513.613770,477.327789 513.978271,479.696228 
	C510.927216,483.990936 507.818542,487.862305 504.408508,491.890625 
	C503.738068,490.172852 503.049866,488.298645 503.046997,486.423431 
	C502.985809,446.310059 503.001373,406.196533 503.004028,365.625549 
	C506.227570,366.189362 509.449219,367.210663 512.852661,368.556335 
z"/>
<path fill="#323232" opacity="1.000000" stroke="none" 
	d="
M377.373901,224.871384 
	C378.718353,222.958206 380.162659,220.699707 382.222717,219.489532 
	C392.515167,213.443390 402.989319,207.707458 413.342072,201.762283 
	C414.714752,200.973984 415.758759,199.613373 417.014221,198.163666 
	C421.303101,198.536301 425.532715,199.263077 429.939819,200.020370 
	C429.939819,211.855911 429.939819,223.436722 429.939819,235.613098 
	C412.403168,232.049561 395.080414,228.529495 377.373901,224.871384 
z"/>
<path fill="#1792A9" opacity="1.000000" stroke="none" 
	d="
M269.889465,457.200928 
	C270.103546,495.231415 270.051361,533.074768 269.998260,571.375732 
	C266.902771,571.289551 263.808167,570.745789 260.356415,569.559814 
	C259.999512,532.940979 259.979126,496.964325 260.042786,460.987823 
	C260.047394,458.371033 260.662140,455.755280 260.993225,453.139038 
	C263.869873,454.430603 266.746521,455.722198 269.889465,457.200928 
z"/>
<path fill="#1A1A1A" opacity="1.000000" stroke="none" 
	d="
M466.006531,45.947933 
	C461.429779,48.924229 456.961487,52.086628 452.250305,54.832260 
	C445.557343,58.732841 438.670624,62.299805 431.907349,66.081978 
	C430.930328,66.628349 430.179504,67.579231 429.172119,68.645508 
	C419.999481,65.632210 415.651031,58.379887 415.383911,49.554882 
	C415.108887,40.468765 419.563995,33.117687 428.806885,29.243336 
	C441.583588,34.961037 453.795044,40.454491 466.006531,45.947933 
z"/>
<path fill="#289B90" opacity="1.000000" stroke="none" 
	d="
M280.188782,573.458252 
	C280.304932,570.851501 280.951172,568.589478 280.955261,566.326355 
	C281.018372,531.595398 280.997803,496.864227 280.995239,461.679749 
	C284.119995,461.995819 287.246277,462.765259 290.686279,464.211609 
	C290.998810,501.536560 290.997620,538.184631 290.996429,574.832764 
	C287.471008,574.489319 283.945618,574.145874 280.188782,573.458252 
z"/>
<path fill="#098ABE" opacity="1.000000" stroke="none" 
	d="
M242.382553,565.913696 
	C241.996979,526.751831 241.980591,487.671417 242.050644,448.591156 
	C242.054306,446.547211 242.792999,444.504578 243.519318,442.257996 
	C246.457993,443.830444 249.066833,445.606232 251.680954,448.053894 
	C251.457504,450.681152 251.031296,452.636261 251.029221,454.591858 
	C250.989090,492.338867 250.998581,530.085938 250.997879,567.832947 
	C248.255142,567.220337 245.512390,566.607727 242.382553,565.913696 
z"/>
<path fill="#1A1A1A" opacity="1.000000" stroke="none" 
	d="
M294.097595,108.380592 
	C301.927002,104.013031 309.705109,100.078499 317.427521,96.037537 
	C323.688049,92.761559 329.881592,89.357651 336.469147,86.002182 
	C336.883789,93.461113 337.083679,100.931213 336.941620,108.394798 
	C336.804413,115.604416 330.485474,123.269653 322.901550,125.914871 
	C314.843079,128.725601 304.521454,126.520294 299.510040,120.083054 
	C296.991455,116.847878 295.808929,112.572563 294.097595,108.380592 
z"/>
<path fill="#0F8EB4" opacity="1.000000" stroke="none" 
	d="
M251.347580,568.010315 
	C250.998581,530.085938 250.989090,492.338867 251.029221,454.591858 
	C251.031296,452.636261 251.457504,450.681152 251.854675,448.339142 
	C254.834091,449.535278 257.645111,451.118073 260.724670,452.919922 
	C260.662140,455.755280 260.047394,458.371033 260.042786,460.987823 
	C259.979126,496.964325 259.999512,532.940979 259.998322,569.375122 
	C257.230682,569.284363 254.463989,568.736023 251.347580,568.010315 
z"/>
<path fill="#1D4291" opacity="1.000000" stroke="none" 
	d="
M147.013092,411.094940 
	C147.002579,445.451202 146.992081,479.807434 146.968201,514.639709 
	C144.568314,513.174561 142.188232,511.225464 139.792999,509.295166 
	C138.274048,508.071106 136.732605,506.874908 135.362442,505.072937 
	C135.678497,503.841949 135.968185,503.204376 135.968796,502.566528 
	C135.995041,475.569092 136.010010,448.571564 135.951569,421.574219 
	C135.948959,420.365723 135.250778,419.158752 135.058716,417.667450 
	C137.159241,416.247314 139.077652,415.110748 141.310287,413.858276 
	C143.420700,412.859894 145.216888,411.977417 147.013092,411.094940 
z"/>
<path fill="#232323" opacity="1.000000" stroke="none" 
	d="
M385.312958,144.568954 
	C378.977081,148.321182 372.771332,151.601425 366.595490,154.936890 
	C362.991425,156.883362 359.435089,158.918182 355.511780,160.956055 
	C355.166290,147.543762 355.166290,134.088654 355.166290,120.391312 
	C365.177765,120.391312 374.948914,120.391312 385.455627,120.391312 
	C385.455627,128.288284 385.455627,136.204224 385.312958,144.568954 
z"/>
<path fill="#62599E" opacity="1.000000" stroke="none" 
	d="
M100.944580,313.975494 
	C105.421043,302.434631 109.897499,290.893799 114.832428,279.509033 
	C116.528488,288.444244 117.766075,297.223358 119.002205,306.470642 
	C119.334389,320.292969 119.668022,333.647095 119.710419,347.280273 
	C118.279549,355.039368 117.139931,362.519470 115.723038,369.756470 
	C112.630341,363.342682 109.814919,357.171967 106.999527,350.569427 
	C106.302574,343.258148 105.902657,336.331146 104.812630,329.514526 
	C103.972862,324.262970 102.265938,319.150055 100.944580,313.975494 
z"/>
<path fill="#2F9F84" opacity="1.000000" stroke="none" 
	d="
M291.442322,574.902710 
	C290.997620,538.184631 290.998810,501.536560 291.000275,464.415527 
	C293.732391,464.289398 296.464203,464.636261 299.597839,465.532501 
	C299.999115,502.332245 299.998566,538.582581 299.998016,574.832947 
	C297.294769,574.879517 294.591492,574.926147 291.442322,574.902710 
z"/>
<path fill="#37A37A" opacity="1.000000" stroke="none" 
	d="
M300.423950,574.902100 
	C299.998566,538.582581 299.999115,502.332245 299.999146,465.624420 
	C302.729462,465.399902 305.460266,465.632874 308.595520,466.426514 
	C308.999512,503.269043 308.998993,539.550964 308.998474,575.832825 
	C306.282257,575.545654 303.566071,575.258484 300.423950,574.902100 
z"/>
<path fill="#2F3F8F" opacity="1.000000" stroke="none" 
	d="
M134.876572,417.951050 
	C135.250778,419.158752 135.948959,420.365723 135.951569,421.574219 
	C136.010010,448.571564 135.995041,475.569092 135.968796,502.566528 
	C135.968185,503.204376 135.678497,503.841949 135.207886,504.762970 
	C131.003021,500.940277 127.113884,496.834259 123.112030,491.989685 
	C123.332672,488.149780 123.936882,485.049927 123.954300,481.946777 
	C124.049133,465.051270 124.044907,448.154694 123.953934,431.259155 
	C123.939026,428.489777 123.323181,425.723663 123.199837,422.690216 
	C125.979370,420.976013 128.544144,419.527588 131.487671,418.067535 
	C132.869812,418.020935 133.873184,417.985992 134.876572,417.951050 
z"/>
<path fill="#70599E" opacity="1.000000" stroke="none" 
	d="
M100.649940,314.164490 
	C102.265938,319.150055 103.972862,324.262970 104.812630,329.514526 
	C105.902657,336.331146 106.302574,343.258148 106.703278,350.861450 
	C105.937973,360.591187 105.606415,369.607239 104.944534,378.598938 
	C104.589622,383.420410 103.666550,388.200104 102.687447,392.838135 
	C101.575630,391.256439 100.640175,389.893768 99.999695,388.404236 
	C96.689705,380.706329 93.489601,372.961029 90.148262,365.276978 
	C89.757240,364.377808 88.732483,363.754181 88.001526,363.002838 
	C86.871513,358.107483 85.741508,353.212128 84.286789,348.148499 
	C89.426476,336.771332 94.890884,325.562378 100.649940,314.164490 
z"/>
<path fill="#323232" opacity="1.000000" stroke="none" 
	d="
M25.949348,416.394165 
	C35.227600,410.600037 44.581078,405.128571 53.959606,399.700348 
	C54.637547,399.307953 55.497921,399.230774 56.643967,399.001617 
	C62.061451,411.029877 67.108444,423.063599 72.250412,435.444916 
	C55.345589,435.937439 39.989742,431.672150 27.746649,419.115082 
	C27.070099,418.421112 26.597980,417.527863 25.949348,416.394165 
z"/>
<path fill="#255DA2" opacity="1.000000" stroke="none" 
	d="
M146.956238,203.884171 
	C154.134491,193.650513 163.027496,194.425903 171.005219,206.731247 
	C169.329407,216.987274 167.663483,226.493942 165.646606,236.038467 
	C161.487915,241.565475 157.680145,247.054626 153.370117,253.267853 
	C152.815063,251.468292 152.511658,250.008926 151.919632,248.677948 
	C151.056305,246.736969 149.985443,244.888290 149.051468,242.598572 
	C149.066589,237.803223 149.234985,233.396774 148.956833,229.018692 
	C148.424042,220.632004 147.637482,212.261429 146.956238,203.884171 
z"/>
<path fill="#3EA76F" opacity="1.000000" stroke="none" 
	d="
M309.432373,575.901855 
	C308.998993,539.550964 308.999512,503.269043 308.999939,466.522583 
	C311.374542,466.001862 313.749237,465.945709 316.561951,466.437622 
	C317.000000,500.250824 316.975250,533.515991 317.045227,566.780945 
	C317.051086,569.559692 317.695221,572.337097 318.042786,575.115112 
	C315.317291,575.400330 312.591797,575.685608 309.432373,575.901855 
z"/>
<path fill="#337EBB" opacity="1.000000" stroke="none" 
	d="
M192.036652,384.020630 
	C190.231888,385.255951 188.427124,386.491272 186.312103,387.399323 
	C186.334152,363.714722 186.666458,340.357361 187.008545,316.582947 
	C188.349701,306.943268 189.239319,297.624176 191.221756,288.543671 
	C192.058609,284.710480 189.864563,279.657074 194.728851,276.993378 
	C200.220383,294.287231 201.863983,312.020020 200.368713,330.584564 
	C193.513947,337.892670 191.708313,346.828613 190.290237,355.366394 
	C188.950073,363.434998 189.914337,371.902710 190.091995,380.190002 
	C190.119659,381.480164 191.358109,382.744415 192.036652,384.020630 
z"/>
<path fill="#E43D16" opacity="1.000000" stroke="none" 
	d="
M525.987244,463.649323 
	C525.554565,462.048859 525.039062,460.134155 525.035706,458.218506 
	C524.984863,429.506744 525.001526,400.794891 525.004578,371.625397 
	C528.071228,371.783936 531.135559,372.400085 534.601196,373.549744 
	C535.001648,395.704437 534.944580,417.325989 535.092041,438.946136 
	C535.105957,440.984131 536.407654,443.013336 537.111511,445.046600 
	C533.455261,451.142609 529.799011,457.238617 525.987244,463.649323 
z"/>
<path fill="#D6D01B" opacity="1.000000" stroke="none" 
	d="
M377.000519,446.118805 
	C378.790649,444.814545 380.580780,443.510284 382.697205,442.534821 
	C383.348633,445.808502 383.951660,448.752930 383.956665,451.698334 
	C384.020996,489.743347 384.000153,527.788452 384.000854,565.833557 
	C382.290466,566.224976 380.580078,566.616394 378.170746,566.744995 
	C377.314911,564.511353 377.022522,562.540649 377.021118,560.569641 
	C376.993896,522.419373 377.000702,484.269073 377.000519,446.118805 
z"/>
<path fill="#403B8C" opacity="1.000000" stroke="none" 
	d="
M122.985062,422.956055 
	C123.323181,425.723663 123.939026,428.489777 123.953934,431.259155 
	C124.044907,448.154694 124.049133,465.051270 123.954300,481.946777 
	C123.936882,485.049927 123.332672,488.149780 122.977524,491.681396 
	C118.307632,486.678680 113.659538,481.245697 108.997803,475.026306 
	C108.991653,458.836182 108.999161,443.432434 109.329193,427.871765 
	C112.439186,426.487701 115.226631,425.260529 118.378052,423.992249 
	C120.156364,423.619385 121.570717,423.287720 122.985062,422.956055 
z"/>
<path fill="#50589E" opacity="1.000000" stroke="none" 
	d="
M119.003662,306.002441 
	C117.766075,297.223358 116.528488,288.444244 115.132889,279.304901 
	C118.081772,269.522003 121.187500,260.098938 124.297142,250.677216 
	C124.655159,249.592484 125.035034,248.514954 125.998482,247.449860 
	C127.125526,250.679977 127.827621,253.876816 128.162552,257.111694 
	C129.503998,270.067902 130.731552,283.035889 132.000793,296.468140 
	C131.666290,305.957855 131.332230,314.978912 130.650635,323.946808 
	C128.714157,320.958191 127.280632,317.923981 125.494835,315.113617 
	C123.497704,311.970703 121.181190,309.030731 119.003662,306.002441 
z"/>
<path fill="#C6CC23" opacity="1.000000" stroke="none" 
	d="
M376.673950,446.166809 
	C377.000702,484.269073 376.993896,522.419373 377.021118,560.569641 
	C377.022522,562.540649 377.314911,564.511353 377.784607,566.769836 
	C375.989044,567.692444 373.880707,568.327393 371.386841,568.440063 
	C371.002014,528.676453 371.002686,489.435089 371.003326,450.193726 
	C372.784698,448.867432 374.566071,447.541138 376.673950,446.166809 
z"/>
<path fill="#42589E" opacity="1.000000" stroke="none" 
	d="
M132.001221,295.999542 
	C130.731552,283.035889 129.503998,270.067902 128.162552,257.111694 
	C127.827621,253.876816 127.125526,250.679977 126.290756,247.228851 
	C129.115189,238.782455 132.241043,230.572845 136.012054,222.365082 
	C137.095078,223.218994 137.864334,224.049713 137.920715,224.926300 
	C138.672470,236.614197 139.324417,248.308502 140.000763,260.465698 
	C139.666870,274.953033 139.333435,288.975922 138.648895,302.960938 
	C136.198929,300.615265 134.100067,298.307404 132.001221,295.999542 
z"/>
<path fill="#3175B4" opacity="1.000000" stroke="none" 
	d="
M194.730652,276.615601 
	C189.864563,279.657074 192.058609,284.710480 191.221756,288.543671 
	C189.239319,297.624176 188.349701,306.943268 186.671509,316.631226 
	C183.695068,320.759369 181.127106,324.468750 178.409378,328.064911 
	C177.084259,329.818390 175.479828,331.360809 174.001129,332.553650 
	C175.000504,320.405670 176.000549,308.702850 177.278503,296.756104 
	C180.088165,286.004974 182.486786,275.462799 185.232239,265.011749 
	C186.063202,261.848511 187.854507,258.937531 189.205933,255.911011 
	C190.471542,261.210144 191.690842,266.520996 193.031784,271.800995 
	C193.418976,273.325562 194.155869,274.761322 194.730652,276.615601 
z"/>
<path fill="#A1C336" opacity="1.000000" stroke="none" 
	d="
M361.998566,570.832581 
	C360.258026,571.210510 358.517487,571.588501 356.388794,571.442627 
	C355.975647,533.210022 355.950623,495.501190 355.925598,457.792389 
	C357.724640,456.910736 359.523682,456.029083 361.660828,455.570312 
	C361.998810,494.272980 361.998688,532.552795 361.998566,570.832581 
z"/>
<path fill="#51378A" opacity="1.000000" stroke="none" 
	d="
M109.006668,428.028687 
	C108.999161,443.432434 108.991653,458.836182 108.969894,474.676147 
	C103.952621,467.958099 98.657570,460.986298 94.038101,453.592407 
	C90.280479,447.577972 87.332390,441.057800 84.029037,434.380554 
	C85.465927,433.769928 86.899078,433.540680 89.078850,433.164124 
	C94.554291,431.688080 99.283112,430.359344 104.380089,429.020386 
	C106.167717,428.682983 107.587189,428.355835 109.006668,428.028687 
z"/>
<path fill="#7BB94A" opacity="1.000000" stroke="none" 
	d="
M345.996796,573.833008 
	C344.280457,573.878601 342.564117,573.924255 340.423889,573.444458 
	C340.000519,536.268616 340.001038,499.618225 340.001556,462.967865 
	C341.371307,462.531555 342.741058,462.095276 344.640442,462.033936 
	C345.446686,464.518311 345.961517,466.627319 345.964478,468.737091 
	C346.013275,503.768982 345.997864,538.800964 345.996796,573.833008 
z"/>
<path fill="#61B258" opacity="1.000000" stroke="none" 
	d="
M334.994873,574.832886 
	C333.278320,574.879395 331.561768,574.925964 329.422058,574.445862 
	C328.998871,537.625244 328.998871,501.331329 328.998901,465.037384 
	C330.742676,464.680969 332.486420,464.324554 334.614685,464.469757 
	C334.997772,501.591888 334.996307,538.212402 334.994873,574.832886 
z"/>
<path fill="#2868AB" opacity="1.000000" stroke="none" 
	d="
M165.997559,236.000610 
	C167.663483,226.493942 169.329407,216.987274 171.067764,207.060410 
	C174.754456,214.817627 178.368729,222.995056 181.837463,231.892120 
	C179.794327,240.757080 177.939133,248.912598 175.985855,257.044556 
	C174.384705,263.710510 172.666779,270.348419 170.720276,276.746887 
	C169.272980,270.276337 168.155746,264.047333 166.871582,257.852936 
	C166.723175,257.137177 165.646759,256.613800 165.000366,255.546967 
	C165.332611,248.728683 165.665070,242.364639 165.997559,236.000610 
z"/>
<path fill="#E22E16" opacity="1.000000" stroke="none" 
	d="
M537.426392,444.882141 
	C536.407654,443.013336 535.105957,440.984131 535.092041,438.946136 
	C534.944580,417.325989 535.001648,395.704437 535.004395,373.625549 
	C538.060913,373.450531 541.115601,373.733246 544.585938,374.549194 
	C545.001099,390.699432 544.966492,406.316589 545.048706,421.933136 
	C545.057739,423.639587 545.739136,425.342468 546.108704,427.047028 
	C543.319580,432.937256 540.530457,438.827484 537.426392,444.882141 
z"/>
<path fill="#53AE60" opacity="1.000000" stroke="none" 
	d="
M328.606750,464.986816 
	C328.998871,501.331329 328.998871,537.625244 328.997681,574.376648 
	C327.279358,574.881042 325.562225,574.927917 323.422119,574.447327 
	C322.968170,537.850098 322.937164,501.780334 322.906189,465.710602 
	C324.675659,465.452515 326.445129,465.194397 328.606750,464.986816 
z"/>
<path fill="#46AB66" opacity="1.000000" stroke="none" 
	d="
M322.484741,465.663177 
	C322.937164,501.780334 322.968170,537.850098 322.997833,574.377319 
	C321.619537,574.896484 320.242554,574.958130 318.454193,575.067383 
	C317.695221,572.337097 317.051086,569.559692 317.045227,566.780945 
	C316.975250,533.515991 317.000000,500.250824 317.000122,466.521027 
	C318.687927,465.909485 320.375641,465.762634 322.484741,465.663177 
z"/>
<path fill="#F1D70D" opacity="1.000000" stroke="none" 
	d="
M392.772980,433.267029 
	C393.379395,435.254547 393.957550,437.362335 393.960358,439.470886 
	C394.014557,480.286499 394.001434,521.102234 394.003784,562.375366 
	C392.596375,563.227478 391.187347,563.622192 389.395935,563.592163 
	C389.009094,523.679382 389.021851,484.191223 388.955261,444.703186 
	C388.951416,442.435211 388.300629,440.168365 387.950928,437.900970 
	C389.459595,436.396545 390.968231,434.892090 392.772980,433.267029 
z"/>
<path fill="#32599F" opacity="1.000000" stroke="none" 
	d="
M140.001221,260.001221 
	C139.324417,248.308502 138.672470,236.614197 137.920715,224.926300 
	C137.864334,224.049713 137.095078,223.218994 136.309952,222.173706 
	C139.420563,216.046097 142.878433,210.111740 146.646271,204.030762 
	C147.637482,212.261429 148.424042,220.632004 148.956833,229.018692 
	C149.234985,233.396774 149.066589,237.803223 149.050354,243.067169 
	C149.000534,255.901306 149.040100,267.865387 148.955536,279.828644 
	C148.943329,281.553894 148.334137,283.274902 147.705719,284.769287 
	C145.611923,277.288849 143.862808,270.024048 141.960037,262.799683 
	C141.687927,261.766541 140.672592,260.929199 140.001221,260.001221 
z"/>
<path fill="#000000" opacity="1.000000" stroke="none" 
	d="
M466.365692,45.999016 
	C453.795044,40.454491 441.583588,34.961037 429.156494,29.177429 
	C436.320282,25.200422 443.211914,27.339497 450.085297,30.535042 
	C471.040833,40.277565 490.860687,52.091446 508.718781,66.611618 
	C522.947937,78.181114 535.638000,91.643494 549.105835,104.606796 
	C546.577393,102.903030 543.899780,100.923592 541.346558,98.794899 
	C538.733276,96.616180 536.242004,94.291237 533.358887,91.956421 
	C522.224792,83.337273 511.429138,74.792030 500.318359,66.108002 
	C488.910431,59.329506 477.817627,52.689793 466.365692,45.999016 
z"/>
<path fill="#E4D413" opacity="1.000000" stroke="none" 
	d="
M387.644012,438.015076 
	C388.300629,440.168365 388.951416,442.435211 388.955261,444.703186 
	C389.021851,484.191223 389.009094,523.679382 389.024231,563.644653 
	C387.592102,564.730835 386.149353,565.339966 384.353699,565.891357 
	C384.000153,527.788452 384.020996,489.743347 383.956665,451.698334 
	C383.951660,448.752930 383.348633,445.808502 383.014343,442.441956 
	C384.449097,440.723267 385.893097,439.426208 387.644012,438.015076 
z"/>
<path fill="#AFC62F" opacity="1.000000" stroke="none" 
	d="
M362.370178,570.898193 
	C361.998688,532.552795 361.998810,494.272980 361.998993,455.529297 
	C363.118622,454.419525 364.238190,453.773651 365.735901,453.505615 
	C366.409393,456.162781 366.958679,458.441803 366.962036,460.721588 
	C367.015411,497.092072 366.999054,533.462646 366.998596,569.833252 
	C365.579681,570.210083 364.160767,570.586914 362.370178,570.898193 
z"/>
<path fill="#94BF3D" opacity="1.000000" stroke="none" 
	d="
M355.583313,457.829651 
	C355.950623,495.501190 355.975647,533.210022 356.000854,571.376038 
	C354.581390,572.210571 353.161804,572.587952 351.371002,572.442078 
	C350.965179,534.513489 350.930542,497.108063 350.895905,459.702637 
	C352.344269,459.090729 353.792633,458.478821 355.583313,457.829651 
z"/>
<path fill="#88BC43" opacity="1.000000" stroke="none" 
	d="
M350.536743,459.750488 
	C350.930542,497.108063 350.965179,534.513489 350.999451,572.376160 
	C349.575531,573.126831 348.151978,573.420227 346.362610,573.773315 
	C345.997864,538.800964 346.013275,503.768982 345.964478,468.737091 
	C345.961517,466.627319 345.446686,464.518311 345.000885,461.985046 
	C346.613678,460.973572 348.395630,460.385956 350.536743,459.750488 
z"/>
<path fill="#2C6FB0" opacity="1.000000" stroke="none" 
	d="
M171.000610,276.998779 
	C172.666779,270.348419 174.384705,263.710510 175.985855,257.044556 
	C177.939133,248.912598 179.794327,240.757080 181.858063,232.280975 
	C183.349655,237.360229 184.543076,242.807678 186.060303,248.163391 
	C186.743973,250.576675 188.073318,252.807068 189.157806,255.515732 
	C187.854507,258.937531 186.063202,261.848511 185.232239,265.011749 
	C182.486786,275.462799 180.088165,286.004974 177.006516,296.524597 
	C175.375519,293.107666 175.145554,288.949066 170.000549,288.571991 
	C170.333847,284.428101 170.667236,280.713440 171.000610,276.998779 
z"/>
<path fill="#6EB551" opacity="1.000000" stroke="none" 
	d="
M335.366272,574.892090 
	C334.996307,538.212402 334.997772,501.591888 334.998871,464.505554 
	C336.418793,463.670319 337.839050,463.300934 339.630432,462.949707 
	C340.001038,499.618225 340.000519,536.268616 339.999420,573.376282 
	C338.578461,574.206116 337.158081,574.578674 335.366272,574.892090 
z"/>
<path fill="#3B84BE" opacity="1.000000" stroke="none" 
	d="
M192.371841,383.974792 
	C191.358109,382.744415 190.119659,381.480164 190.091995,380.190002 
	C189.914337,371.902710 188.950073,363.434998 190.290237,355.366394 
	C191.708313,346.828613 193.513947,337.892670 200.279831,331.043579 
	C201.037552,343.365601 201.402435,355.752563 201.952759,368.131287 
	C202.083969,371.082611 202.834579,374.006378 203.333939,377.363892 
	C201.333588,378.975952 199.299622,380.166962 197.087814,381.654358 
	C195.508987,382.610138 194.108017,383.269531 192.371841,383.974792 
z"/>
<path fill="#BAC929" opacity="1.000000" stroke="none" 
	d="
M367.354797,569.899048 
	C366.999054,533.462646 367.015411,497.092072 366.962036,460.721588 
	C366.958679,458.441803 366.409393,456.162781 366.059021,453.472717 
	C367.460999,452.148499 368.918121,451.234985 370.689270,450.257599 
	C371.002686,489.435089 371.002014,528.676453 371.001892,568.375122 
	C369.905273,569.209839 368.808136,569.587341 367.354797,569.899048 
z"/>
<path fill="#DF2016" opacity="1.000000" stroke="none" 
	d="
M546.435425,426.868530 
	C545.739136,425.342468 545.057739,423.639587 545.048706,421.933136 
	C544.966492,406.316589 545.001099,390.699432 545.003418,374.624634 
	C547.378967,374.116699 549.752686,374.066559 552.564087,374.549561 
	C553.001099,381.525024 552.878296,387.970490 553.045532,394.408447 
	C553.147034,398.314941 553.697083,402.209778 554.045532,406.109833 
	C552.024048,411.768311 549.999084,417.425568 547.983826,423.086304 
	C547.558411,424.281067 547.168396,425.488464 546.435425,426.868530 
z"/>
<path fill="#DD1515" opacity="1.000000" stroke="none" 
	d="
M554.387085,405.920654 
	C553.697083,402.209778 553.147034,398.314941 553.045532,394.408447 
	C552.878296,387.970490 553.001099,381.525024 553.003174,374.624878 
	C555.788513,374.167023 558.572327,374.167023 562.810303,374.167023 
	C560.056030,384.924316 557.392334,395.327911 554.387085,405.920654 
z"/>
<path fill="#000000" opacity="1.000000" stroke="none" 
	d="
M555.899292,111.693947 
	C555.654114,111.738243 555.422974,111.511467 555.119385,111.038788 
	C555.335693,111.002884 555.624573,111.212875 555.899292,111.693947 
z"/>
<path fill="#000000" opacity="1.000000" stroke="none" 
	d="
M5.063874,368.366394 
	C5.554269,368.932220 5.989788,369.841553 6.138169,370.919128 
	C5.570355,370.294891 5.289677,369.502411 5.063874,368.366394 
z"/>
<path fill="#FCFCFC" opacity="1.000000" stroke="none" 
	d="
M241.946960,351.483429 
	C241.933243,333.324524 241.963501,315.620270 241.914291,297.452606 
	C241.834824,282.242157 241.834824,267.495117 241.834824,252.214157 
	C255.125244,254.939331 267.754791,257.528992 280.881195,260.220551 
	C280.881195,264.854614 280.881195,269.466553 280.869568,274.996826 
	C280.955322,289.955231 281.052734,303.995270 281.053894,318.479797 
	C280.957642,321.681152 280.957642,324.437958 280.957642,327.186096 
	C295.685760,327.186096 309.964691,327.186096 322.912140,327.186096 
	C315.947235,319.708801 308.510681,311.725189 300.985107,303.424927 
	C291.003967,296.021057 286.501526,286.668335 288.806641,274.431549 
	C288.892548,273.975616 288.681793,273.463837 288.609283,272.978088 
	C288.609283,269.365234 288.609283,265.752380 288.609283,261.849915 
	C291.623230,262.357391 293.890656,262.739166 296.580139,263.089172 
	C311.076782,266.025940 325.166809,268.925446 339.202606,272.067139 
	C340.644714,272.389923 341.762848,274.160034 343.136841,275.654968 
	C343.090820,277.178497 342.939270,278.305664 342.759186,279.644867 
	C340.783508,279.762146 338.837982,279.877625 336.015015,279.937866 
	C325.949738,279.882629 316.761902,279.882629 307.463898,279.882629 
	C311.851227,284.517792 315.902130,288.797546 319.953003,293.077301 
	C330.245270,303.138428 340.537537,313.199585 351.037689,323.463959 
	C351.037689,307.409485 351.037689,291.358368 351.037689,274.450012 
	C362.538300,276.751068 373.494904,278.943268 384.834839,281.212189 
	C384.834839,283.027954 384.848450,284.666504 384.832794,286.304749 
	C384.591095,311.598236 385.569641,336.977203 383.810516,362.164886 
	C381.254303,398.765411 344.949310,427.784546 308.273865,424.360382 
	C269.709198,420.759857 242.302734,390.814941 241.946960,351.483429 
M353.468140,398.704102 
	C354.645203,397.468933 355.822266,396.233765 357.608551,394.726593 
	C359.465149,392.259460 361.321716,389.792358 363.734589,386.906616 
	C365.230011,384.063751 366.725433,381.220856 368.748322,377.868500 
	C370.497894,369.687653 373.355225,361.561462 373.761871,353.314392 
	C374.560852,337.111786 373.997009,320.842010 373.997009,304.600006 
	C373.997009,302.831482 373.997009,301.062958 373.997009,299.170563 
	C371.260468,299.170563 369.129974,299.170563 366.125336,299.038330 
	C364.862946,299.099548 363.600525,299.160797 361.927429,299.241974 
	C361.927429,316.325958 361.927429,333.062378 361.318085,349.655457 
	C359.897247,348.385254 358.476440,347.115051 356.787903,345.257690 
	C355.207916,343.784119 353.627899,342.310547 351.756622,340.225281 
	C350.167206,339.615692 348.577820,339.006104 346.168854,338.215485 
	C344.776215,338.274170 343.383545,338.332855 341.169373,338.210266 
	C339.773712,338.270752 338.378082,338.331268 336.162018,338.215454 
	C334.769958,338.275391 333.377869,338.335358 331.165161,338.216064 
	C329.771484,338.275208 328.377838,338.334351 326.124115,338.214020 
	C324.076782,338.271606 322.029419,338.329224 319.083069,338.211395 
	C315.723969,338.271973 312.364899,338.332550 308.103394,338.211548 
	C304.736847,338.271454 301.370331,338.331360 297.116882,338.210968 
	C294.411987,338.271667 291.707123,338.332367 288.126190,338.213867 
	C285.746552,338.274780 283.366943,338.335693 280.140289,338.217834 
	C275.433868,337.833374 270.857025,337.680237 269.273743,344.295624 
	C265.101013,353.080170 260.870270,361.838196 256.826508,370.681702 
	C256.300873,371.831177 256.201813,373.749908 256.816772,374.754120 
	C261.016968,381.613037 265.460938,388.322693 270.127808,395.688477 
	C273.371155,398.288696 276.614502,400.888916 280.283569,403.969177 
	C282.846344,405.318329 285.409119,406.667511 288.439331,408.555267 
	C291.233002,409.508362 294.026672,410.461456 297.471100,411.805603 
	C301.316193,412.405823 305.161316,413.006042 309.856049,413.843872 
	C313.245117,413.656555 316.634155,413.469238 320.832062,413.341461 
	C322.887512,412.903320 324.942993,412.465149 327.742004,412.067596 
	C329.159607,411.650360 330.577209,411.233154 332.673798,410.793030 
	C334.114227,410.148834 335.554657,409.504639 337.637360,408.816589 
	C339.138458,408.021454 340.639587,407.226288 342.770294,406.206451 
	C344.221802,405.255707 345.673309,404.304932 347.765656,403.119843 
	C349.465149,401.724274 351.164642,400.328735 353.468140,398.704102 
z"/>
<path fill="#343434" opacity="1.000000" stroke="none" 
	d="
M320.087585,292.758789 
	C315.902130,288.797546 311.851227,284.517792 307.463898,279.882629 
	C316.761902,279.882629 325.949738,279.882629 335.590393,280.024200 
	C333.010681,282.580139 329.997406,285.019196 326.939301,287.400635 
	C324.731140,289.120178 322.463379,290.763153 320.087585,292.758789 
z"/>
<path fill="#343434" opacity="1.000000" stroke="none" 
	d="
M288.246399,272.978424 
	C288.681793,273.463837 288.892548,273.975616 288.806641,274.431549 
	C286.501526,286.668335 291.003967,296.021057 300.882996,303.766968 
	C297.067932,307.322205 293.344452,310.330597 289.436340,313.076202 
	C286.809479,314.921692 283.921387,316.395325 281.150146,318.035309 
	C281.052734,303.995270 280.955322,289.955231 280.959351,275.455811 
	C283.335022,274.323883 285.609283,273.651337 288.246399,272.978424 
z"/>
<path fill="#3878B5" opacity="1.000000" stroke="none" 
	d="
M174.001831,332.998779 
	C175.479828,331.360809 177.084259,329.818390 178.409378,328.064911 
	C181.127106,324.468750 183.695068,320.759369 186.661728,317.048279 
	C186.666458,340.357361 186.334152,363.714722 186.004288,387.542023 
	C186.006729,388.011963 185.985245,388.473328 185.980225,388.703522 
	C182.118240,391.113190 178.261246,393.292664 174.204254,395.745422 
	C173.208008,396.268005 172.411743,396.517212 171.022491,396.604736 
	C170.286346,394.641449 169.960770,392.832977 170.028488,391.039398 
	C170.645859,374.691467 171.331711,358.346100 172.281677,341.736633 
	C173.044479,338.648468 173.523163,335.823608 174.001831,332.998779 
z"/>
<path fill="#3B6EAC" opacity="1.000000" stroke="none" 
	d="
M171.997559,342.000000 
	C171.331711,358.346100 170.645859,374.691467 170.028488,391.039398 
	C169.960770,392.832977 170.286346,394.641449 170.732330,396.738464 
	C167.811920,399.168457 164.588684,401.302948 161.158478,403.707245 
	C157.845749,405.544891 154.739990,407.112762 151.258331,408.391113 
	C150.588455,405.994873 150.056854,403.889984 150.040359,401.781067 
	C149.954880,390.854614 150.000977,379.927124 150.352203,368.942078 
	C156.362350,361.183594 156.737885,351.789215 159.390472,342.993652 
	C163.672775,340.436432 167.843185,341.317474 171.997559,342.000000 
z"/>
<path fill="#4468A8" opacity="1.000000" stroke="none" 
	d="
M150.001221,369.000000 
	C150.000977,379.927124 149.954880,390.854614 150.040359,401.781067 
	C150.056854,403.889984 150.588455,405.994873 150.937164,408.507233 
	C149.858124,409.541077 148.724380,410.169312 147.301865,410.946259 
	C145.216888,411.977417 143.420700,412.859894 141.311783,413.392456 
	C140.666107,398.361298 140.333176,383.680023 140.297195,368.705566 
	C141.062759,359.332581 141.493713,350.250610 142.032913,341.175018 
	C142.136169,339.437012 142.665436,337.724365 143.373505,336.000000 
	C144.499420,336.000000 145.250015,336.000000 146.000290,336.444153 
	C146.194763,339.004700 146.323471,341.129578 146.595917,343.235901 
	C147.707108,351.827026 148.862274,360.412476 150.001221,369.000000 
z"/>
<path fill="#785DA0" opacity="1.000000" stroke="none" 
	d="
M104.011932,429.030609 
	C99.283112,430.359344 94.554291,431.688080 89.414719,433.016602 
	C88.669380,409.990753 88.334785,386.965118 88.000862,363.471130 
	C88.732483,363.754181 89.757240,364.377808 90.148262,365.276978 
	C93.489601,372.961029 96.689705,380.706329 99.999695,388.404236 
	C100.640175,389.893768 101.575630,391.256439 102.688950,393.267273 
	C103.335266,397.624695 103.883545,401.388367 103.955238,405.161072 
	C104.106392,413.115051 104.007957,421.073822 104.011932,429.030609 
z"/>
<path fill="#5166A6" opacity="1.000000" stroke="none" 
	d="
M140.000229,368.998779 
	C140.333176,383.680023 140.666107,398.361298 140.997559,413.508362 
	C139.077652,415.110748 137.159241,416.247314 135.058716,417.667450 
	C133.873184,417.985992 132.869812,418.020935 131.170410,417.774231 
	C129.982925,403.661102 129.491470,389.829681 129.295944,375.707397 
	C130.061249,366.702698 130.488876,357.986237 131.030167,349.276855 
	C131.160919,347.173004 131.667480,345.092468 132.375580,343.075897 
	C133.168243,343.969788 133.751144,344.745850 133.979187,345.614990 
	C136.021713,353.400269 138.001785,361.201935 140.000229,368.998779 
z"/>
<path fill="#6B60A2" opacity="1.000000" stroke="none" 
	d="
M104.380096,429.020386 
	C104.007957,421.073822 104.106392,413.115051 103.955238,405.161072 
	C103.883545,401.388367 103.335266,397.624695 103.001389,393.427795 
	C103.666550,388.200104 104.589622,383.420410 104.944534,378.598938 
	C105.606415,369.607239 105.937973,360.591187 106.703262,351.293243 
	C109.814919,357.171967 112.630341,363.342682 115.732788,370.178406 
	C116.679871,377.748932 117.707535,384.643433 117.915230,391.562531 
	C118.239868,402.377411 118.009384,413.208923 118.014084,424.033386 
	C115.226631,425.260529 112.439186,426.487701 109.329201,427.871765 
	C107.587189,428.355835 106.167717,428.682983 104.380096,429.020386 
z"/>
<path fill="#5E62A4" opacity="1.000000" stroke="none" 
	d="
M118.378052,423.992249 
	C118.009384,413.208923 118.239868,402.377411 117.915230,391.562531 
	C117.707535,384.643433 116.679871,377.748932 116.010063,370.421478 
	C117.139931,362.519470 118.279549,355.039368 119.996140,347.495636 
	C121.395805,349.740479 122.346542,352.012482 123.017303,354.364319 
	C125.069305,361.559143 127.013733,368.784668 129.000000,375.998230 
	C129.491470,389.829681 129.982925,403.661102 130.791656,417.785889 
	C128.544144,419.527588 125.979370,420.976013 123.199829,422.690247 
	C121.570717,423.287720 120.156364,423.619385 118.378052,423.992249 
z"/>
<path fill="#565EA1" opacity="1.000000" stroke="none" 
	d="
M129.295929,375.707397 
	C127.013733,368.784668 125.069305,361.559143 123.017303,354.364319 
	C122.346542,352.012482 121.395805,349.740479 120.287384,347.216614 
	C119.668022,333.647095 119.334389,320.292969 119.002205,306.470642 
	C121.181190,309.030731 123.497704,311.970703 125.494835,315.113617 
	C127.280632,317.923981 128.714157,320.958191 130.651337,324.396576 
	C131.333435,330.933441 131.667328,336.967316 132.001221,343.001221 
	C131.667480,345.092468 131.160919,347.173004 131.030167,349.276855 
	C130.488876,357.986237 130.061249,366.702698 129.295929,375.707397 
z"/>
<path fill="#2C60A4" opacity="1.000000" stroke="none" 
	d="
M148.001221,284.997894 
	C148.334137,283.274902 148.943329,281.553894 148.955536,279.828644 
	C149.040100,267.865387 149.000534,255.901306 149.001923,243.468872 
	C149.985443,244.888290 151.056305,246.736969 151.919632,248.677948 
	C152.511658,250.008926 152.815063,251.468292 153.370117,253.267853 
	C157.680145,247.054626 161.487915,241.565475 165.646606,236.038467 
	C165.665070,242.364639 165.332611,248.728683 164.718353,255.797989 
	C161.292740,269.343933 158.260437,282.213928 154.897980,294.997070 
	C154.321487,297.188751 152.337006,299.010071 150.724396,300.750916 
	C149.630951,298.666656 148.816086,296.833954 148.001251,294.547028 
	C148.001266,291.061188 148.001251,288.029541 148.001221,284.997894 
z"/>
<path fill="#4961A3" opacity="1.000000" stroke="none" 
	d="
M132.375580,343.075897 
	C131.667328,336.967316 131.333435,330.933441 130.998856,324.449768 
	C131.332230,314.978912 131.666290,305.957855 132.000793,296.468140 
	C134.100067,298.307404 136.198929,300.615265 138.648895,303.404724 
	C139.194855,306.002655 139.323929,308.127533 139.596100,310.233887 
	C140.706314,318.825653 141.860306,327.411804 142.998169,336.000000 
	C142.665436,337.724365 142.136169,339.437012 142.032913,341.175018 
	C141.493713,350.250610 141.062759,359.332581 140.297180,368.705566 
	C138.001785,361.201935 136.021713,353.400269 133.979187,345.614990 
	C133.751144,344.745850 133.168243,343.969788 132.375580,343.075897 
z"/>
<path fill="#3D5FA2" opacity="1.000000" stroke="none" 
	d="
M143.373505,336.000000 
	C141.860306,327.411804 140.706314,318.825653 139.596100,310.233887 
	C139.323929,308.127533 139.194855,306.002655 139.000000,303.442535 
	C139.333435,288.975922 139.666870,274.953033 140.000763,260.465698 
	C140.672592,260.929199 141.687927,261.766541 141.960037,262.799683 
	C143.862808,270.024048 145.611923,277.288849 147.705719,284.769287 
	C148.001251,288.029541 148.001266,291.061188 148.000885,295.014282 
	C147.333847,309.290497 146.667221,322.645233 146.000610,336.000000 
	C145.250015,336.000000 144.499420,336.000000 143.373505,336.000000 
z"/>
<path fill="#336DAD" opacity="1.000000" stroke="none" 
	d="
M172.281677,341.736633 
	C167.843185,341.317474 163.672775,340.436432 159.390076,342.543762 
	C159.333618,335.733490 159.666809,329.366730 160.289307,322.779114 
	C161.074966,321.184418 161.668854,319.837219 162.051987,318.432526 
	C164.725952,308.628754 167.356293,298.813080 170.000610,289.001221 
	C175.145554,288.949066 175.375519,293.107666 176.728607,296.768524 
	C176.000549,308.702850 175.000504,320.405670 174.001160,332.553650 
	C173.523163,335.823608 173.044479,338.648468 172.281677,341.736633 
z"/>
<path fill="#2F67A8" opacity="1.000000" stroke="none" 
	d="
M170.000549,288.571991 
	C167.356293,298.813080 164.725952,308.628754 162.051987,318.432526 
	C161.668854,319.837219 161.074966,321.184418 159.939575,322.742676 
	C158.492279,322.387634 157.561707,321.968292 156.895020,321.289734 
	C151.301208,315.596100 151.668121,308.144958 151.002930,301.002441 
	C152.337006,299.010071 154.321487,297.188751 154.897980,294.997070 
	C158.260437,282.213928 161.292740,269.343933 164.718597,256.252258 
	C165.646759,256.613800 166.723175,257.137177 166.871582,257.852936 
	C168.155746,264.047333 169.272980,270.276337 170.720276,276.746887 
	C170.667236,280.713440 170.333847,284.428101 170.000549,288.571991 
z"/>
<path fill="#3FA86E" opacity="1.000000" stroke="none" 
	d="
M309.005798,338.393158 
	C312.364899,338.332550 315.723969,338.271973 319.537140,338.741211 
	C320.001892,363.941315 320.012543,388.611603 320.023224,413.281921 
	C316.634155,413.469238 313.245117,413.656555 309.428741,413.283325 
	C309.002899,387.946259 309.004333,363.169708 309.005798,338.393158 
z"/>
<path fill="#36A37C" opacity="1.000000" stroke="none" 
	d="
M308.554596,338.302368 
	C309.004333,363.169708 309.002899,387.946259 309.003906,413.164551 
	C305.161316,413.006042 301.316193,412.405823 297.319244,411.192566 
	C297.444916,408.467377 297.957886,406.355865 297.963684,404.242981 
	C298.023895,382.292511 298.002502,360.341858 298.003784,338.391235 
	C301.370331,338.331360 304.736847,338.271454 308.554596,338.302368 
z"/>
<path fill="#2E9E89" opacity="1.000000" stroke="none" 
	d="
M297.560333,338.301086 
	C298.002502,360.341858 298.023895,382.292511 297.963684,404.242981 
	C297.957886,406.355865 297.444916,408.467377 296.993866,410.997070 
	C294.026672,410.461456 291.233002,409.508362 288.507233,407.993774 
	C288.716766,405.633240 288.979095,403.834351 288.981598,402.035095 
	C289.010956,380.821106 289.001495,359.607086 289.002228,338.393066 
	C291.707123,338.332367 294.411987,338.271667 297.560333,338.301086 
z"/>
<path fill="#090909" opacity="1.000000" stroke="none" 
	d="
M281.053894,318.479797 
	C283.921387,316.395325 286.809479,314.921692 289.436340,313.076202 
	C293.344452,310.330597 297.067932,307.322205 300.972046,304.083618 
	C308.510681,311.725189 315.947235,319.708801 322.912140,327.186096 
	C309.964691,327.186096 295.685760,327.186096 280.957642,327.186096 
	C280.957642,324.437958 280.957642,321.681152 281.053894,318.479797 
z"/>
<path fill="#1F969C" opacity="1.000000" stroke="none" 
	d="
M269.885162,343.962524 
	C270.857025,337.680237 275.433868,337.833374 280.566956,338.748932 
	C280.995758,357.575714 281.050903,375.871704 280.948669,394.166809 
	C280.931305,397.276154 280.238586,400.381775 279.857880,403.489105 
	C276.614502,400.888916 273.371155,398.288696 270.339783,395.192871 
	C271.032867,393.526733 271.924927,392.358887 271.932617,391.185242 
	C272.028351,376.542023 272.041199,361.897583 271.905060,347.255035 
	C271.894806,346.151367 270.588806,345.059753 269.885162,343.962524 
z"/>
<path fill="#289B90" opacity="1.000000" stroke="none" 
	d="
M280.070740,403.729126 
	C280.238586,400.381775 280.931305,397.276154 280.948669,394.166809 
	C281.050903,375.871704 280.995758,357.575714 280.990479,338.838318 
	C283.366943,338.335693 285.746552,338.274780 288.564209,338.303467 
	C289.001495,359.607086 289.010956,380.821106 288.981598,402.035095 
	C288.979095,403.834351 288.716766,405.633240 288.273499,407.724487 
	C285.409119,406.667511 282.846344,405.318329 280.070740,403.729126 
z"/>
<path fill="#4DAD64" opacity="1.000000" stroke="none" 
	d="
M320.427643,413.311707 
	C320.012543,388.611603 320.001892,363.941315 319.986633,338.828918 
	C322.029419,338.329224 324.076782,338.271606 326.558167,338.745239 
	C326.994263,363.526611 326.996368,387.776825 326.998444,412.027008 
	C324.942993,412.465149 322.887512,412.903320 320.427643,413.311707 
z"/>
<path fill="#BCCA29" opacity="1.000000" stroke="none" 
	d="
M366.999512,299.170563 
	C369.129974,299.170563 371.260468,299.170563 373.997009,299.170563 
	C373.997009,301.062958 373.997009,302.831482 373.997009,304.600006 
	C373.997009,320.842010 374.560852,337.111786 373.761871,353.314392 
	C373.355225,361.561462 370.497894,369.687653 368.295166,377.713104 
	C367.561310,375.455231 367.041595,373.353363 367.036560,371.250214 
	C366.978912,347.223785 366.999695,323.197144 366.999512,299.170563 
z"/>
<path fill="#1993A7" opacity="1.000000" stroke="none" 
	d="
M269.579468,344.129089 
	C270.588806,345.059753 271.894806,346.151367 271.905060,347.255035 
	C272.041199,361.897583 272.028351,376.542023 271.932617,391.185242 
	C271.924927,392.358887 271.032867,393.526733 270.189026,394.888916 
	C265.460938,388.322693 261.016968,381.613037 256.816772,374.754120 
	C256.201813,373.749908 256.300873,371.831177 256.826508,370.681702 
	C260.870270,361.838196 265.101013,353.080170 269.579468,344.129089 
z"/>
<path fill="#AFC62F" opacity="1.000000" stroke="none" 
	d="
M366.562439,299.104431 
	C366.999695,323.197144 366.978912,347.223785 367.036560,371.250214 
	C367.041595,373.353363 367.561310,375.455231 368.031433,377.967834 
	C366.725433,381.220856 365.230011,384.063751 363.273499,386.708923 
	C362.541595,384.567963 362.055176,382.626801 362.036072,380.681061 
	C361.935028,370.387604 361.951630,360.092987 361.927429,349.798767 
	C361.927429,333.062378 361.927429,316.325958 361.927429,299.241974 
	C363.600525,299.160797 364.862946,299.099548 366.562439,299.104431 
z"/>
<path fill="#5BB05B" opacity="1.000000" stroke="none" 
	d="
M327.370239,412.047302 
	C326.996368,387.776825 326.994263,363.526611 326.988159,338.834961 
	C328.377838,338.334351 329.771484,338.275208 331.579346,338.746887 
	C331.993958,363.123779 331.994385,386.969849 331.994812,410.815918 
	C330.577209,411.233154 329.159607,411.650360 327.370239,412.047302 
z"/>
<path fill="#67B355" opacity="1.000000" stroke="none" 
	d="
M332.334290,410.804474 
	C331.994385,386.969849 331.993958,363.123779 331.989685,338.836487 
	C333.377869,338.335358 334.769958,338.275391 336.576843,338.744873 
	C336.992828,362.469666 336.993958,385.665039 336.995087,408.860413 
	C335.554657,409.504639 334.114227,410.148834 332.334290,410.804474 
z"/>
<path fill="#73B751" opacity="1.000000" stroke="none" 
	d="
M337.316223,408.838501 
	C336.993958,385.665039 336.992828,362.469666 336.987061,338.833008 
	C338.378082,338.331268 339.773712,338.270752 341.583099,338.742065 
	C342.044800,361.659637 342.092773,384.045380 342.140717,406.431152 
	C340.639587,407.226288 339.138458,408.021454 337.316223,408.838501 
z"/>
<path fill="#7FB948" opacity="1.000000" stroke="none" 
	d="
M342.455505,406.318787 
	C342.092773,384.045380 342.044800,361.659637 341.993866,338.832703 
	C343.383545,338.332855 344.776215,338.274170 346.582001,338.746765 
	C347.038391,360.636749 347.081635,381.995483 347.124817,403.354187 
	C345.673309,404.304932 344.221802,405.255707 342.455505,406.318787 
z"/>
<path fill="#94BF3D" opacity="1.000000" stroke="none" 
	d="
M352.047882,340.836975 
	C353.627899,342.310547 355.207916,343.784119 356.904297,346.031128 
	C357.013580,362.869263 357.006439,378.933929 356.999298,394.998596 
	C355.822266,396.233765 354.645203,397.468933 352.883575,398.569641 
	C351.868500,397.205322 351.048248,395.969727 351.066071,394.746368 
	C351.327789,376.775604 351.701111,358.806488 352.047882,340.836975 
z"/>
<path fill="#88BC43" opacity="1.000000" stroke="none" 
	d="
M351.902252,340.531128 
	C351.701111,358.806488 351.327789,376.775604 351.066071,394.746368 
	C351.048248,395.969727 351.868500,397.205322 352.581573,398.684204 
	C351.164642,400.328735 349.465149,401.724274 347.445251,403.237000 
	C347.081635,381.995483 347.038391,360.636749 346.991760,338.837280 
	C348.577820,339.006104 350.167206,339.615692 351.902252,340.531128 
z"/>
<path fill="#A1C336" opacity="1.000000" stroke="none" 
	d="
M357.303925,394.862610 
	C357.006439,378.933929 357.013580,362.869263 357.038147,346.324707 
	C358.476440,347.115051 359.897247,348.385254 361.622742,349.727112 
	C361.951630,360.092987 361.935028,370.387604 362.036072,380.681061 
	C362.055176,382.626801 362.541595,384.567963 362.995361,386.918213 
	C361.321716,389.792358 359.465149,392.259460 357.303925,394.862610 
z"/>
<path fill="#3966A7" opacity="1.000000" stroke="none" 
	d="
M150.724380,300.750916 
	C151.668121,308.144958 151.301208,315.596100 156.895020,321.289734 
	C157.561707,321.968292 158.492279,322.387634 159.650269,322.963562 
	C159.666809,329.366730 159.333618,335.733490 159.000824,342.550110 
	C156.737885,351.789215 156.362350,361.183594 150.352203,368.942078 
	C148.862274,360.412476 147.707108,351.827026 146.595917,343.235901 
	C146.323471,341.129578 146.194763,339.004700 146.000290,336.444153 
	C146.667221,322.645233 147.333847,309.290497 148.000854,295.468475 
	C148.816086,296.833954 149.630951,298.666656 150.724380,300.750916 
z"/>
</svg>